<svg width="148" height="48" viewBox="0 0 148 48" fill="none" xmlns="http://www.w3.org/2000/svg">
    <path d="M9.50139 47.9975C9.11907 47.9975 8.74598 47.9926 8.36666 47.9841C7.58086 47.9738 6.79689 47.9054 6.02119 47.7794C5.29789 47.6548 4.59721 47.4231 3.94226 47.0919C3.29331 46.7634 2.70141 46.3327 2.18925 45.8162C1.66967 45.3058 1.2371 44.7139 0.908677 44.0638C0.576634 43.4095 0.34684 42.7082 0.227301 41.9843C0.098209 41.2065 0.0283648 40.4199 0.0183708 39.6315C0.0104152 39.3669 0 38.4857 0 38.4857V9.49828C0 9.49828 0.0110928 8.63068 0.0184336 8.37578C0.0280028 7.5886 0.0974408 6.80329 0.226147 6.02664C0.345907 5.30074 0.575878 4.59741 0.9081 3.94098C1.23532 3.29137 1.66549 2.69898 2.18193 2.18678C2.6978 1.66971 3.29159 1.23677 3.94164 0.903746C4.59509 0.573578 5.29445 0.34349 6.01629 0.22119C6.79453 0.0939071 7.58122 0.0250918 8.36975 0.0153216L9.50201 0H138.46L139.606 0.0159364C140.387 0.0252212 141.166 0.0934226 141.938 0.21996C142.667 0.343794 143.373 0.575487 144.034 0.907422C145.337 1.57857 146.396 2.64038 147.065 3.94404C147.392 4.59594 147.618 5.29354 147.736 6.01316C147.866 6.79618 147.939 7.58767 147.954 8.3813C147.958 8.73667 147.958 9.11839 147.958 9.49828C147.968 9.96885 147.968 10.4167 147.968 10.8683V37.1304C147.968 37.5862 147.968 38.0311 147.958 38.4796C147.958 38.8876 147.958 39.2614 147.953 39.6462C147.938 40.4257 147.867 41.203 147.739 41.972C147.622 42.7012 147.393 43.4079 147.061 44.0676C146.73 44.7106 146.3 45.2974 145.787 45.8064C145.274 46.3257 144.681 46.7589 144.031 47.0895C143.371 47.4233 142.666 47.6558 141.938 47.7794C141.162 47.9061 140.378 47.9745 139.592 47.9841C139.224 47.9926 138.84 47.9975 138.466 47.9975L137.106 48L9.50139 47.9975Z" fill="black"/>
    <path d="M29.9854 24.3757C29.9989 23.3284 30.2771 22.3014 30.7942 21.3905C31.3112 20.4795 32.0502 19.7142 32.9425 19.1656C32.3757 18.356 31.6279 17.6898 30.7585 17.2198C29.8891 16.7498 28.9221 16.489 27.9343 16.4581C25.8271 16.2369 23.7843 17.7189 22.7105 17.7189C21.616 17.7189 19.9627 16.48 18.1825 16.5166C17.0309 16.5538 15.9087 16.8887 14.925 17.4886C13.9414 18.0885 13.1299 18.9329 12.5697 19.9397C10.1428 24.1414 11.953 30.3165 14.2778 33.7129C15.4409 35.3759 16.8002 37.2337 18.5789 37.1678C20.3194 37.0956 20.9695 36.0579 23.0704 36.0579C25.1519 36.0579 25.7618 37.1678 27.5765 37.1259C29.4442 37.0956 30.6209 35.4554 31.7432 33.7766C32.5789 32.5916 33.222 31.2819 33.6486 29.896C32.5635 29.437 31.6376 28.6689 30.9862 27.6872C30.3347 26.7056 29.9867 25.5539 29.9854 24.3757Z" fill="white"/>
    <path d="M26.5577 14.2249C27.576 13.0024 28.0777 11.4311 27.9562 9.84473C26.4004 10.0081 24.9633 10.7517 23.9312 11.9273C23.4266 12.5016 23.0401 13.1697 22.7939 13.8934C22.5476 14.6172 22.4464 15.3824 22.496 16.1453C23.2742 16.1533 24.0441 15.9846 24.7476 15.652C25.4511 15.3193 26.07 14.8314 26.5577 14.2249Z" fill="white"/>
    <path d="M51.9869 32.9577H46.0473L44.6209 37.1695H42.1051L47.731 21.5869H50.3449L55.9708 37.1695H53.4121L51.9869 32.9577ZM46.6625 31.0141H51.3706L49.0496 24.1787H48.9847L46.6625 31.0141Z" fill="white"/>
    <path d="M68.1209 31.4895C68.1209 35.02 66.2313 37.2883 63.3798 37.2883C62.6574 37.326 61.939 37.1596 61.3068 36.8081C60.6747 36.4566 60.1543 35.9341 59.8052 35.3006H59.7512V40.9278H57.4193V25.8085H59.6765V27.6981H59.7194C60.0845 27.0676 60.6137 26.5478 61.2507 26.1941C61.8877 25.8405 62.6087 25.6661 63.3369 25.6896C66.2202 25.6896 68.1209 27.9689 68.1209 31.4895ZM65.724 31.4895C65.724 29.1894 64.5353 27.6772 62.7217 27.6772C60.9399 27.6772 59.7415 29.2213 59.7415 31.4895C59.7415 33.7786 60.9399 35.3117 62.7217 35.3117C64.5353 35.3117 65.724 33.8105 65.724 31.4895Z" fill="white"/>
    <path d="M80.6251 31.4895C80.6251 35.02 78.7355 37.2882 75.884 37.2882C75.1616 37.326 74.4432 37.1596 73.811 36.8081C73.1789 36.4566 72.6585 35.9341 72.3094 35.3006H72.2554V40.9278H69.9235V25.8085H72.1807V27.6981H72.2236C72.5887 27.0676 73.1179 26.5478 73.7549 26.1941C74.3919 25.8405 75.1128 25.6661 75.841 25.6896C78.7245 25.6896 80.6251 27.9689 80.6251 31.4895ZM78.2282 31.4895C78.2282 29.1894 77.0395 27.6772 75.2259 27.6772C73.4441 27.6772 72.2457 29.2213 72.2457 31.4895C72.2457 33.7786 73.4441 35.3116 75.2259 35.3116C77.0396 35.3116 78.2282 33.8105 78.2282 31.4895H78.2282Z" fill="white"/>
    <path d="M88.8894 32.8278C89.0622 34.3731 90.5634 35.3877 92.6147 35.3877C94.5803 35.3877 95.9944 34.3731 95.9944 32.9797C95.9944 31.7702 95.1415 31.046 93.122 30.5497L91.1026 30.0632C88.2412 29.3721 86.9128 28.0339 86.9128 25.8625C86.9128 23.1739 89.2558 21.3271 92.5829 21.3271C95.8756 21.3271 98.1328 23.1739 98.2088 25.8625H95.8547C95.7138 24.3074 94.4283 23.3687 92.5497 23.3687C90.6712 23.3687 89.3857 24.3184 89.3857 25.7007C89.3857 26.8024 90.2067 27.4506 92.2152 27.9469L93.932 28.3684C97.1292 29.1245 98.4575 30.4088 98.4575 32.688C98.4575 35.6033 96.1353 37.4292 92.4419 37.4292C88.9862 37.4292 86.653 35.6462 86.5023 32.8277L88.8894 32.8278Z" fill="white"/>
    <path d="M103.49 23.1201V25.8087H105.651V27.6554H103.49V33.9186C103.49 34.8916 103.923 35.345 104.873 35.345C105.129 35.3405 105.385 35.3225 105.64 35.291V37.1267C105.213 37.2065 104.779 37.2426 104.344 37.2345C102.044 37.2345 101.147 36.3706 101.147 34.1673V27.6554H99.4955V25.8087H101.147V23.1201H103.49Z" fill="white"/>
    <path d="M106.902 31.4897C106.902 27.9152 109.007 25.6689 112.29 25.6689C115.584 25.6689 117.68 27.9151 117.68 31.4897C117.68 35.0741 115.595 37.3105 112.29 37.3105C108.986 37.3105 106.902 35.0741 106.902 31.4897ZM115.303 31.4897C115.303 29.0376 114.18 27.5904 112.29 27.5904C110.401 27.5904 109.278 29.0487 109.278 31.4897C109.278 33.9516 110.401 35.3878 112.29 35.3878C114.18 35.3878 115.303 33.9516 115.303 31.4897H115.303Z" fill="white"/>
    <path d="M119.602 25.8084H121.826V27.7421H121.88C122.031 27.1381 122.385 26.6044 122.882 26.2306C123.38 25.8568 123.991 25.6657 124.613 25.6895C124.882 25.6885 125.15 25.7177 125.412 25.7765V27.9577C125.073 27.8541 124.719 27.8065 124.364 27.8168C124.026 27.8031 123.688 27.8628 123.374 27.9919C123.061 28.121 122.779 28.3164 122.548 28.5648C122.317 28.8131 122.143 29.1084 122.037 29.4305C121.931 29.7526 121.896 30.0938 121.934 30.4306V37.1693H119.602L119.602 25.8084Z" fill="white"/>
    <path d="M136.164 33.8327C135.85 35.8951 133.842 37.3105 131.272 37.3105C127.967 37.3105 125.916 35.0961 125.916 31.5436C125.916 27.9801 127.978 25.6689 131.174 25.6689C134.317 25.6689 136.294 27.8281 136.294 31.2728V32.0718H128.27V32.2127C128.233 32.6308 128.285 33.052 128.423 33.4484C128.562 33.8447 128.783 34.2071 129.072 34.5114C129.361 34.8158 129.711 35.0552 130.1 35.2136C130.489 35.3721 130.907 35.4461 131.326 35.4307C131.877 35.4823 132.43 35.3547 132.903 35.0668C133.376 34.7789 133.743 34.3461 133.95 33.8327L136.164 33.8327ZM128.281 30.442H133.961C133.982 30.066 133.925 29.6898 133.793 29.3369C133.662 28.9841 133.459 28.6622 133.197 28.3914C132.936 28.1207 132.621 27.9069 132.273 27.7636C131.925 27.6203 131.551 27.5505 131.174 27.5586C130.794 27.5563 130.418 27.6292 130.066 27.7732C129.715 27.9172 129.396 28.1294 129.127 28.3974C128.858 28.6655 128.644 28.9842 128.499 29.3351C128.354 29.686 128.28 30.0622 128.281 30.442V30.442Z" fill="white"/>
    <path d="M46.3702 9.85811C46.8591 9.82302 47.3497 9.89688 47.8066 10.0744C48.2635 10.2518 48.6753 10.5285 49.0124 10.8844C49.3494 11.2403 49.6032 11.6666 49.7556 12.1325C49.9079 12.5983 49.955 13.0922 49.8933 13.5785C49.8933 15.9705 48.6005 17.3455 46.3702 17.3455H43.6657V9.85811H46.3702ZM44.8286 16.2866H46.2403C46.5897 16.3075 46.9393 16.2502 47.2637 16.119C47.5881 15.9877 47.8792 15.7857 48.1157 15.5278C48.3523 15.2698 48.5283 14.9624 48.631 14.6278C48.7337 14.2933 48.7606 13.94 48.7096 13.5938C48.7569 13.2489 48.7273 12.8978 48.623 12.5657C48.5187 12.2336 48.3423 11.9287 48.1063 11.6728C47.8703 11.4169 47.5806 11.2163 47.258 11.0855C46.9354 10.9547 46.5879 10.8969 46.2403 10.9162H44.8286V16.2866Z" fill="white"/>
    <path d="M51.2069 14.5177C51.1714 14.1464 51.2139 13.7717 51.3317 13.4178C51.4494 13.0638 51.6398 12.7384 51.8907 12.4624C52.1416 12.1863 52.4474 11.9658 52.7886 11.8148C53.1297 11.6639 53.4986 11.5859 53.8716 11.5859C54.2447 11.5859 54.6136 11.6639 54.9547 11.8148C55.2958 11.9658 55.6016 12.1863 55.8525 12.4624C56.1034 12.7384 56.2939 13.0638 56.4116 13.4178C56.5294 13.7717 56.5718 14.1464 56.5363 14.5177C56.5725 14.8894 56.5305 15.2646 56.4131 15.6191C56.2957 15.9736 56.1053 16.2997 55.8544 16.5763C55.6034 16.8528 55.2974 17.0739 54.9559 17.2251C54.6144 17.3764 54.2451 17.4545 53.8716 17.4545C53.4982 17.4545 53.1288 17.3764 52.7874 17.2251C52.4459 17.0739 52.1398 16.8528 51.8889 16.5763C51.6379 16.2997 51.4476 15.9736 51.3302 15.6191C51.2127 15.2646 51.1707 14.8894 51.2069 14.5177ZM55.3893 14.5177C55.3893 13.2929 54.8391 12.5766 53.8735 12.5766C52.9042 12.5766 52.3589 13.2929 52.3589 14.5177C52.3589 15.7523 52.9042 16.4631 53.8735 16.4631C54.8391 16.4631 55.3893 15.7474 55.3893 14.5177H55.3893Z" fill="white"/>
    <path d="M63.6205 17.3458H62.4637L61.2959 13.1842H61.2077L60.0447 17.3458H58.8989L57.3414 11.6953H58.4725L59.4847 16.0069H59.568L60.7297 11.6953H61.7995L62.9612 16.0069H63.0495L64.0568 11.6953H65.1719L63.6205 17.3458Z" fill="white"/>
    <path d="M66.4819 11.6947H67.5554V12.5923H67.6387C67.7801 12.2699 68.0185 11.9997 68.3208 11.8192C68.623 11.6388 68.9741 11.5571 69.3249 11.5856C69.5999 11.565 69.8759 11.6064 70.1327 11.7069C70.3894 11.8074 70.6202 11.9644 70.8081 12.1663C70.9959 12.3681 71.1359 12.6096 71.2177 12.8729C71.2995 13.1362 71.3211 13.4145 71.2807 13.6872V17.3451H70.1656V13.9673C70.1656 13.0592 69.771 12.6077 68.9463 12.6077C68.7596 12.599 68.5733 12.6307 68.4 12.7008C68.2268 12.7708 68.0707 12.8775 67.9426 13.0135C67.8144 13.1495 67.7172 13.3117 67.6576 13.4887C67.5979 13.6658 67.5773 13.8537 67.5971 14.0396V17.3452H66.4819L66.4819 11.6947Z" fill="white"/>
    <path d="M73.0576 9.48926H74.1727V17.3455H73.0576V9.48926Z" fill="white"/>
    <path d="M75.7228 14.5178C75.6873 14.1465 75.7298 13.7718 75.8476 13.4178C75.9654 13.0639 76.1558 12.7384 76.4067 12.4624C76.6577 12.1863 76.9635 11.9658 77.3047 11.8148C77.6458 11.6639 78.0147 11.5859 78.3878 11.5859C78.7608 11.5859 79.1298 11.6639 79.4709 11.8148C79.8121 11.9658 80.1179 12.1863 80.3688 12.4624C80.6197 12.7384 80.8102 13.0639 80.928 13.4178C81.0458 13.7718 81.0883 14.1465 81.0528 14.5178C81.0889 14.8895 81.0469 15.2647 80.9294 15.6192C80.812 15.9738 80.6216 16.2998 80.3706 16.5764C80.1196 16.8529 79.8136 17.0739 79.4721 17.2252C79.1306 17.3764 78.7613 17.4546 78.3878 17.4546C78.0143 17.4546 77.6449 17.3764 77.3035 17.2252C76.962 17.0739 76.6559 16.8529 76.4049 16.5764C76.1539 16.2998 75.9636 15.9738 75.8461 15.6192C75.7286 15.2647 75.6866 14.8895 75.7228 14.5178ZM79.9051 14.5178C79.9051 13.293 79.3549 12.5767 78.3893 12.5767C77.42 12.5767 76.8747 13.293 76.8747 14.5178C76.8747 15.7524 77.42 16.4632 78.3893 16.4632C79.3549 16.4632 79.9052 15.7475 79.9052 14.5178H79.9051Z" fill="white"/>
    <path d="M82.2268 15.7475C82.2268 14.7304 82.9841 14.144 84.3284 14.0607L85.859 13.9724V13.4847C85.859 12.8879 85.4644 12.551 84.7022 12.551C84.0797 12.551 83.6483 12.7795 83.5245 13.179H82.4449C82.5589 12.2084 83.4718 11.5859 84.7536 11.5859C86.1702 11.5859 86.9692 12.2912 86.9692 13.4847V17.3454H85.8957V16.5514H85.8075C85.6284 16.8362 85.3769 17.0684 85.0788 17.2243C84.7806 17.3801 84.4464 17.4541 84.1103 17.4385C83.8731 17.4632 83.6333 17.4379 83.4065 17.3642C83.1797 17.2906 82.9708 17.1702 82.7934 17.0109C82.6159 16.8516 82.4738 16.6568 82.3762 16.4392C82.2786 16.2216 82.2277 15.986 82.2268 15.7475ZM85.859 15.2647V14.7923L84.4791 14.8805C83.701 14.9326 83.3481 15.1973 83.3481 15.6954C83.3481 16.2039 83.7892 16.4999 84.3958 16.4999C84.5736 16.5179 84.7531 16.4999 84.9238 16.4471C85.0945 16.3943 85.2528 16.3077 85.3893 16.1924C85.5258 16.0772 85.6377 15.9357 85.7184 15.7763C85.7991 15.6169 85.8469 15.4429 85.859 15.2647Z" fill="white"/>
    <path d="M88.4348 14.5178C88.4348 12.7324 89.3527 11.6013 90.7803 11.6013C91.1334 11.585 91.4839 11.6696 91.7907 11.8452C92.0976 12.0207 92.3481 12.28 92.513 12.5926H92.5964V9.48926H93.7115V17.3455H92.6429V16.4527H92.5547C92.377 16.7633 92.1177 17.0193 91.805 17.1931C91.4922 17.3669 91.1378 17.4518 90.7803 17.4386C89.3429 17.4386 88.4348 16.3075 88.4348 14.5178ZM89.5868 14.5178C89.5868 15.7163 90.1517 16.4374 91.0965 16.4374C92.0364 16.4374 92.6172 15.7059 92.6172 14.5227C92.6172 13.3451 92.0303 12.6031 91.0965 12.6031C90.1578 12.6031 89.5867 13.3291 89.5867 14.5178H89.5868Z" fill="white"/>
    <path d="M98.3252 14.5177C98.2897 14.1464 98.3322 13.7717 98.4499 13.4178C98.5677 13.0638 98.7581 12.7384 99.009 12.4624C99.2599 12.1863 99.5657 11.9658 99.9069 11.8148C100.248 11.6639 100.617 11.5859 100.99 11.5859C101.363 11.5859 101.732 11.6639 102.073 11.8148C102.414 11.9658 102.72 12.1863 102.971 12.4624C103.222 12.7384 103.412 13.0638 103.53 13.4178C103.648 13.7717 103.69 14.1464 103.655 14.5177C103.691 14.8894 103.649 15.2646 103.531 15.6191C103.414 15.9736 103.224 16.2997 102.973 16.5763C102.722 16.8528 102.416 17.0739 102.074 17.2251C101.733 17.3764 101.363 17.4545 100.99 17.4545C100.616 17.4545 100.247 17.3764 99.9056 17.2251C99.5642 17.0739 99.2581 16.8528 99.0072 16.5763C98.7562 16.2997 98.5659 15.9736 98.4484 15.6191C98.331 15.2646 98.289 14.8894 98.3252 14.5177ZM102.508 14.5177C102.508 13.2929 101.957 12.5766 100.992 12.5766C100.022 12.5766 99.4772 13.2929 99.4772 14.5177C99.4772 15.7523 100.022 16.4631 100.992 16.4631C101.957 16.4631 102.508 15.7474 102.508 14.5177Z" fill="white"/>
    <path d="M105.151 11.6947H106.224V12.5923H106.308C106.449 12.2699 106.687 11.9997 106.99 11.8192C107.292 11.6388 107.643 11.5571 107.994 11.5856C108.269 11.565 108.545 11.6064 108.802 11.7069C109.058 11.8074 109.289 11.9644 109.477 12.1663C109.665 12.3681 109.805 12.6096 109.887 12.8729C109.968 13.1362 109.99 13.4145 109.95 13.6872V17.3451H108.835V13.9673C108.835 13.0592 108.44 12.6077 107.615 12.6077C107.429 12.599 107.242 12.6307 107.069 12.7008C106.896 12.7708 106.74 12.8775 106.612 13.0135C106.483 13.1495 106.386 13.3117 106.327 13.4887C106.267 13.6658 106.246 13.8537 106.266 14.0396V17.3452H105.151V11.6947Z" fill="white"/>
    <path d="M116.251 10.2881V11.7206H117.475V12.6599H116.251V15.5654C116.251 16.1573 116.495 16.4164 117.05 16.4164C117.192 16.416 117.334 16.4074 117.475 16.3907V17.3196C117.275 17.3554 117.072 17.3745 116.868 17.3766C115.628 17.3766 115.134 16.9403 115.134 15.8509V12.6599H114.237V11.7206H115.134V10.2881H116.251Z" fill="white"/>
    <path d="M118.998 9.48926H120.104V12.6031H120.192C120.34 12.2777 120.585 12.0059 120.893 11.8247C121.202 11.6436 121.558 11.5619 121.915 11.5909C122.188 11.576 122.462 11.6216 122.715 11.7246C122.969 11.8275 123.197 11.9852 123.383 12.1864C123.569 12.3876 123.708 12.6274 123.791 12.8886C123.873 13.1497 123.897 13.4259 123.861 13.6974V17.3455H122.744V13.9725C122.744 13.0699 122.324 12.6129 121.536 12.6129C121.344 12.5971 121.152 12.6235 120.971 12.6901C120.791 12.7566 120.627 12.8618 120.492 12.9983C120.356 13.1347 120.252 13.2991 120.187 13.48C120.121 13.6609 120.096 13.8538 120.113 14.0454V17.3454H118.998L118.998 9.48926Z" fill="white"/>
    <path d="M130.363 15.8199C130.211 16.3363 129.883 16.783 129.435 17.0818C128.988 17.3807 128.449 17.5126 127.914 17.4546C127.542 17.4644 127.172 17.3931 126.83 17.2456C126.488 17.0982 126.183 16.878 125.934 16.6005C125.686 16.323 125.501 15.9948 125.392 15.6387C125.283 15.2825 125.253 14.907 125.304 14.5381C125.255 14.1681 125.285 13.7917 125.394 13.4345C125.502 13.0773 125.686 12.7475 125.933 12.4676C126.18 12.1877 126.485 11.9641 126.826 11.812C127.167 11.6599 127.536 11.5828 127.909 11.586C129.482 11.586 130.43 12.6602 130.43 14.4345V14.8236H126.44V14.8861C126.423 15.0935 126.449 15.3022 126.517 15.4989C126.585 15.6956 126.693 15.8759 126.835 16.0283C126.976 16.1807 127.148 16.3018 127.339 16.3839C127.531 16.466 127.737 16.5072 127.945 16.5049C128.212 16.5369 128.482 16.4888 128.721 16.3669C128.961 16.2449 129.158 16.0545 129.289 15.8198L130.363 15.8199ZM126.44 13.9989H129.294C129.308 13.8093 129.282 13.6188 129.219 13.4397C129.155 13.2606 129.054 13.0969 128.923 12.959C128.792 12.8212 128.634 12.7122 128.458 12.6392C128.282 12.5662 128.093 12.5308 127.903 12.5351C127.71 12.5327 127.519 12.5689 127.34 12.6416C127.162 12.7143 126.999 12.8221 126.863 12.9585C126.727 13.0949 126.619 13.2572 126.546 13.4359C126.474 13.6146 126.438 13.806 126.44 13.9989H126.44Z" fill="white"/>
</svg>
