<svg width="159" height="159" viewBox="0 0 159 159" fill="none" xmlns="http://www.w3.org/2000/svg">
<circle cx="79.5" cy="79.5" r="79.5" fill="#E7E7F9"/>
<path d="M54.0925 94.7552C54.0925 94.7552 34.5246 93.9155 29.0999 81.3844C27.7437 78.3485 26 74.15 26 69.6285C29.4228 73.5686 31.231 73.8916 31.231 73.8916C31.231 73.8916 28.454 70.7911 28.0666 66.0758C27.6145 60.7792 30.004 54.3199 31.2956 51.5424C31.7477 52.6405 33.3622 53.6739 33.3622 53.6739C33.3622 53.6739 38.8515 41.6596 50.9927 41.8534C49.4427 43.8558 49.7011 45.5998 49.7011 45.5998C49.7011 45.5998 51.8968 44.5663 57.3216 45.5998C66.4274 47.3438 68.3003 53.5448 68.3003 53.5448C68.3003 53.5448 54.028 48.4419 43.7597 60.5208C40.2077 64.6548 41.3702 80.6093 56.6758 87.7791" fill="white"/>
<path d="M57.2569 95.595C57.2569 95.595 38.5286 93.9156 33.1038 81.3845C31.7476 78.3486 31.4247 76.4108 31.6184 75.2482C35.0412 79.1883 36.8495 79.5113 36.8495 79.5113C36.8495 79.5113 33.1684 76.6046 31.2955 66.851C30.5206 62.8463 31.6184 59.0999 32.9101 56.3224C33.3621 57.4204 34.9766 58.4539 34.9766 58.4539C34.9766 58.4539 37.1078 47.3439 47.7636 45.0186C46.2136 47.0209 46.472 48.765 46.472 48.765C46.472 48.765 55.1258 45.3415 60.486 46.375C69.5918 48.119 71.4647 54.32 71.4647 54.32C71.4647 54.32 57.1924 49.2171 46.924 61.296C43.3721 65.43 44.5346 81.3845 59.8402 88.5544" fill="#F1A852"/>
<path d="M62.1649 73.9563L55.836 84.5496C55.836 84.5496 47.9572 96.9515 46.0198 98.5663C44.7282 99.6644 42.7907 101.15 41.6929 101.99C41.1116 102.442 40.9179 103.217 41.1762 103.863L42.9845 108.384C43.3074 109.16 44.0823 109.547 44.8573 109.418L54.8673 107.609C55.5777 107.48 56.0943 106.834 56.0943 106.124L55.9652 98.8893C55.9652 98.5663 56.0943 98.2434 56.4172 98.1142L58.2255 96.9515C58.2255 96.9515 58.1609 111.291 59.0004 114.392C59.5817 116.459 61.6483 126.664 61.6483 126.664L56.3527 137.258C56.0943 137.774 56.2235 138.356 56.611 138.743L61.5837 143.136C61.9712 143.523 62.617 143.588 63.1336 143.394L70.2375 140.164C70.8187 139.906 71.1416 139.325 71.077 138.743L69.5271 119.236L69.0104 107.932L95.4885 109.87L92.9698 137.774C92.9052 138.42 93.2282 139.066 93.7448 139.454L99.9445 143.717C100.526 144.105 101.365 144.105 101.947 143.652L107.113 139.325C107.694 138.808 107.888 138.033 107.5 137.322L102.14 126.987C102.14 126.987 104.142 115.942 105.046 112.325C106.403 106.834 105.563 96.1764 105.563 96.1764L108.146 98.4372V107.157C108.146 107.609 108.469 107.997 108.986 108.062L119.19 109.16C119.965 109.224 120.675 108.837 120.998 108.126L122.871 104.121C123.129 103.54 123 102.894 122.483 102.442C120.287 100.698 114.411 95.8534 113.506 93.7218C112.344 91.1381 106.403 82.2243 106.403 81.7721C106.403 81.32 101.753 74.9252 101.753 74.9252L85.9305 89.9754L66.2335 83.6453L62.4232 73.8271" fill="white"/>
<path d="M61.3255 74.344L56.4819 83.387L58.161 85.6478C58.161 85.6478 58.0319 106.834 58.3548 110.064C58.6777 113.294 64.6837 118.526 69.3981 119.624C69.2689 117.363 68.946 107.545 68.946 107.545L61.3255 74.344Z" fill="#F1A852"/>
<path d="M95.4239 108.837L94.6489 118.138C94.6489 118.138 104.013 115.167 104.723 112.906C105.498 110.516 106.467 101.344 104.917 93.851C103.626 87.65 103.884 87.65 103.884 87.65L107.888 84.6141L102.269 74.0854L100.978 75.3773C100.978 75.3773 101.624 89.6524 100.978 94.0448C100.332 98.5017 98.7821 107.739 95.4239 108.837Z" fill="#F1A852"/>
<path d="M59.194 84.4205C59.4523 84.1621 60.0981 83.387 60.0981 83.387L60.8085 80.4157L61.5189 78.2841L61.5834 75.442L61.0022 74.9253L56.417 83.4516L58.0961 85.7123C58.0961 85.6478 58.9356 84.7435 59.194 84.4205Z" fill="#ED6D4E"/>
<path d="M103.238 85.6477L101.042 75.5066L102.27 74.1501L107.953 84.6788L103.884 87.7147L103.238 85.6477Z" fill="#ED6D4E"/>
<path d="M62.4232 57.1621L61.5191 78.2841C61.5191 78.2841 59.7108 82.9348 60.0337 85.3893C60.3566 87.8439 62.4878 104.121 63.3919 106.059C64.3606 107.997 74.0477 114.327 80.312 114.327C86.5763 114.327 96.5863 111.227 98.3946 109.03C100.203 106.834 103.432 92.5592 103.69 87.3917C103.949 82.2243 101.43 74.9252 101.43 74.9252L100.784 58.8415L62.4232 57.1621Z" fill="#F9FAFB"/>
<path opacity="0.04" d="M61.519 78.2841C61.519 78.2841 75.081 93.1405 102.14 97.5328C105.757 82.5472 102.334 78.4133 101.559 74.8606C100.397 70.9851 100.913 58.7769 100.913 58.7769L62.4878 57.1621L61.6482 75.442L61.519 78.2841Z" fill="#3C3C56"/>
<path d="M65.1357 38.8822C65.1357 38.8822 73.2082 33.6502 80.3121 33.0688C80.5704 33.0688 80.8933 33.0042 81.1516 33.0042C90.9033 32.8105 97.878 39.3344 97.878 39.3344L100.784 51.6071V58.7123C100.784 58.7123 96.0698 66.7219 93.874 72.4061C92.9053 74.9252 90.5804 88.4252 82.8307 88.4252C74.9519 88.4252 74.5644 83.3869 72.3687 78.2195C69.9792 72.5353 65.2002 64.9133 62.617 59.6166C62.5524 59.4874 62.4233 59.4228 62.2941 59.3582C59.1943 56.8391 65.1357 38.8822 65.1357 38.8822Z" fill="#F1A852"/>
<path d="M70.4313 67.6261C70.4313 67.6261 69.9146 70.7266 70.4313 71.8893C70.9479 73.052 73.0791 79.3821 73.0791 79.3821L76.1789 85.7122C76.1789 85.7122 79.408 88.2959 81.7975 88.3605C84.1869 88.4251 86.5764 86.8749 87.2868 86.1644C87.9972 85.4538 91.0325 79.7051 91.1616 78.0256C91.2908 76.3462 91.872 73.1166 92.4533 71.3079C93.0991 69.3056 93.0991 66.6572 93.0991 66.6572L70.4313 67.6261Z" fill="#382F2D"/>
<path d="M74.1768 71.0497C74.1768 71.0497 75.3392 78.4779 75.7267 80.1573C76.0496 81.7076 77.4704 85.7123 81.4744 85.7123C86.0596 85.7123 86.77 84.0329 87.4158 81.9014C88.1907 79.253 88.5136 77.7028 88.5782 76.5401C88.6428 75.1191 89.4178 70.9851 89.4178 70.9851H74.1768V71.0497Z" fill="#FCC4CD"/>
<path d="M100.203 59.4228C100.203 59.4228 97.4905 62.3941 95.876 65.107C94.4552 67.4969 92.9053 69.9515 91.2908 74.3438C90.4512 76.6046 91.2262 86.0998 82.8307 87.327C82.8307 87.327 78.8267 87.4562 76.5664 84.9371C74.6936 82.8701 73.7248 79.3821 72.4332 76.1524C71.3999 73.5041 69.9146 70.9204 68.9459 69.2409C67.848 67.3677 65.2648 62.9754 64.6836 62.1357C64.5544 61.9419 64.0378 60.973 63.1982 60.0687C63.0045 59.8749 62.2295 59.229 62.2295 59.229C62.2941 59.229 62.2295 59.2936 62.2295 59.3582C62.2941 59.4874 62.4232 59.6812 62.4878 59.8103C64.2315 63.2338 68.1063 67.8199 71.2062 77.4443C73.5311 84.6787 76.3081 88.6189 82.7661 88.6189C91.3553 88.6189 92.8407 75.0543 93.8094 72.5352C95.6822 67.6907 99.3633 61.296 100.461 59.3582H100.203V59.4228Z" fill="white"/>
<path d="M65.1356 38.8823C65.1356 38.8823 64.1023 39.1407 62.6816 39.4637C61.7128 39.6574 62.4878 57.356 62.4878 57.356L65.1356 38.8823Z" fill="#C7482C"/>
<path d="M97.5552 39.0759C97.5552 39.0759 98.9759 39.2697 99.6218 39.3989C100.203 40.2386 101.043 52.8343 101.043 52.8343L97.5552 39.0759Z" fill="#C7482C"/>
<path d="M63.2629 75.1189C62.2296 75.7648 60.938 75.3773 59.9693 75.0543C56.0945 73.5687 45.8262 68.8534 45.8262 58.0017C45.8262 45.6644 62.6817 39.5281 62.6817 39.5281C62.0359 39.5927 62.7463 49.1525 63.7796 58.3247C64.6837 66.5926 65.4587 73.6979 63.2629 75.1189Z" fill="#ED6D4E"/>
<path d="M99.6218 39.3989C99.6218 39.3989 116.542 54.7721 116.865 56.3869C117.188 58.0018 118.479 59.6166 113.507 66.3989C108.534 73.1812 102.399 77.2505 98.976 74.4084C96.9094 72.5352 99.3635 66.5281 99.9447 54.7721C100.074 50.8965 99.6218 39.3989 99.6218 39.3989Z" fill="#ED6D4E"/>
<path opacity="0.1" d="M80.9577 33.7146L78.3099 49.1524C78.2453 49.7983 77.212 51.6715 76.6308 52.0591C74.3059 54.7074 71.1414 56.3223 69.3332 61.6189C68.9457 65.8175 68.6228 69.1117 72.5622 72.7289C75.4038 75.3126 78.439 75.3126 80.3119 74.15C81.8618 73.1165 82.8951 73.827 82.8951 73.827C82.8951 73.827 83.8638 74.8605 86.2533 74.7313C87.997 74.6021 91.226 72.406 92.3885 70.4682C93.6801 68.272 94.7779 63.1691 92.3885 58.1309C89.4823 54.1907 85.8658 52.4467 85.2846 50.0567C84.0576 45.2122 81.8618 33.7146 81.8618 33.7146C81.8618 33.7146 81.216 33.5855 80.9577 33.7146Z" fill="#060822"/>
<path d="M80.9577 33.0689L78.3099 48.5067C78.2453 49.1526 77.212 51.0258 76.6308 51.4134C74.3059 54.0617 71.1414 55.6765 69.3332 60.9731C68.9457 65.1717 68.6228 68.466 72.5622 72.0832C75.4038 74.6669 78.439 74.6669 80.3119 73.5042C81.8618 72.4707 82.8951 73.1813 82.8951 73.1813C82.8951 73.1813 83.8638 74.2147 86.2533 74.0856C87.997 73.9564 91.226 71.7602 92.3885 69.8224C93.6801 67.6262 94.7779 62.5234 92.3885 57.4851C89.4823 53.5449 85.8658 51.8009 85.2846 49.411C84.0576 44.5665 81.8618 33.0689 81.8618 33.0689C81.8618 33.0689 81.216 32.9397 80.9577 33.0689Z" fill="white"/>
<path d="M66.1689 49.0235C66.1689 49.0235 67.2668 45.923 70.5604 46.3751C72.5624 46.6981 73.6603 48.3775 73.6603 48.3775C73.6603 48.3775 72.6916 51.2196 69.9146 51.2196C67.6543 51.2196 66.1689 49.0235 66.1689 49.0235Z" fill="#382F2D"/>
<path d="M89.6118 48.7649C89.6118 48.7649 90.2576 46.0519 93.5512 46.3103C96.2636 46.3103 97.1032 48.7649 97.1032 48.7649C97.1032 48.7649 96.3282 51.5424 93.3575 51.2194C90.3868 50.8964 89.6118 48.7649 89.6118 48.7649Z" fill="#382F2D"/>
<path d="M81.7974 69.8224C79.6662 69.8224 76.0497 66.5928 75.2747 63.6215C74.1123 59.2938 79.085 59.4229 79.085 59.4229C79.085 59.4229 83.2182 59.1646 85.6722 59.4229C88.5783 59.7459 88.6429 62.4588 88.32 63.4277C87.6096 65.7531 84.7681 69.9516 81.7974 69.8224Z" fill="#382F2D"/>
<g clip-path="url(#clip0)">
<path fill-rule="evenodd" clip-rule="evenodd" d="M151.448 27.6365C153.103 26.8183 154.621 25.7274 155.724 24.2956C156.828 22.7956 157.517 21.0228 157.793 19.2501C160 5.95466 141.724 -4.61353 132.759 6.9092C123.655 18.5683 138.965 33.5683 151.448 27.6365Z" fill="url(#paint0_linear)"/>
</g>
<g clip-path="url(#clip1)">
<path fill-rule="evenodd" clip-rule="evenodd" d="M9.05248 151.761C11.495 156.121 16.7693 158.673 21.6542 157.857C24.7339 157.361 27.6012 155.695 30.7162 155.447C34.4684 155.164 38.4684 156.936 41.8312 155.27C42.8932 154.738 43.7781 153.888 44.5215 152.966C47.6012 148.961 47.7427 143.113 45.3357 138.683C36.0259 121.635 -2.20416 131.63 9.05248 151.761Z" fill="url(#paint1_linear)"/>
</g>
<defs>
<linearGradient id="paint0_linear" x1="135.554" y1="8.73729" x2="152.238" y2="22.471" gradientUnits="userSpaceOnUse">
<stop stop-color="#4695EA"/>
<stop offset="1" stop-color="#7145CB"/>
</linearGradient>
<linearGradient id="paint1_linear" x1="17.7896" y1="134.475" x2="35.3094" y2="154.317" gradientUnits="userSpaceOnUse">
<stop stop-color="#4552CB"/>
<stop offset="1" stop-color="#2C1D74"/>
</linearGradient>
<clipPath id="clip0">
<rect width="28" height="27" fill="white" transform="translate(130 2)"/>
</clipPath>
<clipPath id="clip1">
<rect width="40" height="28" fill="white" transform="translate(7 130)"/>
</clipPath>
</defs>
</svg>
