<svg width="159" height="159" viewBox="0 0 159 159" fill="none" xmlns="http://www.w3.org/2000/svg">
<g clip-path="url(#clip0)">
<circle cx="79.5" cy="79.5" r="79.5" fill="#E7E7F9"/>
<g filter="url(#filter0_d)">
<path d="M59.4808 127.659C59.4808 127.659 44.134 134.002 35.4597 126.268C33.3428 124.376 30.5051 121.773 28.9114 118.331C32.9393 120.12 34.4612 119.74 34.4612 119.74C34.4612 119.74 31.2158 118.372 29.2537 114.84C27.0387 110.902 26.4964 105.077 26.5463 102.505C27.2672 103.216 28.9305 103.424 28.9305 103.424C28.9305 103.424 28.8931 92.2022 38.2942 87.9674C37.834 90.076 38.6178 91.3456 38.6178 91.3456C38.6178 91.3456 39.964 89.7403 44.4758 88.6254C52.1386 86.7006 55.806 90.8132 55.806 90.8132C55.806 90.8132 42.9708 92.0033 39.3786 104.976C38.1318 109.475 44.7231 121.313 59.0577 121.387" fill="white"/>
<path d="M62.2513 127.158C62.2513 127.158 47.1968 132.58 38.6011 124.875C36.4843 122.983 35.5433 121.656 35.2812 120.667C39.3091 122.456 40.8309 122.076 40.8309 122.076C40.8309 122.076 36.9367 121.14 32.0242 114.338C29.9887 111.493 29.4751 108.269 29.5001 105.643C30.221 106.354 31.8844 106.562 31.8844 106.562C31.8844 106.562 29.5124 97.2083 36.967 91.5903C36.5068 93.699 37.2906 94.9686 37.2906 94.9686C37.2906 94.9686 42.7345 89.2388 47.2213 88.0701C54.8842 86.1453 58.5516 90.2578 58.5516 90.2578C58.5516 90.2578 45.7164 91.448 42.1242 104.42C40.8775 108.92 47.4688 120.758 61.8034 120.831" fill="#F1A852"/>
<path d="M57.0614 139.249L58.7196 141.502C58.9565 141.858 59.3711 142.035 59.7857 142.035H63.1022L70.1498 136.699C70.1498 136.699 74.0585 140.257 81.4615 140.85C88.8644 141.442 95.5566 138.419 95.5566 138.419L100.887 141.739C101.064 141.858 101.301 141.917 101.479 141.917L106.276 142.035C106.691 142.035 107.046 141.858 107.224 141.502L108.823 138.774C108.941 138.537 108.882 138.3 108.645 138.181L106.217 136.818C105.98 136.699 105.802 136.343 105.921 136.047L108.941 123.951C109.119 123.299 109.06 122.647 108.882 121.995L102.96 104.266L97.8071 52.3262L94.7868 43.0173L82.9421 52.3262L67.8401 53.5714L64.5235 79.7785C64.5235 79.7785 64.8789 87.4865 64.8789 90.4511C64.8197 101.124 60.2594 112.449 60.2594 112.449C60.2002 112.982 59.9041 113.457 59.7857 113.931C57.8905 119.623 57.476 124.485 57.7721 126.975C58.0682 129.703 58.9565 132.904 59.4303 134.505C59.608 135.158 59.4303 135.81 58.9565 136.284L57.1206 138.004C56.8245 138.3 56.7653 138.834 57.0614 139.249Z" fill="#FAF8F8"/>
<path d="M66.7145 111.085L62.9834 103.91C61.7397 108.891 60.3183 112.389 60.3183 112.389C60.2591 112.923 59.963 113.397 59.8446 113.871C59.4892 114.998 59.1339 116.125 58.897 117.133L64.5232 123.536L66.7145 111.085Z" fill="#ED6D4E"/>
<path d="M102.9 103.318L108.171 119.86L100.176 123.596L100.946 106.104L102.9 103.318Z" fill="#ED6D4E"/>
<path d="M62.9245 142.806L63.9313 144.585C64.0498 144.822 64.2867 144.941 64.5236 144.941H71.9265C72.2819 144.941 72.578 144.644 72.6372 144.289L74.3547 124.188V124.129V108.891C74.3547 108.773 74.3547 108.713 74.2955 108.595C73.644 106.638 67.0702 85.5299 67.1294 82.6246C67.2479 78.3556 70.8605 71.7741 71.3343 70.7069C71.3935 70.6476 71.3935 70.529 71.3935 70.4697V61.2201C71.3935 60.4493 70.3867 60.2122 70.0314 60.8644L63.7537 73.0193C63.7537 73.0786 63.6945 73.0786 63.6945 73.1379L60.9702 81.8538C60.9702 81.9131 60.9109 82.0317 60.9702 82.1503L62.1546 95.8468L63.1614 107.112L63.9313 122.943L64.7012 137.589C64.7012 137.707 64.7013 137.826 64.642 137.885L62.8653 142.273C62.8061 142.391 62.8061 142.628 62.9245 142.806Z" fill="white"/>
<path d="M74.4137 112.034C74.4137 112.034 63.1021 105.808 62.9244 104.444C62.7467 103.08 60.8516 79.66 60.8516 79.66C60.8516 79.66 60.8516 78.2963 62.4506 73.1971C64.0496 68.098 66.8924 52.9192 66.8924 52.9192L71.6302 56.1803L71.8079 67.9201C71.8079 68.098 71.9264 69.9954 71.6302 71.0626L68.1953 78.8892C67.7215 80.3715 67.8992 82.9211 68.0768 84.7591L74.8283 107.29C74.8283 107.349 74.8283 107.409 74.8283 107.468L74.4137 112.034Z" fill="#F1A852"/>
<path d="M93.1284 143.873L90.7595 109.899C90.7003 109.425 90.7595 108.95 90.9372 108.535L94.4906 96.7953V96.7361C94.7275 96.2024 97.6295 87.19 97.7479 84.2847C97.8663 81.3201 95.5566 73.197 94.5498 69.6395C93.7207 66.7342 94.2537 61.8129 94.4906 60.1527C94.5498 59.797 94.8459 59.5598 95.1421 59.5598H98.6955C98.9916 59.5598 99.2877 59.797 99.3469 60.0934L103.729 77.1696C103.729 77.1696 103.729 77.1696 103.729 77.2289L104.855 80.8457C104.855 80.905 104.914 81.0236 104.855 81.0829L102.9 104.266L99.9391 137.707C99.9391 137.826 99.9392 137.944 99.9984 138.063L101.361 141.087C101.479 141.324 101.538 141.62 101.538 141.857V143.873C101.538 144.526 101.005 145 100.413 145H94.2537C93.7207 145 93.1877 144.526 93.1284 143.873Z" fill="white"/>
<path opacity="0.04" d="M66.4775 54.5793L96.0301 75.0351L100.176 52.2076L98.399 42.543L80.9281 51.7333L66.7144 53.2156L66.4775 54.5793Z" fill="#3C3C56"/>
<path d="M103.137 102.665L104.973 81.0236C104.973 80.9643 104.973 80.8457 104.973 80.7864L103.848 77.1696C103.848 77.1696 103.848 77.1696 103.848 77.1103L99.4653 59.8563C99.4061 59.5598 99.11 59.1448 98.8139 59.1448H95.2605C94.9051 59.1448 94.609 59.6191 94.609 59.9156C94.3721 61.5758 93.8391 66.6156 94.6682 69.5209C95.7343 73.0785 97.9847 81.2608 97.8663 84.2254C97.7478 87.1307 94.7867 96.1431 94.609 96.6768V96.7361L91.0556 108.476C90.9371 108.891 90.8779 109.365 90.8779 109.84L90.9372 111.026C93.6615 110.077 99.0508 107.705 103.137 102.665Z" fill="#F1A852"/>
<path d="M66.063 48.828L65.6484 35.6652C65.6484 35.6652 67.7805 26.4749 68.0766 26.297C68.3727 26.1191 79.2106 15.3872 79.2106 15.3872L97.1553 22.5023L98.3398 44.559L85.4291 55.4095L66.063 48.828Z" fill="#F1A852"/>
<path d="M67.8401 55.0536L79.4478 59.5006C80.1585 59.7377 80.9877 59.5006 81.4614 58.9076L85.4886 55.4094C86.1993 54.5793 86.6731 53.5713 86.7916 52.5041C87.1469 49.658 87.3246 43.6102 84.1265 37.4438C83.9488 37.0881 83.8896 36.673 83.9488 36.258C84.4226 33.7084 86.1401 26.1783 86.91 22.7987C86.9692 22.5615 86.6139 22.3836 86.4954 22.6208L79.9216 34.835C79.6847 35.25 79.3886 35.5465 78.9741 35.6651C77.0197 36.4359 70.8012 39.3412 66.774 45.5669C66.3594 46.2191 66.1226 46.9306 66.1226 47.7014L66.5371 53.097C66.4779 54.0457 67.0109 54.8165 67.8401 55.0536Z" fill="white"/>
<path d="M69.6758 51.7334L72.9331 54.4608C73.8806 55.1131 75.1836 55.4095 76.3088 55.4095L80.9282 54.8166" stroke="#DDDDDD" stroke-width="2" stroke-miterlimit="10" stroke-linecap="round" stroke-linejoin="round"/>
<path d="M76.0127 52.2076C75.5389 52.1483 75.1244 51.9111 74.8282 51.5554C73.9399 50.4881 72.3408 47.5828 72.9331 44.4996C73.5845 41.2978 80.3952 44.381 80.3952 44.381C80.3952 44.381 83.0011 45.4483 83.0011 47.3456C82.9418 49.3023 80.3952 52.6819 76.0127 52.2076Z" fill="#382F2D"/>
<path d="M70.8604 28.1943C70.8604 28.1943 71.3342 34.0049 76.4274 31.3368C76.8419 28.2536 73.3477 26.0598 70.8604 28.1943Z" fill="#382F2D"/>
<path d="M88.6865 35.3686C88.6865 35.3686 90.2264 40.7049 94.7866 37.2659C93.2468 31.8111 88.6865 35.3686 88.6865 35.3686Z" fill="#382F2D"/>
<path d="M67.8989 28.2536C67.8989 28.2536 72.696 19.1226 75.5388 15.3279C76.131 14.5571 79.4475 15.3871 79.4475 15.3871L67.8989 28.2536Z" fill="#C7482C"/>
<path d="M60.6739 51.0218C60.6739 51.0218 56.6467 48.5909 54.6923 40.4678C53.271 34.42 53.5671 28.9651 53.804 26.5934C53.8632 25.7633 55.8176 23.2731 61.3254 21.02L75.539 15.3872L69.0244 26.0598C68.7283 26.5342 68.4914 27.0678 68.2545 27.6607C67.3069 30.3289 64.405 38.7484 64.1681 42.2466C63.872 46.0413 64.2273 53.6307 60.6739 51.0218Z" fill="#ED6D4E"/>
<path d="M97.2147 22.5022C97.2147 22.5022 108.467 38.689 109.77 45.0333C111.073 51.3775 106.809 60.4492 97.807 62.3466C88.805 64.2439 96.1487 53.4528 97.0963 45.1518C98.0439 36.8509 97.2147 22.5022 97.2147 22.5022Z" fill="#ED6D4E"/>
<path d="M97.4516 36.3173L95.0234 21.6721L97.2147 22.5022L97.4516 36.3173Z" fill="#C7482C"/>
</g>
<mask id="mask0" mask-type="alpha" maskUnits="userSpaceOnUse" x="1" y="0" width="47" height="48">
<path d="M24.1647 47.1931C36.8317 47.1931 47.1004 36.8326 47.1004 24.0521C47.1004 11.2717 36.8317 0.911133 24.1647 0.911133C11.4977 0.911133 1.229 11.2717 1.229 24.0521C1.229 36.8326 11.4977 47.1931 24.1647 47.1931Z" fill="#C4C4C4"/>
</mask>
<g mask="url(#mask0)">
<path d="M-8.29106 31.4187L-11 28.8156L27.6475 -12L30.3565 -9.39696L-8.29106 31.4187Z" fill="#4552CB"/>
<path d="M-2.33159 37.1192L-5.04053 34.5161L33.6328 -6.27344L36.3417 -3.6704L-2.33159 37.1192Z" fill="#4552CB"/>
<path d="M3.52486 42.846L0.815918 40.243L39.4892 -0.546631L42.1982 2.05641L3.52486 42.846Z" fill="#4552CB"/>
<path d="M9.51021 48.5727L6.80127 45.9697L45.4746 5.15405L48.1835 7.75709L9.51021 48.5727Z" fill="#4552CB"/>
<path d="M15.4702 54.2993L12.7612 51.6962L51.4346 10.8806L54.1177 13.4837L15.4702 54.2993Z" fill="#4552CB"/>
<path d="M21.3525 60L18.6436 57.3969L57.2911 16.5813L59.9742 19.1843L21.3525 60Z" fill="#4552CB"/>
</g>
<g clip-path="url(#clip1)">
<path fill-rule="evenodd" clip-rule="evenodd" d="M126.402 129.5C123.492 131.75 120.582 134.583 120.083 138.5C119.668 141.917 121.247 145.583 123.742 148.125C126.236 150.625 129.52 152.042 132.762 152.708C142.324 154.583 158.12 148.292 155.751 135.458C152.758 119.042 134.384 123.333 126.402 129.5Z" fill="url(#paint0_linear)"/>
</g>
</g>
<defs>
<filter id="filter0_d" x="-5" y="-7" width="147" height="186" filterUnits="userSpaceOnUse" color-interpolation-filters="sRGB">
<feFlood flood-opacity="0" result="BackgroundImageFix"/>
<feColorMatrix in="SourceAlpha" type="matrix" values="0 0 0 0 0 0 0 0 0 0 0 0 0 0 0 0 0 0 127 0"/>
<feOffset dx="4" dy="6"/>
<feGaussianBlur stdDeviation="14"/>
<feColorMatrix type="matrix" values="0 0 0 0 0.174978 0 0 0 0 0.210534 0 0 0 0 0.541485 0 0 0 0.08 0"/>
<feBlend mode="normal" in2="BackgroundImageFix" result="effect1_dropShadow"/>
<feBlend mode="normal" in="SourceGraphic" in2="effect1_dropShadow" result="shape"/>
</filter>
<linearGradient id="paint0_linear" x1="129.128" y1="129.231" x2="147.417" y2="147.225" gradientUnits="userSpaceOnUse">
<stop stop-color="#FEBB75"/>
<stop offset="1" stop-color="#FE8E75"/>
</linearGradient>
<clipPath id="clip0">
<rect width="159" height="159" fill="white"/>
</clipPath>
<clipPath id="clip1">
<rect width="36" height="29" fill="white" transform="translate(120 124)"/>
</clipPath>
</defs>
</svg>
