<svg width="159" height="159" viewBox="0 0 159 159" fill="none" xmlns="http://www.w3.org/2000/svg">
<g clip-path="url(#clip0)">
<circle cx="79.5" cy="79.5" r="79.5" fill="#E7E7F9"/>
<path d="M116.325 106.133C116.325 106.133 127.961 116.829 138.241 112.759C140.746 111.768 144.137 110.411 146.694 107.802C142.52 108.115 141.267 107.228 141.267 107.228C141.267 107.228 144.607 107.072 147.529 104.567C150.816 101.802 153.165 96.7412 154 94.4455C153.112 94.8629 151.599 94.4977 151.599 94.4977C151.599 94.4977 155.304 84.5323 148.312 77.6452C148.051 79.68 146.903 80.5148 146.903 80.5148C146.903 80.5148 146.225 78.6887 142.572 76.1843C136.363 71.9581 131.718 74.4625 131.718 74.4625C131.718 74.4625 142.781 79.7322 141.789 92.4629C141.424 96.8456 131.666 105.298 118.83 100.654" fill="white"/>
<path d="M114.029 104.776C114.029 104.776 125.666 114.533 135.945 110.463C138.45 109.472 139.754 108.585 140.276 107.802C136.102 108.115 134.849 107.228 134.849 107.228C134.849 107.228 138.606 107.646 145.233 103.211C147.999 101.385 149.512 98.6196 150.295 96.2717C149.408 96.6891 147.894 96.3239 147.894 96.3239C147.894 96.3239 153.06 88.7585 148.26 81.2975C147.999 83.3323 146.851 84.1671 146.851 84.1671C146.851 84.1671 143.877 77.28 140.224 74.7756C134.014 70.5495 129.37 73.0539 129.37 73.0539C129.37 73.0539 140.433 78.3235 139.441 91.0542C139.076 95.4369 129.318 103.889 116.482 99.2457" fill="#F1A852"/>
<path d="M36.1768 70.5495L42.0731 62.7754L46.4563 66.7407L45.6736 75.193L36.1768 70.5495Z" fill="#F1A852"/>
<path d="M48.1778 78.4279C48.1778 78.4279 47.8126 84.5324 46.4559 85.3672C45.0992 86.202 36.5416 81.8714 36.5416 81.8714L25.7402 74.7235L38.0548 70.4973L44.5252 73.68L48.1778 78.4279Z" fill="#FBF5F5"/>
<path d="M30.2796 50.0448C30.2796 50.0448 28.0359 45.3491 28.8707 41.3316C29.7578 37.3141 31.845 34.1315 33.9322 32.4619C35.3933 31.314 38.785 29.1749 39.6721 30.0097C40.5592 30.8445 40.3504 34.4445 40.8722 36.7924C41.2375 38.4098 44.8901 44.7752 46.9774 45.8187C49.0646 46.8622 43.4813 56.2536 43.4813 56.2536L30.2796 50.0448Z" fill="#ED6D4E"/>
<path d="M44.5254 65.3841V73.7321C44.5254 73.7321 56.7356 95.2282 63.4669 98.9326C71.6592 103.472 81.5735 105.037 87.8352 106.289C92.0096 111.35 97.906 120.481 101.767 120.69C103.489 120.794 110.429 121.055 112.673 121.159C113.143 121.159 113.508 121.472 113.664 121.89L117.891 132.898C117.995 133.211 118.256 133.472 118.517 133.681L121.857 135.82C122.431 136.185 123.161 135.977 123.474 135.351L124.988 132.064C125.196 131.594 125.144 131.02 124.831 130.603L114.865 116.881C114.604 116.516 114.499 116.046 114.604 115.576L119.404 91.889L133.911 93.5586C134.589 93.6629 135.267 93.3499 135.685 92.7759L138.294 89.1759C138.555 88.8107 138.502 88.2889 138.137 87.9759L135.163 85.6802C134.745 85.3671 134.171 85.2106 133.65 85.3149L125.196 86.9845C123.996 87.1932 122.796 86.6193 122.222 85.5758L117.578 76.8104C117.578 76.8104 114.969 74.4626 111.421 75.3495C107.872 76.2365 99.0018 80.9844 99.0018 80.9844C99.0018 80.9844 80.5299 70.8103 74.9988 66.4798C72.7028 64.7059 68.3718 60.8449 66.9108 58.3405C64.9279 54.9491 61.9536 43.3663 61.9536 43.3663L62.058 36.0618L56.9443 26.9312C56.9443 26.9312 53.7091 25.2095 52.6655 25.7834C52.3002 25.9921 48.752 27.0878 48.2302 29.0182C47.7084 30.9487 46.143 44.775 46.143 44.775L44.3166 50.0969L43.3774 54.5317L20.6789 44.7229L15.1999 42.1141C14.8869 41.9576 14.4694 42.0098 14.1563 42.1663L11.3908 44.0446C10.9733 44.3576 10.869 44.9316 11.182 45.349L13.9476 48.8969L40.3509 63.0884L44.5254 65.3841Z" fill="white"/>
<path d="M36.4372 75.9756C36.9069 75.1408 38.2114 73.2103 38.681 72.532C38.7853 72.3755 38.7853 72.219 38.7332 72.0625L36.385 66.9493C36.2807 66.7928 36.1241 66.6884 35.9154 66.7406L26.0533 69.1928C25.8446 69.245 25.7402 69.4015 25.7402 69.6102V74.7234L35.9676 76.1843C36.1763 76.2365 36.3329 76.1321 36.4372 75.9756Z" fill="white"/>
<path d="M53.9174 26.0965C53.9174 26.0965 52.9782 25.6791 53.9174 24.6356C54.8567 23.5921 56.3177 24.0095 56.6308 24.6356C57.6223 26.4617 57.5701 27.7139 57.5701 27.7139C57.5701 27.7139 54.9611 26.8791 53.9174 26.0965Z" fill="#382F2D"/>
<path d="M57.6229 40.4445C57.6229 38.6706 55.5878 33.5575 53.5528 30.1139C52.9266 29.0704 51.2568 26.8269 51.2568 26.8269" stroke="#DDDDDD" stroke-width="2" stroke-miterlimit="10" stroke-linecap="round" stroke-linejoin="round"/>
<path d="M67.485 47.6969C67.485 47.6969 79.4343 43.2098 81.8346 37.7315C84.1305 32.514 86.3221 34.601 86.3221 34.601C86.3221 34.601 90.7575 43.2098 87.1048 50.0969C83.4522 56.984 71.5029 56.984 68.4764 53.9057C65.5543 50.8274 67.485 47.6969 67.485 47.6969Z" fill="#ED6D4E"/>
<path d="M61.3794 34.6011C61.3794 34.6011 59.9705 42.5317 60.2314 43.836C60.4923 45.1404 62.9448 51.0362 63.2579 51.9231C63.6232 52.8101 66.4931 57.7146 66.8584 58.132C67.7976 56.6189 68.476 55.3145 69.1021 54.0101C70.1457 51.8188 68.476 48.7926 67.7976 47.3317C67.1193 45.923 65.9713 40.9142 65.8669 40.1316C65.7626 39.349 65.293 38.7751 63.7797 37.8881C62.3708 37.0011 61.3794 34.6011 61.3794 34.6011Z" fill="#F1A852"/>
<path d="M64.041 40.7576C64.041 40.7576 66.2848 43.3141 66.5979 44.4098C66.8588 45.4533 67.1197 46.7055 66.5979 46.9142C66.0761 47.1229 65.5542 45.1403 65.4499 44.6185C65.3455 44.0968 64.041 40.7576 64.041 40.7576Z" fill="#382F2D"/>
<path d="M44.4206 50.4099C43.6379 51.9229 43.377 53.6969 43.6379 55.4187C44.1597 58.2883 44.9424 62.6188 45.2555 63.6623C45.7773 65.2275 49.4821 69.7668 57.5701 71.4885C65.6059 73.2103 75.8332 73.0016 79.2771 69.4015C75.781 67.6276 67.2756 58.7579 67.2756 58.7579C67.2756 58.7579 53.8652 57.5057 47.1862 54.1665C44.838 52.9664 44.5249 50.2012 44.5249 50.2012L44.4206 50.4099Z" fill="#F1A852"/>
<path d="M89.5575 80.1496L79.3301 69.4016L99.2108 81.0366L89.5575 80.1496Z" fill="#ED6D4E"/>
<path d="M99.2109 81.0366L103.281 82.2366C103.281 82.2366 105.368 80.4105 106.151 79.8888C107.508 79.0018 111.473 77.0713 111.526 76.2365C111.578 75.4017 111.839 75.3495 111.63 75.4017C108.238 76.1322 99.2109 81.0366 99.2109 81.0366Z" fill="#F1A852"/>
<path d="M93.2617 106.081C93.7835 106.081 94.201 106.341 94.4097 106.811C95.088 108.533 96.7578 112.655 97.4883 113.646C98.4276 114.898 103.228 120.69 103.228 120.69C103.228 120.69 100.567 121.316 97.7493 118.289C94.6706 115.472 87.835 106.237 87.835 106.237L93.2617 106.081Z" fill="#F1A852"/>
<path d="M61.6924 97.6282L77.2943 98.1499C77.7118 98.1499 78.0771 98.3064 78.3901 98.5673L87.4695 106.237C87.4695 106.237 85.5389 106.237 75.4158 103.628C63.6752 100.498 61.6924 97.6282 61.6924 97.6282Z" fill="#ED6D4E"/>
<mask id="mask0" mask-type="alpha" maskUnits="userSpaceOnUse" x="97" y="3" width="61" height="62">
<path d="M127.06 64.2797C143.652 64.2797 157.103 50.7534 157.103 34.0678C157.103 17.3823 143.652 3.85596 127.06 3.85596C110.468 3.85596 97.0176 17.3823 97.0176 34.0678C97.0176 50.7534 110.468 64.2797 127.06 64.2797Z" fill="#C4C4C4"/>
</mask>
<g mask="url(#mask0)">
<path d="M84.5483 43.6855L81 40.2871L131.623 -13L135.171 -9.60159L84.5483 43.6855Z" fill="#4552CB"/>
<path d="M92.355 51.1278L88.8066 47.7294L139.463 -5.52368L143.012 -2.12527L92.355 51.1278Z" fill="#4552CB"/>
<path d="M100.026 58.6046L96.4775 55.2062L147.134 1.95312L150.682 5.35153L100.026 58.6046Z" fill="#4552CB"/>
<path d="M107.866 66.081L104.317 62.6826L154.974 9.39551L158.522 12.7939L107.866 66.081Z" fill="#4552CB"/>
<path d="M115.672 73.5575L112.124 70.1591L162.781 16.8721L166.295 20.2705L115.672 73.5575Z" fill="#4552CB"/>
<path d="M123.377 80.9999L119.829 77.6015L170.452 24.3145L173.966 27.7129L123.377 80.9999Z" fill="#4552CB"/>
</g>
<g clip-path="url(#clip1)">
<path fill-rule="evenodd" clip-rule="evenodd" d="M25.0627 119.781C21.3908 118.31 17.2502 117.148 13.3439 118.774C9.98456 120.245 7.48456 123.653 6.54706 127.215C5.60956 130.854 6.07831 134.571 7.25019 137.9C10.6877 147.58 24.9846 158.653 35.4533 149.67C48.8127 138.21 34.9846 123.807 25.0627 119.781Z" fill="url(#paint0_linear)"/>
</g>
<g clip-path="url(#clip2)">
<path fill-rule="evenodd" clip-rule="evenodd" d="M12.2566 99.192C13.2024 98.7071 14.0694 98.0606 14.6999 97.2122C15.3305 96.3233 15.7245 95.2728 15.8822 94.1819C17.1433 86.3435 6.69991 80.0808 1.57676 86.9091C-3.62521 93.8182 5.12355 102.707 12.2566 99.192Z" fill="url(#paint1_linear)"/>
</g>
</g>
<defs>
<linearGradient id="paint0_linear" x1="12.3648" y1="127.472" x2="33.8482" y2="144.499" gradientUnits="userSpaceOnUse">
<stop stop-color="#FEBB75"/>
<stop offset="1" stop-color="#FE8E75"/>
</linearGradient>
<linearGradient id="paint1_linear" x1="3.17423" y1="87.9925" x2="12.9861" y2="95.7808" gradientUnits="userSpaceOnUse">
<stop stop-color="#4695EA"/>
<stop offset="1" stop-color="#7145CB"/>
</linearGradient>
<clipPath id="clip0">
<rect width="159" height="159" fill="white"/>
</clipPath>
<clipPath id="clip1">
<rect width="35" height="35" fill="white" transform="translate(6 118)"/>
</clipPath>
<clipPath id="clip2">
<rect width="16" height="16" fill="white" transform="translate(0 84)"/>
</clipPath>
</defs>
</svg>
