<?xml version="1.0" encoding="utf-8"?>
<!-- Generator: Adobe Illustrator 25.1.0, SVG Export Plug-In . SVG Version: 6.00 Build 0)  -->
<svg version="1.1" id="Layer_1" xmlns="http://www.w3.org/2000/svg" xmlns:xlink="http://www.w3.org/1999/xlink" x="0px" y="0px"
	 viewBox="0 0 800 804" style="enable-background:new 0 0 800 804;" xml:space="preserve">
<style type="text/css">
	.st0{opacity:0.5;fill:url(#SVGID_1_);enable-background:new    ;}
	.st1{opacity:0.5;fill:url(#SVGID_2_);enable-background:new    ;}
	.st2{fill:url(#SVGID_3_);}
	.st3{fill-rule:evenodd;clip-rule:evenodd;fill:url(#SVGID_4_);}
	.st4{fill-rule:evenodd;clip-rule:evenodd;fill:url(#SVGID_5_);}
	.st5{fill-rule:evenodd;clip-rule:evenodd;fill:url(#SVGID_6_);}
	.st6{fill-rule:evenodd;clip-rule:evenodd;fill:url(#SVGID_7_);}
	.st7{fill-rule:evenodd;clip-rule:evenodd;fill:url(#SVGID_8_);}
	.st8{fill-rule:evenodd;clip-rule:evenodd;fill:url(#SVGID_9_);}
	.st9{fill-rule:evenodd;clip-rule:evenodd;fill:url(#SVGID_10_);}
	.st10{fill-rule:evenodd;clip-rule:evenodd;fill:url(#SVGID_11_);}
	.st11{fill:#C4C4C4;filter:url(#Adobe_OpacityMaskFilter);}
	.st12{mask:url(#mask0_1_);}
	.st13{fill:#4552CB;}
	.st14{fill:#C4C4C4;filter:url(#Adobe_OpacityMaskFilter_1_);}
	.st15{mask:url(#mask1_1_);}
	.st16{fill:#C4C4C4;filter:url(#Adobe_OpacityMaskFilter_2_);}
	.st17{mask:url(#mask2_1_);}
</style>
<linearGradient id="SVGID_1_" gradientUnits="userSpaceOnUse" x1="156.5666" y1="559.5474" x2="580.4225" y2="229.2344" gradientTransform="matrix(1 0 0 -1 0 806)">
	<stop  offset="3.580900e-03" style="stop-color:#9ACAF7"/>
	<stop  offset="1" style="stop-color:#997CE8"/>
</linearGradient>
<path class="st0" d="M579.4,645.2c29.2,8.2,85.8-29.3,84.7-75c-1.2-47.1-42.8-82.5-48-129.4c-5.8-52,50.1-90.3,62-141.2
	c12.4-53.6-13.3-117.5-53.5-155.1c-34.2-32-90.9-50-137-41.8c-56.1,9.9-89.8,72.5-144.9,86.9c-44.5,11.7-90.4-1.1-133.8-16.5
	c-33-11.7-61.3-11.8-91.9-13.5C83.2,157.7-20.5,208.6,3.6,310.3c7.7,32.6,38.8,54,68.5,69.6c29.6,15.6,72,52.7,93.9,78.1
	c35.5,41,23.5,77.2,22.3,131.4c-1.2,54.2-25.3,110.8,16.3,160c16.9,20,61.7,42.1,89.7,44.4c19.6,1.6,48.6-5.3,61.5-14.9
	C433.8,720.8,416.6,599.3,579.4,645.2z"/>
<linearGradient id="SVGID_2_" gradientUnits="userSpaceOnUse" x1="190.767" y1="569.5316" x2="619.1641" y2="233.8526" gradientTransform="matrix(1 0 0 -1 0 806)">
	<stop  offset="3.580900e-03" style="stop-color:#BFBCED"/>
	<stop  offset="1" style="stop-color:#9B85D6"/>
</linearGradient>
<path class="st1" d="M181.9,699.9c-2.9-1.8-5.6-3.8-8.3-5.8c-44.8-33.8-77.7-95.9-70.9-151.6c4.6-37.2,31.9-70.4,43.8-104.9
	c7.4,7.2,14.1,14.2,19.5,20.4c35.5,41,23.5,77.2,22.3,131.4C187.6,626.2,176.2,664,181.9,699.9z M642.9,626.2c-2.5,0-5,0-7.5-0.1
	c16.6-14,29.3-34,28.8-55.9c-1.2-47.1-42.8-82.5-48-129.4c-3.3-29.7,13.5-54.9,30.8-80.6c21,14.8,43.9,28.6,61.9,35.8
	c31.7,12.7,65.6,31,76.9,63.3c35.3,100.5-64.4,163.4-98.8,165.1C672,625.1,657.7,626.2,642.9,626.2z M306.3,194.1
	c-21.9,0-43.8-4.4-65.3-10.6c87.2-15.7,77.8-106.7,137.3-161.7C390.4,10.6,419,0.5,439.1,0c0.5,0,1.1,0,1.7,0
	c28.9,0,75.2,17.3,94.1,35.4c23.4,22.4,30.8,48.3,32.8,75.4c-18.5-6.5-38.1-10.2-56.9-10.2c-7.9,0-15.6,0.6-23.1,2
	c-56.1,9.9-89.8,72.5-144.9,86.9C330.7,192.7,318.5,194.1,306.3,194.1z"/>
<linearGradient id="SVGID_3_" gradientUnits="userSpaceOnUse" x1="191.5584" y1="534.5206" x2="567.752" y2="259.8276" gradientTransform="matrix(1 0 0 -1 0 806)">
	<stop  offset="3.580900e-03" style="stop-color:#9FD6FF"/>
	<stop  offset="1" style="stop-color:#8B68EA"/>
</linearGradient>
<path class="st2" d="M277.3,727.2c-33.3,0-68.4-9.9-95.3-27.3c-5.7-35.9,5.6-73.7,6.5-110.4c1.2-54.2,13.1-90.4-22.3-131.4
	c-5.4-6.3-12.1-13.2-19.5-20.4c5-14.6,7.3-29.5,3.9-45c-10.3-47-56.3-78.4-62.5-126.1c-5.7-43.7,41.7-85.5,72.7-85.5
	c1.8,0,3.5,0.1,5.2,0.4c17.7,3,33.2,4.4,46.9,4.4c10.4,0,19.8-0.8,28.2-2.3c21.6,6.2,43.5,10.6,65.3,10.6c12.2,0,24.4-1.4,36.5-4.5
	c55.1-14.4,88.8-77,144.9-86.9c7.5-1.3,15.2-2,23.1-2c18.8,0,38.4,3.6,56.9,10.2c2.1,27.9-1.5,57.2,0.8,85.1
	c4.6,55.1-3.6,93.1,36.7,130.9c10.8,10.1,25.7,22,41.7,33.4c-17.2,25.7-34.1,50.9-30.8,80.6c5.2,46.9,46.8,82.3,48,129.4
	c0.5,21.9-12.2,41.9-28.8,55.9c-13.7-0.4-27.9-1.8-43.2-5.5c-26.9-6.4-54.6-11.9-81.7-11.9c-19,0-37.7,2.7-55.8,9.5
	c-54.3,20.5-81.9,87.6-137.7,103.7C304.7,725.5,291.1,727.2,277.3,727.2z"/>
<linearGradient id="SVGID_4_" gradientUnits="userSpaceOnUse" x1="187.6563" y1="568.8855" x2="646.2293" y2="204.4585" gradientTransform="matrix(1 0 0 -1 0 806)">
	<stop  offset="0" style="stop-color:#4695EA"/>
	<stop  offset="1" style="stop-color:#7145CB"/>
</linearGradient>
<path class="st3" d="M78.8,373.3c-27.9,13.5-45.7,80.4-14,114.5c32.8,35.2,88.5,34.1,124.2,66.4c39.6,35.8,22.8,102.8,48.2,149.7
	c26.8,49.3,89.6,80.8,145.7,82.2c47.8,1.3,103.2-23.3,132.9-60.7c36.1-45.5,19.6-116.1,51.9-164.3c26.1-39,69.8-60.3,113.3-77.9
	c33.2-13.4,54.8-32.5,79.3-51.9c27-21.4,71.7-130.4-15.4-191.8c-27.9-19.7-66.2-15-99.4-6.9c-33.2,8.1-90.7,8.4-124.5,3.9
	c-54.8-7.4-70.2-43-105.9-85.2c-35.8-42.2-55.6-101.8-120.6-111.2C268.1,36.3,219,49.7,196,67c-16.1,12.1-33.5,36.9-36.9,53
	C138.9,217.1,234.2,298.2,78.8,373.3z"/>
<linearGradient id="SVGID_5_" gradientUnits="userSpaceOnUse" x1="457.3529" y1="716.4713" x2="512.5709" y2="673.0943" gradientTransform="matrix(1 0 0 -1 0 806)">
	<stop  offset="0" style="stop-color:#FEBB75"/>
	<stop  offset="1" style="stop-color:#FE8E75"/>
</linearGradient>
<path class="st4" d="M489.7,69.7c-9.3-3.8-19.9-6.7-29.8-2.5c-8.6,3.7-15,12.5-17.5,21.8c-2.4,9.3-1.3,18.9,1.7,27.5
	c8.8,24.9,45.2,53.5,72,30.3C550.5,117.2,515.2,80,489.7,69.7z"/>
<linearGradient id="SVGID_6_" gradientUnits="userSpaceOnUse" x1="125.5784" y1="143.6576" x2="153.2654" y2="121.9086" gradientTransform="matrix(1 0 0 -1 0 806)">
	<stop  offset="0" style="stop-color:#FEBB75"/>
	<stop  offset="1" style="stop-color:#FE8E75"/>
</linearGradient>
<path class="st5" d="M141.8,652.4c-4.7-1.9-10-3.4-15-1.3c-4.3,1.8-7.5,6.3-8.8,10.9c-1.2,4.7-0.6,9.5,0.9,13.8
	c4.4,12.5,22.7,26.8,36.1,15.2C172.3,676.2,154.6,657.6,141.8,652.4z"/>
<linearGradient id="SVGID_7_" gradientUnits="userSpaceOnUse" x1="692.876" y1="230.2798" x2="736.7709" y2="186.9918" gradientTransform="matrix(1 0 0 -1 0 806)">
	<stop  offset="0" style="stop-color:#FEBB75"/>
	<stop  offset="1" style="stop-color:#FE8E75"/>
</linearGradient>
<path class="st6" d="M686.3,576.4c-7,5.4-14,12.2-15.2,21.6c-1,8.2,2.8,17,8.8,23.1c6,6,13.9,9.4,21.7,11c23,4.5,61-10.6,55.3-41.4
	C749.7,551.3,705.5,561.6,686.3,576.4z"/>
<linearGradient id="SVGID_8_" gradientUnits="userSpaceOnUse" x1="396.9662" y1="166.3438" x2="421.3813" y2="146.4748" gradientTransform="matrix(1 0 0 -1 0 806)">
	<stop  offset="0" style="stop-color:#4695EA"/>
	<stop  offset="1" style="stop-color:#7145CB"/>
</linearGradient>
<path class="st7" d="M420,667.4c2.4-1.2,4.6-2.8,6.2-4.9c1.6-2.2,2.6-4.8,3-7.4c3.2-19.5-23.3-34.9-36.4-18
	C379.7,654,401.9,676.1,420,667.4z"/>
<linearGradient id="SVGID_9_" gradientUnits="userSpaceOnUse" x1="513.1356" y1="618.9453" x2="537.5506" y2="599.0762" gradientTransform="matrix(1 0 0 -1 0 806)">
	<stop  offset="0" style="stop-color:#4695EA"/>
	<stop  offset="1" style="stop-color:#7145CB"/>
</linearGradient>
<path class="st8" d="M536.2,214.8c2.4-1.2,4.6-2.8,6.2-4.9c1.6-2.2,2.6-4.8,3-7.5c3.2-19.5-23.3-34.9-36.4-18
	C495.9,201.4,518.1,223.5,536.2,214.8z"/>
<linearGradient id="SVGID_10_" gradientUnits="userSpaceOnUse" x1="154.228" y1="270.8747" x2="203.651" y2="214.8307" gradientTransform="matrix(1 0 0 -1 0 806)">
	<stop  offset="0" style="stop-color:#4552CB"/>
	<stop  offset="1" style="stop-color:#2C1D74"/>
</linearGradient>
<path class="st9" d="M129.6,583.9c6.9,12.3,21.8,19.5,35.6,17.2c8.7-1.4,16.8-6.1,25.6-6.8c10.6-0.8,21.9,4.2,31.4-0.5
	c3-1.5,5.5-3.9,7.6-6.5c8.7-11.3,9.1-27.8,2.3-40.3C205.7,498.9,97.7,527.1,129.6,583.9z"/>
<linearGradient id="SVGID_11_" gradientUnits="userSpaceOnUse" x1="602.8655" y1="680.861" x2="738.4375" y2="573.33" gradientTransform="matrix(1 0 0 -1 0 806)">
	<stop  offset="0" style="stop-color:#4552CB"/>
	<stop  offset="1" style="stop-color:#2C1D74"/>
</linearGradient>
<path class="st10" d="M781.1,178.9c0,61-49.4,110.4-110.4,110.4s-110.4-49.4-110.4-110.4c0-61,49.4-110.4,110.4-110.4
	S781.1,117.9,781.1,178.9z"/>
<defs>
	<filter id="Adobe_OpacityMaskFilter" filterUnits="userSpaceOnUse" x="133.4" y="572.8" width="275.2" height="276.6">
		<feColorMatrix  type="matrix" values="1 0 0 0 0  0 1 0 0 0  0 0 1 0 0  0 0 0 1 0"/>
	</filter>
</defs>
<mask maskUnits="userSpaceOnUse" x="133.4" y="572.8" width="275.2" height="276.6" id="mask0_1_">
	<circle class="st11" cx="268.2" cy="714.8" r="88.9"/>
</mask>
<g class="st12">
	<path class="st13" d="M143.9,739.6l-10.5-10l149.8-156.8l10.5,10L143.9,739.6z"/>
	<path class="st13" d="M167,761.6l-10.5-10l149.8-156.8l10.5,10L167,761.6z"/>
	<path class="st13" d="M189.8,783.6l-10.5-10l149.8-156.8l10.5,10L189.8,783.6z"/>
	<path class="st13" d="M212.9,805.5l-10.4-10l149.8-156.8l10.5,10L212.9,805.5z"/>
	<path class="st13" d="M236.1,827.5l-10.5-10l149.8-156.8l10.5,10L236.1,827.5z"/>
	<path class="st13" d="M258.8,849.5l-10.5-10l149.8-156.8l10.5,10L258.8,849.5z"/>
</g>
<defs>
	<filter id="Adobe_OpacityMaskFilter_1_" filterUnits="userSpaceOnUse" x="575.4" y="311.2" width="275.2" height="276.6">
		<feColorMatrix  type="matrix" values="1 0 0 0 0  0 1 0 0 0  0 0 1 0 0  0 0 0 1 0"/>
	</filter>
</defs>
<mask maskUnits="userSpaceOnUse" x="575.4" y="311.2" width="275.2" height="276.6" id="mask1_1_">
	<circle class="st14" cx="711.1" cy="452.9" r="88.9"/>
</mask>
<g class="st15">
	<path class="st13" d="M585.8,478l-10.5-10l149.8-156.8l10.5,10L585.8,478z"/>
	<path class="st13" d="M609,500l-10.5-10l149.8-156.8l10.5,10L609,500z"/>
	<path class="st13" d="M631.7,521.9l-10.4-10l149.8-156.8l10.5,10L631.7,521.9z"/>
	<path class="st13" d="M654.9,543.9l-10.5-10l149.8-156.8l10.5,10L654.9,543.9z"/>
	<path class="st13" d="M678,565.9l-10.5-10l149.8-156.8l10.5,10L678,565.9z"/>
	<path class="st13" d="M700.7,587.9l-10.5-10l149.8-156.8l10.5,10L700.7,587.9z"/>
</g>
<defs>
	<filter id="Adobe_OpacityMaskFilter_2_" filterUnits="userSpaceOnUse" x="-11.4" y="26.7" width="275.2" height="276.6">
		<feColorMatrix  type="matrix" values="1 0 0 0 0  0 1 0 0 0  0 0 1 0 0  0 0 0 1 0"/>
	</filter>
</defs>
<mask maskUnits="userSpaceOnUse" x="-11.4" y="26.7" width="275.2" height="276.6" id="mask2_1_">
	<circle class="st16" cx="124.9" cy="165.2" r="88.9"/>
</mask>
<g class="st17">
	<path class="st13" d="M-0.9,193.5l-10.5-10L138.5,26.7l10.5,10L-0.9,193.5z"/>
	<path class="st13" d="M22.2,215.5l-10.5-10L161.6,48.7l10.5,10L22.2,215.5z"/>
	<path class="st13" d="M45,237.4l-10.5-10L184.4,70.7l10.5,10L45,237.4z"/>
	<path class="st13" d="M68.1,259.4l-10.5-10L207.5,92.7l10.5,10L68.1,259.4z"/>
	<path class="st13" d="M91.3,281.4l-10.5-10l149.8-156.8l10.4,10L91.3,281.4z"/>
	<path class="st13" d="M114,303.4l-10.5-10l149.8-156.8l10.4,10L114,303.4z"/>
</g>
</svg>
