<svg width="148" height="40" viewBox="0 0 148 40" fill="none" xmlns="http://www.w3.org/2000/svg">
<g clip-path="url(#clip0)">
<g filter="url(#filter0_d)">
<path fill-rule="evenodd" clip-rule="evenodd" d="M32.1452 30.0344C33.2069 28.4933 33.0047 27.0739 33.0047 27.0739C33.0047 27.0739 33.6822 29.639 31.8216 31.9912C30.8306 33.3904 28.9802 34.1305 27.9184 34.1305H16.5426C16.5426 34.1305 16.2999 32.7415 17.5234 31.9405C18.6863 31.2815 20.0817 31.6059 20.0817 31.6059C20.0817 31.6059 19.8795 28.544 17.0178 26.9624C16.9774 30.3284 15.7538 32.7313 14.6719 34.1406H11.4563H10.4957C10.4957 34.1406 10.2833 33.289 11.0518 32.4779C11.6181 31.9811 12.0832 31.9202 12.4068 31.9C13.9135 29.6491 14.9348 26.6278 14.0449 22.7243C13.7922 21.6447 13.3059 20.8408 12.802 20.0078C11.8342 18.4081 10.8016 16.7011 11.2338 12.7275C11.6585 9.69599 13.6 7.4249 14.2876 6.93824C15.4505 5.98519 17.1695 5.90408 18.2009 6.37046C18.388 6.45498 18.5684 6.54579 18.754 6.63921C19.4813 7.0053 20.2886 7.41165 21.8917 7.63781C23.9343 7.84059 25.2388 7.39448 25.5522 7.28296C26.3511 8.29684 26.5028 10.1218 22.9434 11.521C20.0615 12.6565 19.0908 13.6805 19.2627 14.9073C19.2627 15.2723 19.5761 15.7793 19.5761 15.7793C19.5761 15.7793 15.8145 14.37 14.6314 10.061C14.7426 14.4714 17.7054 16.8337 19.4548 17.6651C19.6731 17.7875 20.027 17.9202 20.4719 18.0871C21.9435 18.639 24.4097 19.5641 26.25 21.7206C27.6859 23.2516 29.9914 27.1854 28.7375 32.2143C28.7375 32.2143 30.7801 32.0318 32.1452 30.0344ZM20.5974 8.82404C20.5974 8.56043 20.385 8.34752 20.1221 8.34752C19.8592 8.34752 19.6469 8.55029 19.6469 8.82404C19.6469 9.08765 19.8592 9.30056 20.1221 9.30056C20.385 9.30056 20.5974 9.08765 20.5974 8.82404Z" fill="url(#paint0_linear)"/>
<path d="M25.9321 6.5625C25.9321 6.5625 25.675 5.5008 25.487 4.47878C25.3882 4.06204 25.6848 3.34762 26.5057 3.44684C27.3661 3.65522 27.198 4.50855 27.198 4.50855C27.198 4.50855 27.6826 4.12157 28.2265 4.47878C28.6617 4.77646 28.8397 5.6794 28.0188 6.02669C27.1683 6.32436 25.9321 6.5625 25.9321 6.5625Z" fill="#FFC4CD"/>
</g>
<path d="M47.0499 29.187C46.3752 29.187 45.6162 29.1577 44.7729 29.099C43.9369 29.0403 43.1669 28.9633 42.4629 28.868V13.083C43.2182 12.9217 44.0542 12.7897 44.9709 12.687C45.8949 12.577 46.8006 12.522 47.6879 12.522C50.1152 12.522 51.8789 12.8997 52.9789 13.655C54.0789 14.403 54.6289 15.536 54.6289 17.054C54.6289 17.9047 54.4016 18.649 53.9469 19.287C53.4996 19.925 52.8542 20.365 52.0109 20.607C52.9569 20.7977 53.7012 21.2157 54.2439 21.861C54.7939 22.499 55.0689 23.357 55.0689 24.435C55.0689 25.447 54.8086 26.3087 54.2879 27.02C53.7672 27.724 52.9202 28.263 51.7469 28.637C50.5736 29.0037 49.0079 29.187 47.0499 29.187ZM48.1389 15.129C47.7209 15.129 47.3322 15.1473 46.9729 15.184C46.6209 15.2133 46.2799 15.2573 45.9499 15.316V19.342H48.2929C49.3856 19.342 50.1556 19.1697 50.6029 18.825C51.0502 18.473 51.2739 17.945 51.2739 17.241C51.2739 16.5003 51.0392 15.965 50.5699 15.635C50.1006 15.2977 49.2902 15.129 48.1389 15.129ZM48.0069 26.58C49.4369 26.58 50.4196 26.393 50.9549 26.019C51.4976 25.6377 51.7689 25.0583 51.7689 24.281C51.7689 23.5037 51.5232 22.9317 51.0319 22.565C50.5479 22.1983 49.7486 22.015 48.6339 22.015H45.9499V26.481C46.3239 26.5177 46.6722 26.5433 46.9949 26.558C47.3176 26.5727 47.6549 26.58 48.0069 26.58Z" fill="#4552CB"/>
<path d="M62.2742 29.231C60.4776 29.231 59.0512 28.7177 57.9952 27.691C56.9392 26.657 56.4112 25.0987 56.4112 23.016C56.4112 20.9187 56.9282 19.3567 57.9622 18.33C58.9962 17.296 60.4336 16.779 62.2742 16.779C64.1149 16.779 65.5522 17.296 66.5862 18.33C67.6202 19.364 68.1372 20.9187 68.1372 22.994C68.1372 25.084 67.6092 26.646 66.5532 27.68C65.4972 28.714 64.0709 29.231 62.2742 29.231ZM62.2742 26.569C63.0149 26.569 63.5869 26.3197 63.9902 25.821C64.4009 25.315 64.6062 24.3837 64.6062 23.027C64.6062 21.641 64.4009 20.695 63.9902 20.189C63.5796 19.683 63.0076 19.43 62.2742 19.43C61.5409 19.43 60.9689 19.683 60.5582 20.189C60.1476 20.6877 59.9422 21.619 59.9422 22.983C59.9422 24.3617 60.1439 25.304 60.5472 25.81C60.9579 26.316 61.5336 26.569 62.2742 26.569Z" fill="#4552CB"/>
<path d="M73.7266 29.231C73.0373 29.231 72.3663 29.187 71.7136 29.099C71.0609 29.011 70.4523 28.879 69.8876 28.703V26.129C71.0829 26.4883 72.3479 26.668 73.6826 26.668C74.4746 26.668 75.0319 26.5653 75.3546 26.36C75.6846 26.1473 75.8496 25.854 75.8496 25.48C75.8496 25.1867 75.7653 24.963 75.5966 24.809C75.4353 24.6477 75.1566 24.5267 74.7606 24.446L72.8026 24.094C71.6733 23.8813 70.8519 23.489 70.3386 22.917C69.8253 22.345 69.5686 21.5787 69.5686 20.618C69.5686 19.4667 70.0306 18.539 70.9546 17.835C71.8859 17.131 73.3123 16.779 75.2336 16.779C75.8203 16.779 76.3886 16.812 76.9386 16.878C77.4959 16.944 77.9983 17.0357 78.4456 17.153V19.727C77.4776 19.463 76.4399 19.331 75.3326 19.331C74.3353 19.331 73.6679 19.452 73.3306 19.694C72.9933 19.936 72.8246 20.2183 72.8246 20.541C72.8246 20.805 72.9016 21.0177 73.0556 21.179C73.2169 21.3403 73.4993 21.4613 73.9026 21.542L75.8606 21.894C76.9313 22.0993 77.7379 22.466 78.2806 22.994C78.8306 23.522 79.1056 24.3103 79.1056 25.359C79.1056 26.5617 78.6363 27.5077 77.6976 28.197C76.7663 28.8863 75.4426 29.231 73.7266 29.231Z" fill="#4552CB"/>
<path d="M84.4903 29.231C83.8009 29.231 83.1299 29.187 82.4773 29.099C81.8246 29.011 81.2159 28.879 80.6513 28.703V26.129C81.8466 26.4883 83.1116 26.668 84.4463 26.668C85.2383 26.668 85.7956 26.5653 86.1183 26.36C86.4483 26.1473 86.6133 25.854 86.6133 25.48C86.6133 25.1867 86.5289 24.963 86.3603 24.809C86.1989 24.6477 85.9203 24.5267 85.5243 24.446L83.5663 24.094C82.4369 23.8813 81.6156 23.489 81.1023 22.917C80.5889 22.345 80.3323 21.5787 80.3323 20.618C80.3323 19.4667 80.7943 18.539 81.7183 17.835C82.6496 17.131 84.0759 16.779 85.9973 16.779C86.5839 16.779 87.1523 16.812 87.7023 16.878C88.2596 16.944 88.7619 17.0357 89.2093 17.153V19.727C88.2413 19.463 87.2036 19.331 86.0963 19.331C85.0989 19.331 84.4316 19.452 84.0943 19.694C83.7569 19.936 83.5883 20.2183 83.5883 20.541C83.5883 20.805 83.6653 21.0177 83.8193 21.179C83.9806 21.3403 84.2629 21.4613 84.6663 21.542L86.6243 21.894C87.6949 22.0993 88.5016 22.466 89.0443 22.994C89.5943 23.522 89.8693 24.3103 89.8693 25.359C89.8693 26.5617 89.3999 27.5077 88.4613 28.197C87.5299 28.8863 86.2063 29.231 84.4903 29.231Z" fill="#4552CB"/>
<path d="M105.362 29.209C103.565 29.209 102.033 28.923 100.764 28.351C99.5026 27.779 98.5383 26.8807 97.8709 25.656C97.2109 24.4313 96.8809 22.8437 96.8809 20.893C96.8809 18.0917 97.6326 15.9943 99.1359 14.601C100.639 13.2077 102.773 12.511 105.538 12.511C106.77 12.511 107.936 12.6393 109.036 12.896V15.844C108.523 15.7193 107.998 15.624 107.463 15.558C106.935 15.492 106.389 15.459 105.824 15.459C104.071 15.459 102.766 15.877 101.908 16.713C101.05 17.549 100.621 18.9277 100.621 20.849C100.621 22.8363 101.043 24.237 101.886 25.051C102.737 25.8577 104.009 26.261 105.703 26.261C106.26 26.261 106.814 26.217 107.364 26.129C107.914 26.0337 108.471 25.9053 109.036 25.744V28.681C108.515 28.8497 107.936 28.978 107.298 29.066C106.667 29.1613 106.022 29.209 105.362 29.209Z" fill="#4552CB"/>
<path d="M114.069 29.22C112.837 29.22 111.876 28.901 111.187 28.263C110.505 27.625 110.164 26.7853 110.164 25.744C110.164 24.6147 110.556 23.731 111.341 23.093C112.125 22.4477 113.401 22.0663 115.169 21.949L117.127 21.784V21.619C117.127 20.7903 116.918 20.222 116.5 19.914C116.089 19.5987 115.385 19.441 114.388 19.441C113.926 19.441 113.401 19.4813 112.815 19.562C112.228 19.6353 111.667 19.7563 111.132 19.925V17.285C111.718 17.1163 112.36 16.9917 113.057 16.911C113.761 16.823 114.413 16.779 115.015 16.779C116.291 16.779 117.336 16.9367 118.15 17.252C118.964 17.5673 119.565 18.0953 119.954 18.836C120.35 19.5693 120.548 20.5703 120.548 21.839V29H117.666L117.424 27.801H117.259C116.892 28.2923 116.43 28.6517 115.873 28.879C115.323 29.1063 114.721 29.22 114.069 29.22ZM113.618 25.403C113.618 26.3197 114.149 26.778 115.213 26.778C115.535 26.778 115.865 26.723 116.203 26.613C116.54 26.4957 116.848 26.2977 117.127 26.019V23.753L115.521 23.885C114.846 23.9437 114.358 24.1013 114.058 24.358C113.764 24.6073 113.618 24.9557 113.618 25.403Z" fill="#4552CB"/>
<path d="M123.069 29V16.966H125.94L126.204 18.517H126.38C126.717 17.923 127.164 17.4903 127.722 17.219C128.279 16.9403 128.891 16.801 129.559 16.801C129.742 16.801 129.918 16.8083 130.087 16.823C130.255 16.8377 130.406 16.8597 130.538 16.889V20.057C130.354 20.0203 130.156 19.9983 129.944 19.991C129.738 19.9763 129.54 19.969 129.35 19.969C128.836 19.969 128.319 20.068 127.799 20.266C127.278 20.4567 126.867 20.739 126.567 21.113V29H123.069Z" fill="#4552CB"/>
<path d="M137.917 29.231C135.651 29.231 133.982 28.736 132.912 27.746C131.841 26.756 131.306 25.1647 131.306 22.972C131.306 20.9773 131.79 19.4483 132.758 18.385C133.733 17.3143 135.112 16.779 136.894 16.779C138.602 16.779 139.9 17.318 140.788 18.396C141.675 19.4667 142.119 21.0287 142.119 23.082V23.995H134.815C134.866 24.9483 135.156 25.6193 135.684 26.008C136.212 26.3893 137.121 26.58 138.412 26.58C138.881 26.58 139.372 26.547 139.886 26.481C140.406 26.4077 140.927 26.3123 141.448 26.195V28.824C140.802 28.9707 140.194 29.0733 139.622 29.132C139.05 29.198 138.481 29.231 137.917 29.231ZM136.861 19.001C136.208 19.001 135.706 19.2173 135.354 19.65C135.009 20.0827 134.826 20.86 134.804 21.982H138.852C138.83 20.8673 138.65 20.0937 138.313 19.661C137.983 19.221 137.499 19.001 136.861 19.001Z" fill="#4552CB"/>
</g>
<defs>
<filter id="filter0_d" x="-60" y="-60" width="220" height="220" filterUnits="userSpaceOnUse" color-interpolation-filters="sRGB">
<feFlood flood-opacity="0" result="BackgroundImageFix"/>
<feColorMatrix in="SourceAlpha" type="matrix" values="0 0 0 0 0 0 0 0 0 0 0 0 0 0 0 0 0 0 127 0"/>
<feOffset dx="30" dy="30"/>
<feGaussianBlur stdDeviation="45"/>
<feColorMatrix type="matrix" values="0 0 0 0 0.270588 0 0 0 0 0.321569 0 0 0 0 0.796078 0 0 0 0.1 0"/>
<feBlend mode="normal" in2="BackgroundImageFix" result="effect1_dropShadow"/>
<feBlend mode="normal" in="SourceGraphic" in2="effect1_dropShadow" result="shape"/>
</filter>
<linearGradient id="paint0_linear" x1="12.7698" y1="41.5906" x2="-4.03804" y2="23.0468" gradientUnits="userSpaceOnUse">
<stop offset="0.298343" stop-color="#7145CB"/>
<stop offset="1" stop-color="#4596EA"/>
</linearGradient>
<clipPath id="clip0">
<rect width="148" height="40" fill="white"/>
</clipPath>
</defs>
</svg>
