<svg width="455" height="892" viewBox="0 0 455 892" fill="none" xmlns="http://www.w3.org/2000/svg">
<g filter="url(#filter0_d)">
<g clip-path="url(#clip0)">
<g filter="url(#filter1_d)">
<rect x="40" y="20" width="375" height="812" rx="24" fill="white"/>
</g>
<rect x="40" y="20" width="375" height="812" fill="white"/>
<g clip-path="url(#clip1)">
<rect x="55" y="231" width="165" height="165" rx="10" fill="url(#paint0_linear)"/>
<rect x="55" y="411" width="165" height="165" rx="10" fill="url(#paint1_linear)"/>
<rect x="235" y="231" width="165" height="165" rx="10" fill="url(#paint2_linear)"/>
<rect x="235" y="411" width="165" height="165" rx="10" fill="url(#paint3_linear)"/>
<path d="M120.493 284.24C122.439 282.8 124.386 281.08 126.333 279.08C128.306 277.08 129.959 274.96 131.293 272.72C132.626 270.48 133.293 268.36 133.293 266.36C133.293 264.76 132.826 263.48 131.893 262.52C130.959 261.56 129.693 261.08 128.092 261.08C126.733 261.08 125.439 261.413 124.213 262.08C122.986 262.72 122.039 263.547 121.373 264.56L119.773 262.76C120.599 261.453 121.746 260.44 123.213 259.72C124.706 258.973 126.346 258.6 128.133 258.6C130.639 258.6 132.626 259.293 134.093 260.68C135.559 262.067 136.293 263.92 136.293 266.24C136.293 269.253 135.106 272.36 132.733 275.56C130.386 278.76 127.586 281.76 124.333 284.56H137.653V287H120.493V284.24ZM153.929 282.04H140.769V279.48L153.129 259H156.889V279.56H160.089V282.04H156.889V287H153.929V282.04ZM153.929 279.56V262.32L143.529 279.56H153.929ZM172.326 287.4C169.42 287.4 167.153 286.693 165.526 285.28C163.9 283.867 163.086 281.907 163.086 279.4C163.086 277.72 163.486 276.24 164.286 274.96C165.113 273.653 166.326 272.68 167.926 272.04C166.726 271.533 165.78 270.707 165.086 269.56C164.393 268.387 164.046 267.093 164.046 265.68C164.046 263.52 164.793 261.8 166.286 260.52C167.78 259.24 169.793 258.6 172.326 258.6C174.833 258.6 176.833 259.24 178.326 260.52C179.82 261.8 180.566 263.52 180.566 265.68C180.566 267.093 180.22 268.387 179.526 269.56C178.833 270.733 177.886 271.56 176.686 272.04C178.286 272.68 179.486 273.653 180.286 274.96C181.113 276.24 181.526 277.72 181.526 279.4C181.526 281.907 180.713 283.867 179.086 285.28C177.46 286.693 175.206 287.4 172.326 287.4ZM172.326 270.92C173.953 270.92 175.233 270.48 176.166 269.6C177.126 268.693 177.606 267.493 177.606 266C177.606 264.48 177.14 263.28 176.206 262.4C175.273 261.52 173.98 261.08 172.326 261.08C170.673 261.08 169.366 261.52 168.406 262.4C167.473 263.28 167.006 264.48 167.006 266C167.006 267.493 167.486 268.693 168.446 269.6C169.406 270.48 170.7 270.92 172.326 270.92ZM172.326 284.92C174.273 284.92 175.793 284.4 176.886 283.36C178.006 282.293 178.566 280.853 178.566 279.04C178.566 277.227 178.006 275.813 176.886 274.8C175.793 273.76 174.273 273.24 172.326 273.24C170.353 273.24 168.806 273.76 167.686 274.8C166.593 275.813 166.046 277.227 166.046 279.04C166.046 280.853 166.606 282.293 167.726 283.36C168.846 284.4 170.38 284.92 172.326 284.92ZM188.523 284.56H193.403V262.56L187.803 265.88V263.12L194.523 259H196.363V284.56H201.243V287H188.523V284.56Z" fill="white"/>
<path d="M171.806 467.4C169.966 467.4 168.286 467.04 166.766 466.32C165.246 465.6 164.1 464.613 163.326 463.36L164.846 461.44C165.54 462.533 166.486 463.387 167.686 464C168.913 464.613 170.26 464.92 171.726 464.92C173.7 464.92 175.26 464.293 176.406 463.04C177.58 461.787 178.166 460.08 178.166 457.92C178.166 455.84 177.633 454.2 176.566 453C175.526 451.773 174.1 451.16 172.286 451.16C171.14 451.16 170.073 451.413 169.086 451.92C168.1 452.4 167.34 453.067 166.806 453.92H164.326L165.606 439H180.286V441.48H168.326L167.526 450.48C168.113 449.947 168.9 449.52 169.886 449.2C170.9 448.88 171.926 448.72 172.966 448.72C175.5 448.72 177.513 449.547 179.006 451.2C180.526 452.827 181.286 455.027 181.286 457.8C181.286 460.733 180.433 463.067 178.726 464.8C177.02 466.533 174.713 467.4 171.806 467.4ZM190.843 467C190.923 463.773 191.19 460.813 191.643 458.12C192.123 455.427 192.976 452.68 194.203 449.88C195.456 447.053 197.23 444.253 199.523 441.48H185.443V439H202.803V441.68C196.856 448.24 193.883 456.68 193.883 467H190.843Z" fill="white"/>
<path d="M330.209 287.4C328.289 287.4 326.569 287.04 325.049 286.32C323.529 285.6 322.396 284.613 321.649 283.36L323.169 281.56C323.836 282.6 324.796 283.427 326.049 284.04C327.329 284.627 328.689 284.92 330.129 284.92C332.023 284.92 333.543 284.413 334.689 283.4C335.836 282.36 336.409 281.027 336.409 279.4C336.409 277.587 335.689 276.173 334.249 275.16C332.809 274.12 330.849 273.6 328.369 273.6H327.249V271.08H328.329C330.463 271.08 332.169 270.547 333.449 269.48C334.756 268.413 335.409 267.053 335.409 265.4C335.409 264.04 334.956 262.987 334.049 262.24C333.169 261.467 331.943 261.08 330.369 261.08C328.929 261.08 327.596 261.387 326.369 262C325.169 262.587 324.223 263.4 323.529 264.44L322.009 262.64C322.809 261.387 323.969 260.4 325.489 259.68C327.009 258.96 328.689 258.6 330.529 258.6C332.903 258.6 334.796 259.2 336.209 260.4C337.649 261.573 338.369 263.133 338.369 265.08C338.369 266.733 337.849 268.213 336.809 269.52C335.796 270.8 334.423 271.707 332.689 272.24C334.823 272.64 336.476 273.467 337.649 274.72C338.823 275.973 339.409 277.56 339.409 279.48C339.409 281.027 339.023 282.4 338.249 283.6C337.503 284.8 336.436 285.733 335.049 286.4C333.663 287.067 332.049 287.4 330.209 287.4ZM345.486 285.12C347.433 284.667 349.246 283.92 350.926 282.88C352.606 281.813 354.02 280.547 355.166 279.08C356.313 277.587 357.073 276.013 357.446 274.36C356.94 275.053 356.193 275.627 355.206 276.08C354.22 276.533 353.126 276.76 351.926 276.76C350.193 276.76 348.673 276.373 347.366 275.6C346.086 274.8 345.086 273.72 344.366 272.36C343.673 270.973 343.326 269.413 343.326 267.68C343.326 265.92 343.686 264.36 344.406 263C345.126 261.613 346.14 260.533 347.446 259.76C348.78 258.987 350.326 258.6 352.086 258.6C354.966 258.6 357.22 259.573 358.846 261.52C360.5 263.44 361.326 266.027 361.326 269.28C361.326 272.32 360.66 275.133 359.326 277.72C358.02 280.307 356.193 282.453 353.846 284.16C351.5 285.867 348.833 286.96 345.846 287.44L345.486 285.12ZM352.086 274.36C353.9 274.36 355.366 273.747 356.486 272.52C357.606 271.293 358.166 269.693 358.166 267.72C358.166 265.72 357.62 264.12 356.526 262.92C355.433 261.693 353.98 261.08 352.166 261.08C350.38 261.08 348.94 261.693 347.846 262.92C346.78 264.12 346.246 265.72 346.246 267.72C346.246 269.72 346.78 271.333 347.846 272.56C348.913 273.76 350.326 274.36 352.086 274.36ZM370.843 287C370.923 283.773 371.19 280.813 371.643 278.12C372.123 275.427 372.976 272.68 374.203 269.88C375.456 267.053 377.23 264.253 379.523 261.48H365.443V259H382.803V261.68C376.856 268.24 373.883 276.68 373.883 287H370.843Z" fill="white"/>
<path d="M308.213 467.4C306.373 467.4 304.693 467.04 303.173 466.32C301.653 465.6 300.506 464.613 299.733 463.36L301.253 461.44C301.946 462.533 302.893 463.387 304.093 464C305.319 464.613 306.666 464.92 308.133 464.92C310.106 464.92 311.666 464.293 312.813 463.04C313.986 461.787 314.573 460.08 314.573 457.92C314.573 455.84 314.039 454.2 312.973 453C311.933 451.773 310.506 451.16 308.693 451.16C307.546 451.16 306.479 451.413 305.493 451.92C304.506 452.4 303.746 453.067 303.213 453.92H300.733L302.013 439H316.693V441.48H304.733L303.933 450.48C304.519 449.947 305.306 449.52 306.293 449.2C307.306 448.88 308.333 448.72 309.373 448.72C311.906 448.72 313.919 449.547 315.413 451.2C316.933 452.827 317.693 455.027 317.693 457.8C317.693 460.733 316.839 463.067 315.133 464.8C313.426 466.533 311.119 467.4 308.213 467.4ZM323.689 465.12C325.636 464.667 327.449 463.92 329.129 462.88C330.809 461.813 332.223 460.547 333.369 459.08C334.516 457.587 335.276 456.013 335.649 454.36C335.143 455.053 334.396 455.627 333.409 456.08C332.423 456.533 331.329 456.76 330.129 456.76C328.396 456.76 326.876 456.373 325.569 455.6C324.289 454.8 323.289 453.72 322.569 452.36C321.876 450.973 321.529 449.413 321.529 447.68C321.529 445.92 321.889 444.36 322.609 443C323.329 441.613 324.343 440.533 325.649 439.76C326.983 438.987 328.529 438.6 330.289 438.6C333.169 438.6 335.423 439.573 337.049 441.52C338.703 443.44 339.529 446.027 339.529 449.28C339.529 452.32 338.863 455.133 337.529 457.72C336.223 460.307 334.396 462.453 332.049 464.16C329.703 465.867 327.036 466.96 324.049 467.44L323.689 465.12ZM330.289 454.36C332.103 454.36 333.569 453.747 334.689 452.52C335.809 451.293 336.369 449.693 336.369 447.72C336.369 445.72 335.823 444.12 334.729 442.92C333.636 441.693 332.183 441.08 330.369 441.08C328.583 441.08 327.143 441.693 326.049 442.92C324.983 444.12 324.449 445.72 324.449 447.72C324.449 449.72 324.983 451.333 326.049 452.56C327.116 453.76 328.529 454.36 330.289 454.36ZM352.326 467.4C349.34 467.4 347.046 466.187 345.446 463.76C343.873 461.333 343.086 457.747 343.086 453C343.086 448.253 343.873 444.667 345.446 442.24C347.046 439.813 349.34 438.6 352.326 438.6C355.286 438.6 357.553 439.813 359.126 442.24C360.726 444.667 361.526 448.253 361.526 453C361.526 457.747 360.726 461.333 359.126 463.76C357.553 466.187 355.286 467.4 352.326 467.4ZM352.326 465.08C354.3 465.08 355.833 464.053 356.926 462C358.02 459.947 358.566 456.947 358.566 453C358.566 449.027 358.02 446.027 356.926 444C355.86 441.947 354.326 440.92 352.326 440.92C350.326 440.92 348.78 441.947 347.686 444C346.593 446.027 346.046 449.027 346.046 453C346.046 456.973 346.593 459.987 347.686 462.04C348.78 464.067 350.326 465.08 352.326 465.08ZM373.803 467.4C371.883 467.4 370.163 467.04 368.643 466.32C367.123 465.6 365.99 464.613 365.243 463.36L366.763 461.56C367.43 462.6 368.39 463.427 369.643 464.04C370.923 464.627 372.283 464.92 373.723 464.92C375.616 464.92 377.136 464.413 378.283 463.4C379.43 462.36 380.003 461.027 380.003 459.4C380.003 457.587 379.283 456.173 377.843 455.16C376.403 454.12 374.443 453.6 371.963 453.6H370.843V451.08H371.923C374.056 451.08 375.763 450.547 377.043 449.48C378.35 448.413 379.003 447.053 379.003 445.4C379.003 444.04 378.55 442.987 377.643 442.24C376.763 441.467 375.536 441.08 373.963 441.08C372.523 441.08 371.19 441.387 369.963 442C368.763 442.587 367.816 443.4 367.123 444.44L365.603 442.64C366.403 441.387 367.563 440.4 369.083 439.68C370.603 438.96 372.283 438.6 374.123 438.6C376.496 438.6 378.39 439.2 379.803 440.4C381.243 441.573 381.963 443.133 381.963 445.08C381.963 446.733 381.443 448.213 380.403 449.52C379.39 450.8 378.016 451.707 376.283 452.24C378.416 452.64 380.07 453.467 381.243 454.72C382.416 455.973 383.003 457.56 383.003 459.48C383.003 461.027 382.616 462.4 381.843 463.6C381.096 464.8 380.03 465.733 378.643 466.4C377.256 467.067 375.643 467.4 373.803 467.4Z" fill="white"/>
<path d="M57.048 143.6H62.2V152.528H70.104V143.6H75.256V166H70.104V156.624H62.2V166H57.048V143.6ZM93.9525 159.664H82.9445C83.1365 160.624 83.5312 161.339 84.1285 161.808C84.7472 162.277 85.5792 162.512 86.6245 162.512C87.5418 162.512 88.3418 162.363 89.0245 162.064C89.7072 161.765 90.3898 161.253 91.0725 160.528L93.5045 162.832C92.8858 163.877 91.9152 164.72 90.5925 165.36C89.2912 166 87.8725 166.32 86.3365 166.32C83.8192 166.32 81.8458 165.595 80.4165 164.144C78.9872 162.672 78.2725 160.645 78.2725 158.064C78.2725 155.461 78.9872 153.413 80.4165 151.92C81.8458 150.427 83.8085 149.68 86.3045 149.68C88.6938 149.68 90.5605 150.427 91.9045 151.92C93.2698 153.392 93.9525 155.429 93.9525 158.032V159.664ZM89.4725 156.432C89.4725 155.493 89.1845 154.757 88.6085 154.224C88.0325 153.669 87.2432 153.392 86.2405 153.392C85.3445 153.392 84.6085 153.68 84.0325 154.256C83.4565 154.811 83.0725 155.6 82.8805 156.624H89.4725V156.432ZM101.018 166.32C99.5889 166.32 98.4903 165.947 97.7223 165.2C96.9543 164.453 96.5703 163.376 96.5703 161.968V142.256H101.114V162.064C101.114 162.832 101.584 163.216 102.522 163.216C103.056 163.216 103.685 163.067 104.41 162.768L105.082 165.136C104.058 165.925 102.704 166.32 101.018 166.32ZM110.737 166.32C109.308 166.32 108.209 165.947 107.441 165.2C106.673 164.453 106.289 163.376 106.289 161.968V142.256H110.833V162.064C110.833 162.832 111.302 163.216 112.241 163.216C112.774 163.216 113.404 163.067 114.129 162.768L114.801 165.136C113.777 165.925 112.422 166.32 110.737 166.32ZM122.751 166.32C120.106 166.32 118.036 165.584 116.543 164.112C115.071 162.64 114.335 160.603 114.335 158C114.335 155.397 115.071 153.36 116.543 151.888C118.036 150.416 120.106 149.68 122.751 149.68C125.396 149.68 127.455 150.416 128.927 151.888C130.42 153.36 131.167 155.397 131.167 158C131.167 160.603 130.42 162.64 128.927 164.112C127.455 165.584 125.396 166.32 122.751 166.32ZM122.751 162.96C123.967 162.96 124.916 162.523 125.599 161.648C126.282 160.773 126.623 159.557 126.623 158C126.623 156.443 126.282 155.227 125.599 154.352C124.916 153.477 123.967 153.04 122.751 153.04C121.535 153.04 120.586 153.477 119.903 154.352C119.22 155.227 118.879 156.443 118.879 158C118.879 159.557 119.22 160.773 119.903 161.648C120.586 162.523 121.535 162.96 122.751 162.96ZM136.052 160.656C137.012 160.656 137.791 160.997 138.388 161.68C138.986 162.341 139.284 163.216 139.284 164.304C139.284 165.691 138.868 167.131 138.036 168.624C137.204 170.139 136.127 171.365 134.804 172.304L132.756 169.968C133.29 169.563 133.78 169.029 134.228 168.368C134.698 167.728 135.06 167.035 135.316 166.288C135.252 166.309 135.156 166.32 135.028 166.32C134.41 166.32 133.876 166.085 133.428 165.616C133.002 165.125 132.788 164.496 132.788 163.728C132.788 162.811 133.087 162.075 133.684 161.52C134.303 160.944 135.092 160.656 136.052 160.656ZM150.298 143.6H158.042C160.73 143.6 162.767 144.219 164.154 145.456C165.562 146.672 166.266 148.475 166.266 150.864C166.266 153.381 165.551 155.291 164.122 156.592C162.714 157.893 160.634 158.544 157.882 158.544H155.45V166H150.298V143.6ZM158.234 154.48C159.215 154.48 159.962 154.181 160.474 153.584C160.986 152.987 161.242 152.123 161.242 150.992C161.242 149.904 160.965 149.083 160.41 148.528C159.877 147.973 159.077 147.696 158.01 147.696H155.45V154.48H158.234ZM183.953 159.664H172.945C173.137 160.624 173.531 161.339 174.129 161.808C174.747 162.277 175.579 162.512 176.625 162.512C177.542 162.512 178.342 162.363 179.025 162.064C179.707 161.765 180.39 161.253 181.073 160.528L183.505 162.832C182.886 163.877 181.915 164.72 180.593 165.36C179.291 166 177.873 166.32 176.337 166.32C173.819 166.32 171.846 165.595 170.417 164.144C168.987 162.672 168.273 160.645 168.273 158.064C168.273 155.461 168.987 153.413 170.417 151.92C171.846 150.427 173.809 149.68 176.305 149.68C178.694 149.68 180.561 150.427 181.905 151.92C183.27 153.392 183.953 155.429 183.953 158.032V159.664ZM179.473 156.432C179.473 155.493 179.185 154.757 178.609 154.224C178.033 153.669 177.243 153.392 176.241 153.392C175.345 153.392 174.609 153.68 174.033 154.256C173.457 154.811 173.073 155.6 172.881 156.624H179.473V156.432ZM193.674 166.32C191.946 166.32 190.602 165.872 189.642 164.976C188.704 164.08 188.234 162.821 188.234 161.2V153.36H185.322V150H188.234V145.936L192.65 144.656H192.778V150H197.45V153.36H192.778V160.496C192.778 161.349 192.992 161.979 193.418 162.384C193.845 162.768 194.506 162.96 195.402 162.96C196.256 162.96 197.045 162.821 197.77 162.544L197.962 165.616C196.896 166.085 195.466 166.32 193.674 166.32ZM215.421 159.664H204.413C204.605 160.624 205 161.339 205.597 161.808C206.216 162.277 207.048 162.512 208.093 162.512C209.011 162.512 209.811 162.363 210.493 162.064C211.176 161.765 211.859 161.253 212.541 160.528L214.973 162.832C214.355 163.877 213.384 164.72 212.061 165.36C210.76 166 209.341 166.32 207.805 166.32C205.288 166.32 203.315 165.595 201.885 164.144C200.456 162.672 199.741 160.645 199.741 158.064C199.741 155.461 200.456 153.413 201.885 151.92C203.315 150.427 205.277 149.68 207.773 149.68C210.163 149.68 212.029 150.427 213.373 151.92C214.739 153.392 215.421 155.429 215.421 158.032V159.664ZM210.941 156.432C210.941 155.493 210.653 154.757 210.077 154.224C209.501 153.669 208.712 153.392 207.709 153.392C206.813 153.392 206.077 153.68 205.501 154.256C204.925 154.811 204.541 155.6 204.349 156.624H210.941V156.432ZM217.975 153.904C217.975 152.091 217.943 150.789 217.879 150H222.199C222.284 150.832 222.327 151.771 222.327 152.816V153.136H222.455C222.86 152.091 223.586 151.259 224.631 150.64C225.698 150 226.914 149.68 228.279 149.68C228.556 149.68 228.887 149.712 229.271 149.776V153.328C229.228 153.307 229.015 153.296 228.631 153.296C227.543 153.296 226.53 153.573 225.591 154.128C224.652 154.683 223.906 155.419 223.351 156.336C222.796 157.253 222.519 158.245 222.519 159.312V166H217.975V153.904ZM231.066 143.6H236.506L235.994 158.736H231.578L231.066 143.6ZM233.786 166.32C232.826 166.32 232.047 166.043 231.45 165.488C230.852 164.912 230.554 164.176 230.554 163.28C230.554 162.363 230.852 161.627 231.45 161.072C232.047 160.496 232.826 160.208 233.786 160.208C234.746 160.208 235.524 160.496 236.122 161.072C236.719 161.627 237.018 162.363 237.018 163.28C237.018 164.176 236.719 164.912 236.122 165.488C235.524 166.043 234.746 166.32 233.786 166.32Z" fill="#4F3F44"/>
<path d="M70.282 181.4L67.636 194H65.17L62.866 184.622L60.562 194H58.096L55.45 181.4H58.204L59.572 189.734L61.642 181.4H64.09L66.16 189.734L67.528 181.4H70.282ZM71.5964 180.644H73.9004V186.062C74.1764 185.678 74.5604 185.378 75.0524 185.162C75.5564 184.934 76.1024 184.82 76.6904 184.82C77.7104 184.82 78.5264 185.156 79.1384 185.828C79.7624 186.5 80.0744 187.424 80.0744 188.6V194H77.7704V188.762C77.7704 188.066 77.6204 187.52 77.3204 187.124C77.0204 186.728 76.6064 186.53 76.0784 186.53C75.4184 186.53 74.8904 186.764 74.4944 187.232C74.0984 187.688 73.9004 188.312 73.9004 189.104V194H71.5964V180.644ZM84.5633 194.18C83.9753 194.18 83.4473 194.06 82.9793 193.82C82.5113 193.568 82.1453 193.226 81.8813 192.794C81.6173 192.35 81.4853 191.858 81.4853 191.318C81.4853 190.394 81.8513 189.686 82.5833 189.194C83.3153 188.702 84.3593 188.456 85.7153 188.456H87.1193V188.078C87.1193 187.598 86.9753 187.232 86.6873 186.98C86.4113 186.716 86.0153 186.584 85.4993 186.584C84.9593 186.584 84.4433 186.68 83.9513 186.872C83.4593 187.064 83.0573 187.328 82.7453 187.664L81.7373 186.332C82.2293 185.864 82.8113 185.498 83.4833 185.234C84.1553 184.958 84.8513 184.82 85.5713 184.82C86.7713 184.82 87.7133 185.102 88.3973 185.666C89.0813 186.23 89.4233 187.01 89.4233 188.006V192.11C89.4233 192.386 89.4413 192.71 89.4773 193.082C89.5253 193.454 89.5793 193.76 89.6393 194H87.6053C87.5333 193.844 87.4793 193.694 87.4433 193.55C87.4073 193.394 87.3773 193.184 87.3533 192.92H87.3173C86.6333 193.76 85.7153 194.18 84.5633 194.18ZM85.1213 192.452C85.6973 192.452 86.1713 192.308 86.5433 192.02C86.9273 191.72 87.1193 191.342 87.1193 190.886V189.986H85.6433C85.0313 189.986 84.5573 190.1 84.2213 190.328C83.8973 190.556 83.7353 190.886 83.7353 191.318C83.7353 191.678 83.8553 191.96 84.0953 192.164C84.3473 192.356 84.6893 192.452 85.1213 192.452ZM95.2607 194.18C94.3367 194.18 93.6167 193.928 93.1007 193.424C92.5847 192.92 92.3267 192.212 92.3267 191.3V186.71H90.6887V185H92.3267V182.678L94.5587 182.03H94.6307V185H97.2407V186.71H94.6307V190.958C94.6307 191.474 94.7507 191.852 94.9907 192.092C95.2307 192.332 95.5967 192.452 96.0887 192.452C96.5567 192.452 96.9947 192.38 97.4027 192.236L97.5107 193.802C96.9707 194.054 96.2207 194.18 95.2607 194.18ZM114.724 185L112.42 194H110.404L108.604 187.484L106.804 194H104.77L102.466 185H104.86L105.994 190.598L107.578 185H109.612L111.196 190.598L112.33 185H114.724ZM120.161 194.18C118.709 194.18 117.575 193.766 116.759 192.938C115.943 192.11 115.535 190.964 115.535 189.5C115.535 188.036 115.943 186.89 116.759 186.062C117.575 185.234 118.709 184.82 120.161 184.82C121.613 184.82 122.747 185.234 123.563 186.062C124.391 186.89 124.805 188.036 124.805 189.5C124.805 190.964 124.391 192.11 123.563 192.938C122.747 193.766 121.613 194.18 120.161 194.18ZM120.161 192.47C120.893 192.47 121.469 192.206 121.889 191.678C122.309 191.15 122.519 190.424 122.519 189.5C122.519 188.576 122.309 187.85 121.889 187.322C121.469 186.794 120.893 186.53 120.161 186.53C119.429 186.53 118.853 186.794 118.433 187.322C118.025 187.85 117.821 188.576 117.821 189.5C117.821 190.424 118.025 191.15 118.433 191.678C118.853 192.206 119.429 192.47 120.161 192.47ZM129.397 194.18C128.365 194.18 127.579 193.832 127.039 193.136C126.511 192.44 126.247 191.42 126.247 190.076V185H128.551V190.094C128.551 190.862 128.677 191.426 128.929 191.786C129.181 192.146 129.571 192.326 130.099 192.326C130.735 192.326 131.257 192.086 131.665 191.606C132.073 191.114 132.277 190.508 132.277 189.788V185H134.581V191.714C134.581 192.326 134.629 193.088 134.725 194H132.547C132.451 193.46 132.397 192.932 132.385 192.416H132.349C132.133 192.956 131.755 193.388 131.215 193.712C130.687 194.024 130.081 194.18 129.397 194.18ZM138.857 194.18C138.089 194.18 137.501 193.976 137.093 193.568C136.697 193.148 136.499 192.548 136.499 191.768V180.644H138.785V191.804C138.785 192.068 138.851 192.266 138.983 192.398C139.127 192.518 139.337 192.578 139.613 192.578C139.889 192.578 140.231 192.5 140.639 192.344L140.981 193.568C140.441 193.976 139.733 194.18 138.857 194.18ZM144.819 194.18C143.643 194.18 142.713 193.754 142.029 192.902C141.357 192.038 141.021 190.856 141.021 189.356C141.021 188.444 141.177 187.646 141.489 186.962C141.801 186.278 142.245 185.75 142.821 185.378C143.409 185.006 144.093 184.82 144.873 184.82C145.401 184.82 145.863 184.91 146.259 185.09C146.667 185.27 147.021 185.546 147.321 185.918H147.357V180.644H149.643V191.606C149.643 192.854 149.661 193.652 149.697 194H147.537C147.525 193.796 147.519 193.4 147.519 192.812H147.483C147.207 193.22 146.823 193.55 146.331 193.802C145.851 194.054 145.347 194.18 144.819 194.18ZM145.269 192.416C145.905 192.416 146.409 192.236 146.781 191.876C147.165 191.504 147.357 191.018 147.357 190.418V188.564C147.357 187.976 147.159 187.49 146.763 187.106C146.367 186.722 145.869 186.53 145.269 186.53C144.633 186.53 144.147 186.776 143.811 187.268C143.475 187.76 143.307 188.468 143.307 189.392C143.307 190.364 143.475 191.114 143.811 191.642C144.147 192.158 144.633 192.416 145.269 192.416ZM163.629 185L160.191 194.414C159.819 195.422 159.303 196.178 158.643 196.682C157.995 197.198 157.215 197.456 156.303 197.456C155.823 197.456 155.331 197.39 154.827 197.258V195.44C154.971 195.488 155.151 195.53 155.367 195.566C155.583 195.602 155.775 195.62 155.943 195.62C156.471 195.62 156.921 195.434 157.293 195.062C157.677 194.702 158.019 194.126 158.319 193.334L154.971 185H157.419L159.399 190.76L161.181 185H163.629ZM168.888 194.18C167.436 194.18 166.302 193.766 165.486 192.938C164.67 192.11 164.262 190.964 164.262 189.5C164.262 188.036 164.67 186.89 165.486 186.062C166.302 185.234 167.436 184.82 168.888 184.82C170.34 184.82 171.474 185.234 172.29 186.062C173.118 186.89 173.532 188.036 173.532 189.5C173.532 190.964 173.118 192.11 172.29 192.938C171.474 193.766 170.34 194.18 168.888 194.18ZM168.888 192.47C169.62 192.47 170.196 192.206 170.616 191.678C171.036 191.15 171.246 190.424 171.246 189.5C171.246 188.576 171.036 187.85 170.616 187.322C170.196 186.794 169.62 186.53 168.888 186.53C168.156 186.53 167.58 186.794 167.16 187.322C166.752 187.85 166.548 188.576 166.548 189.5C166.548 190.424 166.752 191.15 167.16 191.678C167.58 192.206 168.156 192.47 168.888 192.47ZM178.123 194.18C177.091 194.18 176.305 193.832 175.765 193.136C175.237 192.44 174.973 191.42 174.973 190.076V185H177.277V190.094C177.277 190.862 177.403 191.426 177.655 191.786C177.907 192.146 178.297 192.326 178.825 192.326C179.461 192.326 179.983 192.086 180.391 191.606C180.799 191.114 181.003 190.508 181.003 189.788V185H183.307V191.714C183.307 192.326 183.355 193.088 183.451 194H181.273C181.177 193.46 181.123 192.932 181.111 192.416H181.075C180.859 192.956 180.481 193.388 179.941 193.712C179.413 194.024 178.807 194.18 178.123 194.18ZM191.784 194.18C191.016 194.18 190.428 193.976 190.02 193.568C189.624 193.148 189.426 192.548 189.426 191.768V180.644H191.712V191.804C191.712 192.068 191.778 192.266 191.91 192.398C192.054 192.518 192.264 192.578 192.54 192.578C192.816 192.578 193.158 192.5 193.566 192.344L193.908 193.568C193.368 193.976 192.66 194.18 191.784 194.18ZM196.262 183.956C195.818 183.956 195.464 183.836 195.2 183.596C194.936 183.344 194.804 183.014 194.804 182.606C194.804 182.198 194.936 181.874 195.2 181.634C195.464 181.382 195.818 181.256 196.262 181.256C196.706 181.256 197.06 181.382 197.324 181.634C197.6 181.874 197.738 182.198 197.738 182.606C197.738 183.014 197.606 183.344 197.342 183.596C197.078 183.836 196.718 183.956 196.262 183.956ZM195.128 185H197.414V194H195.128V185ZM205.684 194L203.02 189.806L201.94 190.868V194H199.636V180.644H201.94V188.114L205.108 185H207.934L204.604 188.258L208.276 194H205.684ZM217.18 190.346H210.916C211.108 191.618 211.846 192.254 213.13 192.254C213.658 192.254 214.114 192.164 214.498 191.984C214.894 191.804 215.278 191.504 215.65 191.084L216.892 192.272C216.544 192.848 216.016 193.31 215.308 193.658C214.612 194.006 213.844 194.18 213.004 194.18C211.6 194.18 210.508 193.772 209.728 192.956C208.948 192.128 208.558 190.988 208.558 189.536C208.558 188.072 208.948 186.92 209.728 186.08C210.52 185.24 211.606 184.82 212.986 184.82C214.306 184.82 215.332 185.234 216.064 186.062C216.808 186.89 217.18 188.042 217.18 189.518V190.346ZM214.93 188.672C214.93 188.06 214.75 187.58 214.39 187.232C214.042 186.872 213.556 186.692 212.932 186.692C212.368 186.692 211.912 186.878 211.564 187.25C211.216 187.61 210.994 188.12 210.898 188.78H214.93V188.672ZM226.727 194.18C225.803 194.18 225.083 193.928 224.567 193.424C224.051 192.92 223.793 192.212 223.793 191.3V186.71H222.155V185H223.793V182.678L226.025 182.03H226.097V185H228.707V186.71H226.097V190.958C226.097 191.474 226.217 191.852 226.457 192.092C226.697 192.332 227.063 192.452 227.555 192.452C228.023 192.452 228.461 192.38 228.869 192.236L228.977 193.802C228.437 194.054 227.687 194.18 226.727 194.18ZM234.155 194.18C232.703 194.18 231.569 193.766 230.753 192.938C229.937 192.11 229.529 190.964 229.529 189.5C229.529 188.036 229.937 186.89 230.753 186.062C231.569 185.234 232.703 184.82 234.155 184.82C235.607 184.82 236.741 185.234 237.557 186.062C238.385 186.89 238.799 188.036 238.799 189.5C238.799 190.964 238.385 192.11 237.557 192.938C236.741 193.766 235.607 194.18 234.155 194.18ZM234.155 192.47C234.887 192.47 235.463 192.206 235.883 191.678C236.303 191.15 236.513 190.424 236.513 189.5C236.513 188.576 236.303 187.85 235.883 187.322C235.463 186.794 234.887 186.53 234.155 186.53C233.423 186.53 232.847 186.794 232.427 187.322C232.019 187.85 231.815 188.576 231.815 189.5C231.815 190.424 232.019 191.15 232.427 191.678C232.847 192.206 233.423 192.47 234.155 192.47ZM247.862 194.18C246.686 194.18 245.756 193.754 245.072 192.902C244.4 192.038 244.064 190.856 244.064 189.356C244.064 188.444 244.22 187.646 244.532 186.962C244.844 186.278 245.288 185.75 245.864 185.378C246.452 185.006 247.136 184.82 247.916 184.82C248.444 184.82 248.906 184.91 249.302 185.09C249.71 185.27 250.064 185.546 250.364 185.918H250.4V180.644H252.686V191.606C252.686 192.854 252.704 193.652 252.74 194H250.58C250.568 193.796 250.562 193.4 250.562 192.812H250.526C250.25 193.22 249.866 193.55 249.374 193.802C248.894 194.054 248.39 194.18 247.862 194.18ZM248.312 192.416C248.948 192.416 249.452 192.236 249.824 191.876C250.208 191.504 250.4 191.018 250.4 190.418V188.564C250.4 187.976 250.202 187.49 249.806 187.106C249.41 186.722 248.912 186.53 248.312 186.53C247.676 186.53 247.19 186.776 246.854 187.268C246.518 187.76 246.35 188.468 246.35 189.392C246.35 190.364 246.518 191.114 246.854 191.642C247.19 192.158 247.676 192.416 248.312 192.416ZM258.817 194.18C257.365 194.18 256.231 193.766 255.415 192.938C254.599 192.11 254.191 190.964 254.191 189.5C254.191 188.036 254.599 186.89 255.415 186.062C256.231 185.234 257.365 184.82 258.817 184.82C260.269 184.82 261.403 185.234 262.219 186.062C263.047 186.89 263.461 188.036 263.461 189.5C263.461 190.964 263.047 192.11 262.219 192.938C261.403 193.766 260.269 194.18 258.817 194.18ZM258.817 192.47C259.549 192.47 260.125 192.206 260.545 191.678C260.965 191.15 261.175 190.424 261.175 189.5C261.175 188.576 260.965 187.85 260.545 187.322C260.125 186.794 259.549 186.53 258.817 186.53C258.085 186.53 257.509 186.794 257.089 187.322C256.681 187.85 256.477 188.576 256.477 189.5C256.477 190.424 256.681 191.15 257.089 191.678C257.509 192.206 258.085 192.47 258.817 192.47ZM273.028 194.18C272.104 194.18 271.384 193.928 270.868 193.424C270.352 192.92 270.094 192.212 270.094 191.3V186.71H268.456V185H270.094V182.678L272.326 182.03H272.398V185H275.008V186.71H272.398V190.958C272.398 191.474 272.518 191.852 272.758 192.092C272.998 192.332 273.364 192.452 273.856 192.452C274.324 192.452 274.762 192.38 275.17 192.236L275.278 193.802C274.738 194.054 273.988 194.18 273.028 194.18ZM280.456 194.18C279.004 194.18 277.87 193.766 277.054 192.938C276.238 192.11 275.83 190.964 275.83 189.5C275.83 188.036 276.238 186.89 277.054 186.062C277.87 185.234 279.004 184.82 280.456 184.82C281.908 184.82 283.042 185.234 283.858 186.062C284.686 186.89 285.1 188.036 285.1 189.5C285.1 190.964 284.686 192.11 283.858 192.938C283.042 193.766 281.908 194.18 280.456 194.18ZM280.456 192.47C281.188 192.47 281.764 192.206 282.184 191.678C282.604 191.15 282.814 190.424 282.814 189.5C282.814 188.576 282.604 187.85 282.184 187.322C281.764 186.794 281.188 186.53 280.456 186.53C279.724 186.53 279.148 186.794 278.728 187.322C278.32 187.85 278.116 188.576 278.116 189.5C278.116 190.424 278.32 191.15 278.728 191.678C279.148 192.206 279.724 192.47 280.456 192.47ZM289.962 194.18C288.786 194.18 287.856 193.754 287.172 192.902C286.5 192.038 286.164 190.856 286.164 189.356C286.164 188.444 286.32 187.646 286.632 186.962C286.944 186.278 287.388 185.75 287.964 185.378C288.552 185.006 289.236 184.82 290.016 184.82C290.544 184.82 291.006 184.91 291.402 185.09C291.81 185.27 292.164 185.546 292.464 185.918H292.5V180.644H294.786V191.606C294.786 192.854 294.804 193.652 294.84 194H292.68C292.668 193.796 292.662 193.4 292.662 192.812H292.626C292.35 193.22 291.966 193.55 291.474 193.802C290.994 194.054 290.49 194.18 289.962 194.18ZM290.412 192.416C291.048 192.416 291.552 192.236 291.924 191.876C292.308 191.504 292.5 191.018 292.5 190.418V188.564C292.5 187.976 292.302 187.49 291.906 187.106C291.51 186.722 291.012 186.53 290.412 186.53C289.776 186.53 289.29 186.776 288.954 187.268C288.618 187.76 288.45 188.468 288.45 189.392C288.45 190.364 288.618 191.114 288.954 191.642C289.29 192.158 289.776 192.416 290.412 192.416ZM299.333 194.18C298.745 194.18 298.217 194.06 297.749 193.82C297.281 193.568 296.915 193.226 296.651 192.794C296.387 192.35 296.255 191.858 296.255 191.318C296.255 190.394 296.621 189.686 297.353 189.194C298.085 188.702 299.129 188.456 300.485 188.456H301.889V188.078C301.889 187.598 301.745 187.232 301.457 186.98C301.181 186.716 300.785 186.584 300.269 186.584C299.729 186.584 299.213 186.68 298.721 186.872C298.229 187.064 297.827 187.328 297.515 187.664L296.507 186.332C296.999 185.864 297.581 185.498 298.253 185.234C298.925 184.958 299.621 184.82 300.341 184.82C301.541 184.82 302.483 185.102 303.167 185.666C303.851 186.23 304.193 187.01 304.193 188.006V192.11C304.193 192.386 304.211 192.71 304.247 193.082C304.295 193.454 304.349 193.76 304.409 194H302.375C302.303 193.844 302.249 193.694 302.213 193.55C302.177 193.394 302.147 193.184 302.123 192.92H302.087C301.403 193.76 300.485 194.18 299.333 194.18ZM299.891 192.452C300.467 192.452 300.941 192.308 301.313 192.02C301.697 191.72 301.889 191.342 301.889 190.886V189.986H300.413C299.801 189.986 299.327 190.1 298.991 190.328C298.667 190.556 298.505 190.886 298.505 191.318C298.505 191.678 298.625 191.96 298.865 192.164C299.117 192.356 299.459 192.452 299.891 192.452ZM314.098 185L310.66 194.414C310.288 195.422 309.772 196.178 309.112 196.682C308.464 197.198 307.684 197.456 306.772 197.456C306.292 197.456 305.8 197.39 305.296 197.258V195.44C305.44 195.488 305.62 195.53 305.836 195.566C306.052 195.602 306.244 195.62 306.412 195.62C306.94 195.62 307.39 195.434 307.762 195.062C308.146 194.702 308.488 194.126 308.788 193.334L305.44 185H307.888L309.868 190.76L311.65 185H314.098ZM317.426 190.742C317.39 190.562 317.372 190.34 317.372 190.076C317.372 189.584 317.48 189.122 317.696 188.69C317.924 188.258 318.254 187.748 318.686 187.16C319.082 186.632 319.376 186.188 319.568 185.828C319.76 185.456 319.856 185.072 319.856 184.676C319.856 184.172 319.712 183.782 319.424 183.506C319.148 183.23 318.764 183.092 318.272 183.092C317.84 183.092 317.414 183.236 316.994 183.524C316.586 183.8 316.244 184.178 315.968 184.658L314.744 183.254C315.092 182.618 315.602 182.12 316.274 181.76C316.946 181.4 317.708 181.22 318.56 181.22C319.748 181.22 320.684 181.514 321.368 182.102C322.052 182.69 322.394 183.488 322.394 184.496C322.394 185.036 322.268 185.528 322.016 185.972C321.764 186.404 321.392 186.914 320.9 187.502C320.456 188.03 320.12 188.492 319.892 188.888C319.664 189.272 319.55 189.692 319.55 190.148C319.55 190.28 319.562 190.478 319.586 190.742H317.426ZM318.596 194.18C318.152 194.18 317.792 194.054 317.516 193.802C317.252 193.538 317.12 193.202 317.12 192.794C317.12 192.386 317.252 192.056 317.516 191.804C317.792 191.54 318.152 191.408 318.596 191.408C319.028 191.408 319.382 191.54 319.658 191.804C319.934 192.056 320.072 192.386 320.072 192.794C320.072 193.202 319.934 193.538 319.658 193.802C319.382 194.054 319.028 194.18 318.596 194.18Z" fill="#4F3F44"/>
<path d="M56.088 645.8H58.392V650.376H62.696V645.8H64.984V657H62.696V652.216H58.392V657H56.088V645.8ZM70.7021 657.16C69.4115 657.16 68.4035 656.792 67.6781 656.056C66.9528 655.32 66.5901 654.301 66.5901 653C66.5901 651.699 66.9528 650.68 67.6781 649.944C68.4035 649.208 69.4115 648.84 70.7021 648.84C71.9928 648.84 73.0008 649.208 73.7261 649.944C74.4621 650.68 74.8301 651.699 74.8301 653C74.8301 654.301 74.4621 655.32 73.7261 656.056C73.0008 656.792 71.9928 657.16 70.7021 657.16ZM70.7021 655.64C71.3528 655.64 71.8648 655.405 72.2381 654.936C72.6115 654.467 72.7981 653.821 72.7981 653C72.7981 652.179 72.6115 651.533 72.2381 651.064C71.8648 650.595 71.3528 650.36 70.7021 650.36C70.0515 650.36 69.5395 650.595 69.1661 651.064C68.8035 651.533 68.6221 652.179 68.6221 653C68.6221 653.821 68.8035 654.467 69.1661 654.936C69.5395 655.405 70.0515 655.64 70.7021 655.64ZM86.4478 649L84.3998 657H82.6078L81.0078 651.208L79.4078 657H77.5998L75.5518 649H77.6798L78.6878 653.976L80.0958 649H81.9038L83.3118 653.976L84.3198 649H86.4478ZM92.5666 648.072C92.172 648.072 91.8573 647.965 91.6226 647.752C91.388 647.528 91.2706 647.235 91.2706 646.872C91.2706 646.509 91.388 646.221 91.6226 646.008C91.8573 645.784 92.172 645.672 92.5666 645.672C92.9613 645.672 93.276 645.784 93.5106 646.008C93.756 646.221 93.8786 646.509 93.8786 646.872C93.8786 647.235 93.7613 647.528 93.5266 647.752C93.292 647.965 92.972 648.072 92.5666 648.072ZM91.5586 649H93.5906V657H91.5586V649ZM98.1416 657.16C97.4483 657.16 96.835 657.021 96.3016 656.744C95.779 656.467 95.411 656.099 95.1976 655.64L96.4616 654.76C96.6536 655.027 96.899 655.24 97.1976 655.4C97.4963 655.56 97.8003 655.64 98.1096 655.64C98.4723 655.64 98.771 655.549 99.0056 655.368C99.2403 655.176 99.3576 654.941 99.3576 654.664C99.3576 654.44 99.2723 654.264 99.1016 654.136C98.931 653.997 98.5683 653.821 98.0136 653.608C97.043 653.235 96.3603 652.856 95.9656 652.472C95.571 652.088 95.3736 651.613 95.3736 651.048C95.3736 650.387 95.6403 649.853 96.1736 649.448C96.7176 649.043 97.4376 648.84 98.3336 648.84C98.931 648.84 99.4696 648.957 99.9496 649.192C100.43 649.416 100.819 649.741 101.118 650.168L99.9336 651.048C99.5603 650.589 99.0536 650.36 98.4136 650.36C98.0936 650.36 97.843 650.419 97.6616 650.536C97.491 650.643 97.4056 650.803 97.4056 651.016C97.4056 651.165 97.443 651.288 97.5176 651.384C97.5923 651.48 97.7363 651.581 97.9496 651.688C98.163 651.795 98.5043 651.939 98.9736 652.12C99.603 652.365 100.088 652.605 100.43 652.84C100.782 653.064 101.027 653.315 101.166 653.592C101.315 653.859 101.39 654.184 101.39 654.568C101.39 655.08 101.251 655.533 100.974 655.928C100.707 656.312 100.328 656.616 99.8376 656.84C99.347 657.053 98.7816 657.16 98.1416 657.16ZM113.435 649L110.379 657.368C110.048 658.264 109.589 658.936 109.003 659.384C108.427 659.843 107.733 660.072 106.923 660.072C106.496 660.072 106.059 660.013 105.611 659.896V658.28C105.739 658.323 105.899 658.36 106.09 658.392C106.283 658.424 106.453 658.44 106.603 658.44C107.072 658.44 107.472 658.275 107.803 657.944C108.144 657.624 108.448 657.112 108.715 656.408L105.739 649H107.914L109.674 654.12L111.259 649H113.435ZM118.108 657.16C116.818 657.16 115.81 656.792 115.084 656.056C114.359 655.32 113.996 654.301 113.996 653C113.996 651.699 114.359 650.68 115.084 649.944C115.81 649.208 116.818 648.84 118.108 648.84C119.399 648.84 120.407 649.208 121.132 649.944C121.868 650.68 122.236 651.699 122.236 653C122.236 654.301 121.868 655.32 121.132 656.056C120.407 656.792 119.399 657.16 118.108 657.16ZM118.108 655.64C118.759 655.64 119.271 655.405 119.644 654.936C120.018 654.467 120.204 653.821 120.204 653C120.204 652.179 120.018 651.533 119.644 651.064C119.271 650.595 118.759 650.36 118.108 650.36C117.458 650.36 116.946 650.595 116.572 651.064C116.21 651.533 116.028 652.179 116.028 653C116.028 653.821 116.21 654.467 116.572 654.936C116.946 655.405 117.458 655.64 118.108 655.64ZM126.318 657.16C125.401 657.16 124.702 656.851 124.222 656.232C123.753 655.613 123.518 654.707 123.518 653.512V649H125.566V653.528C125.566 654.211 125.678 654.712 125.902 655.032C126.126 655.352 126.473 655.512 126.942 655.512C127.507 655.512 127.971 655.299 128.334 654.872C128.697 654.435 128.878 653.896 128.878 653.256V649H130.926V654.968C130.926 655.512 130.969 656.189 131.054 657H129.118C129.033 656.52 128.985 656.051 128.974 655.592H128.942C128.75 656.072 128.414 656.456 127.934 656.744C127.465 657.021 126.926 657.16 126.318 657.16ZM132.583 650.952C132.583 650.045 132.567 649.395 132.535 649H134.471C134.513 649.416 134.535 649.885 134.535 650.408V650.568H134.599C134.801 650.045 135.159 649.629 135.671 649.32C136.183 649 136.769 648.84 137.431 648.84C137.559 648.84 137.719 648.856 137.911 648.888V650.504C137.868 650.483 137.74 650.472 137.527 650.472C137.015 650.472 136.535 650.611 136.087 650.888C135.649 651.165 135.297 651.539 135.031 652.008C134.764 652.467 134.631 652.963 134.631 653.496V657H132.583V650.952ZM149.909 649V656.68C149.909 658.035 149.573 659.053 148.901 659.736C148.229 660.429 147.231 660.776 145.909 660.776C145.29 660.776 144.703 660.701 144.149 660.552C143.605 660.403 143.119 660.189 142.693 659.912L143.381 658.52C143.765 658.712 144.17 658.861 144.597 658.968C145.023 659.085 145.429 659.144 145.812 659.144C146.538 659.144 147.077 658.915 147.429 658.456C147.781 658.008 147.957 657.325 147.957 656.408V656.152C147.743 656.44 147.45 656.664 147.077 656.824C146.703 656.973 146.261 657.048 145.749 657.048C144.639 657.048 143.775 656.685 143.157 655.96C142.549 655.235 142.245 654.211 142.245 652.888C142.245 651.608 142.538 650.616 143.125 649.912C143.711 649.197 144.538 648.84 145.605 648.84C146.714 648.84 147.519 649.229 148.021 650.008H148.053L148.213 649H149.909ZM147.877 652.504C147.877 651.811 147.727 651.283 147.429 650.92C147.13 650.547 146.698 650.36 146.133 650.36C145.535 650.36 145.077 650.584 144.757 651.032C144.437 651.469 144.277 652.104 144.277 652.936C144.277 653.768 144.431 654.397 144.741 654.824C145.061 655.251 145.525 655.464 146.133 655.464C146.698 655.464 147.13 655.299 147.429 654.968C147.727 654.627 147.877 654.147 147.877 653.528V652.504ZM151.552 650.952C151.552 650.045 151.536 649.395 151.504 649H153.44C153.482 649.416 153.504 649.885 153.504 650.408V650.568H153.568C153.77 650.045 154.128 649.629 154.64 649.32C155.152 649 155.738 648.84 156.4 648.84C156.528 648.84 156.688 648.856 156.88 648.888V650.504C156.837 650.483 156.709 650.472 156.496 650.472C155.984 650.472 155.504 650.611 155.056 650.888C154.618 651.165 154.266 651.539 154 652.008C153.733 652.467 153.6 652.963 153.6 653.496V657H151.552V650.952ZM161.515 657.16C160.224 657.16 159.216 656.792 158.491 656.056C157.765 655.32 157.403 654.301 157.403 653C157.403 651.699 157.765 650.68 158.491 649.944C159.216 649.208 160.224 648.84 161.515 648.84C162.805 648.84 163.813 649.208 164.539 649.944C165.275 650.68 165.643 651.699 165.643 653C165.643 654.301 165.275 655.32 164.539 656.056C163.813 656.792 162.805 657.16 161.515 657.16ZM161.515 655.64C162.165 655.64 162.677 655.405 163.051 654.936C163.424 654.467 163.611 653.821 163.611 653C163.611 652.179 163.424 651.533 163.051 651.064C162.677 650.595 162.165 650.36 161.515 650.36C160.864 650.36 160.352 650.595 159.979 651.064C159.616 651.533 159.435 652.179 159.435 653C159.435 653.821 159.616 654.467 159.979 654.936C160.352 655.405 160.864 655.64 161.515 655.64ZM177.26 649L175.212 657H173.42L171.82 651.208L170.22 657H168.412L166.364 649H168.492L169.5 653.976L170.908 649H172.716L174.124 653.976L175.132 649H177.26ZM181.725 657.16C180.903 657.16 180.263 656.936 179.805 656.488C179.346 656.04 179.117 655.411 179.117 654.6V650.52H177.661V649H179.117V646.936L181.101 646.36H181.165V649H183.485V650.52H181.165V654.296C181.165 654.755 181.271 655.091 181.485 655.304C181.698 655.517 182.023 655.624 182.461 655.624C182.877 655.624 183.266 655.56 183.629 655.432L183.725 656.824C183.245 657.048 182.578 657.16 181.725 657.16ZM184.956 645.128H187.004V649.944C187.249 649.603 187.59 649.336 188.028 649.144C188.476 648.941 188.961 648.84 189.484 648.84C190.39 648.84 191.116 649.139 191.66 649.736C192.214 650.333 192.492 651.155 192.492 652.2V657H190.444V652.344C190.444 651.725 190.31 651.24 190.044 650.888C189.777 650.536 189.409 650.36 188.94 650.36C188.353 650.36 187.884 650.568 187.532 650.984C187.18 651.389 187.004 651.944 187.004 652.648V657H184.956V645.128ZM201.256 657.16C200.435 657.16 199.795 656.936 199.336 656.488C198.877 656.04 198.648 655.411 198.648 654.6V650.52H197.192V649H198.648V646.936L200.632 646.36H200.696V649H203.016V650.52H200.696V654.296C200.696 654.755 200.803 655.091 201.016 655.304C201.229 655.517 201.555 655.624 201.992 655.624C202.408 655.624 202.797 655.56 203.16 655.432L203.256 656.824C202.776 657.048 202.109 657.16 201.256 657.16ZM207.858 657.16C206.568 657.16 205.56 656.792 204.834 656.056C204.109 655.32 203.746 654.301 203.746 653C203.746 651.699 204.109 650.68 204.834 649.944C205.56 649.208 206.568 648.84 207.858 648.84C209.149 648.84 210.157 649.208 210.882 649.944C211.618 650.68 211.986 651.699 211.986 653C211.986 654.301 211.618 655.32 210.882 656.056C210.157 656.792 209.149 657.16 207.858 657.16ZM207.858 655.64C208.509 655.64 209.021 655.405 209.394 654.936C209.768 654.467 209.954 653.821 209.954 653C209.954 652.179 209.768 651.533 209.394 651.064C209.021 650.595 208.509 650.36 207.858 650.36C207.208 650.36 206.696 650.595 206.322 651.064C205.96 651.533 205.778 652.179 205.778 653C205.778 653.821 205.96 654.467 206.322 654.936C206.696 655.405 207.208 655.64 207.858 655.64ZM216.308 657.16C215.263 657.16 214.436 656.781 213.828 656.024C213.231 655.256 212.932 654.205 212.932 652.872C212.932 652.061 213.071 651.352 213.348 650.744C213.625 650.136 214.02 649.667 214.532 649.336C215.055 649.005 215.663 648.84 216.356 648.84C216.825 648.84 217.236 648.92 217.588 649.08C217.951 649.24 218.265 649.485 218.532 649.816H218.564V645.128H220.596V654.872C220.596 655.981 220.612 656.691 220.644 657H218.724C218.713 656.819 218.708 656.467 218.708 655.944H218.676C218.431 656.307 218.089 656.6 217.652 656.824C217.225 657.048 216.777 657.16 216.308 657.16ZM216.708 655.592C217.273 655.592 217.721 655.432 218.052 655.112C218.393 654.781 218.564 654.349 218.564 653.816V652.168C218.564 651.645 218.388 651.213 218.036 650.872C217.684 650.531 217.241 650.36 216.708 650.36C216.143 650.36 215.711 650.579 215.412 651.016C215.113 651.453 214.964 652.083 214.964 652.904C214.964 653.768 215.113 654.435 215.412 654.904C215.711 655.363 216.143 655.592 216.708 655.592ZM224.638 657.16C224.115 657.16 223.646 657.053 223.23 656.84C222.814 656.616 222.489 656.312 222.254 655.928C222.019 655.533 221.902 655.096 221.902 654.616C221.902 653.795 222.227 653.165 222.878 652.728C223.529 652.291 224.457 652.072 225.662 652.072H226.91V651.736C226.91 651.309 226.782 650.984 226.526 650.76C226.281 650.525 225.929 650.408 225.47 650.408C224.99 650.408 224.531 650.493 224.094 650.664C223.657 650.835 223.299 651.069 223.022 651.368L222.126 650.184C222.563 649.768 223.081 649.443 223.678 649.208C224.275 648.963 224.894 648.84 225.534 648.84C226.601 648.84 227.438 649.091 228.046 649.592C228.654 650.093 228.958 650.787 228.958 651.672V655.32C228.958 655.565 228.974 655.853 229.006 656.184C229.049 656.515 229.097 656.787 229.15 657H227.342C227.278 656.861 227.23 656.728 227.198 656.6C227.166 656.461 227.139 656.275 227.118 656.04H227.086C226.478 656.787 225.662 657.16 224.638 657.16ZM225.134 655.624C225.646 655.624 226.067 655.496 226.398 655.24C226.739 654.973 226.91 654.637 226.91 654.232V653.432H225.598C225.054 653.432 224.633 653.533 224.334 653.736C224.046 653.939 223.902 654.232 223.902 654.616C223.902 654.936 224.009 655.187 224.222 655.368C224.446 655.539 224.75 655.624 225.134 655.624ZM237.763 649L234.707 657.368C234.376 658.264 233.917 658.936 233.331 659.384C232.755 659.843 232.061 660.072 231.251 660.072C230.824 660.072 230.387 660.013 229.939 659.896V658.28C230.067 658.323 230.227 658.36 230.419 658.392C230.611 658.424 230.781 658.44 230.931 658.44C231.4 658.44 231.8 658.275 232.131 657.944C232.472 657.624 232.776 657.112 233.043 656.408L230.067 649H232.243L234.003 654.12L235.587 649H237.763ZM240.721 654.104C240.689 653.944 240.673 653.747 240.673 653.512C240.673 653.075 240.769 652.664 240.961 652.28C241.163 651.896 241.457 651.443 241.841 650.92C242.193 650.451 242.454 650.056 242.625 649.736C242.795 649.405 242.881 649.064 242.881 648.712C242.881 648.264 242.753 647.917 242.497 647.672C242.251 647.427 241.91 647.304 241.473 647.304C241.089 647.304 240.71 647.432 240.337 647.688C239.974 647.933 239.67 648.269 239.425 648.696L238.337 647.448C238.646 646.883 239.099 646.44 239.697 646.12C240.294 645.8 240.971 645.64 241.729 645.64C242.785 645.64 243.617 645.901 244.225 646.424C244.833 646.947 245.137 647.656 245.137 648.552C245.137 649.032 245.025 649.469 244.801 649.864C244.577 650.248 244.246 650.701 243.809 651.224C243.414 651.693 243.115 652.104 242.913 652.456C242.71 652.797 242.609 653.171 242.609 653.576C242.609 653.693 242.619 653.869 242.641 654.104H240.721ZM241.761 657.16C241.366 657.16 241.046 657.048 240.801 656.824C240.566 656.589 240.449 656.291 240.449 655.928C240.449 655.565 240.566 655.272 240.801 655.048C241.046 654.813 241.366 654.696 241.761 654.696C242.145 654.696 242.459 654.813 242.705 655.048C242.95 655.272 243.073 655.565 243.073 655.928C243.073 656.291 242.95 656.589 242.705 656.824C242.459 657.048 242.145 657.16 241.761 657.16Z" fill="#4F3F44"/>
<path d="M61.672 632.24C60.36 632.24 59.176 631.976 58.12 631.448C57.08 630.92 56.232 630.152 55.576 629.144L57.808 627.032C58.336 627.656 58.968 628.168 59.704 628.568C60.456 628.968 61.152 629.168 61.792 629.168C62.464 629.168 63 629.024 63.4 628.736C63.8 628.448 64 628.072 64 627.608C64 627.24 63.936 626.952 63.808 626.744C63.696 626.536 63.448 626.32 63.064 626.096C62.696 625.856 62.056 625.504 61.144 625.04C59.928 624.432 58.976 623.872 58.288 623.36C57.6 622.848 57.08 622.288 56.728 621.68C56.392 621.056 56.224 620.32 56.224 619.472C56.224 618.592 56.464 617.808 56.944 617.12C57.424 616.432 58.096 615.904 58.96 615.536C59.84 615.152 60.848 614.96 61.984 614.96C63.248 614.96 64.352 615.192 65.296 615.656C66.256 616.12 66.96 616.768 67.408 617.6L64.984 619.424C64.2 618.496 63.264 618.032 62.176 618.032C61.504 618.032 60.984 618.16 60.616 618.416C60.264 618.656 60.088 619 60.088 619.448C60.088 619.736 60.192 620 60.4 620.24C60.608 620.48 60.968 620.752 61.48 621.056C62.008 621.344 62.792 621.728 63.832 622.208C64.84 622.672 65.632 623.144 66.208 623.624C66.784 624.088 67.192 624.624 67.432 625.232C67.688 625.824 67.816 626.544 67.816 627.392C67.816 628.368 67.56 629.224 67.048 629.96C66.552 630.68 65.84 631.24 64.912 631.64C63.984 632.04 62.904 632.24 61.672 632.24ZM74.9588 632.24C73.6628 632.24 72.6548 631.904 71.9348 631.232C71.2308 630.56 70.8788 629.616 70.8788 628.4V622.52H68.6948V620H70.8788V616.952L74.1908 615.992H74.2868V620H77.7908V622.52H74.2868V627.872C74.2868 628.512 74.4468 628.984 74.7668 629.288C75.0868 629.576 75.5828 629.72 76.2548 629.72C76.8948 629.72 77.4868 629.616 78.0308 629.408L78.1748 631.712C77.3748 632.064 76.3028 632.24 74.9588 632.24ZM83.5411 632.24C82.7571 632.24 82.0531 632.072 81.4291 631.736C80.8051 631.4 80.3171 630.944 79.9651 630.368C79.6131 629.776 79.4371 629.112 79.4371 628.376C79.4371 627.144 79.9331 626.2 80.9251 625.544C81.9171 624.888 83.3411 624.56 85.1971 624.56H86.8771V624.08C86.8771 623.536 86.7011 623.112 86.3491 622.808C85.9971 622.504 85.5171 622.352 84.9091 622.352C84.1891 622.352 83.4931 622.472 82.8211 622.712C82.1651 622.952 81.6211 623.28 81.1891 623.696L79.7251 621.752C80.4131 621.144 81.2211 620.664 82.1491 620.312C83.0931 619.944 84.0451 619.76 85.0051 619.76C86.6371 619.76 87.9251 620.144 88.8691 620.912C89.8131 621.664 90.2851 622.696 90.2851 624.008V629.408C90.2851 629.792 90.3171 630.248 90.3811 630.776C90.4451 631.304 90.5171 631.712 90.5971 632H87.5491C87.4531 631.776 87.3811 631.576 87.3331 631.4C87.2851 631.224 87.2451 630.976 87.2131 630.656H87.1651C86.2691 631.712 85.0611 632.24 83.5411 632.24ZM84.4531 629.72C85.1571 629.72 85.7331 629.544 86.1811 629.192C86.6451 628.824 86.8771 628.36 86.8771 627.8V626.792H85.1011C84.3491 626.792 83.7731 626.928 83.3731 627.2C82.9731 627.472 82.7731 627.864 82.7731 628.376C82.7731 628.808 82.9171 629.144 83.2051 629.384C83.4931 629.608 83.9091 629.72 84.4531 629.72ZM98.1854 632.24C96.8894 632.24 95.8814 631.904 95.1614 631.232C94.4574 630.56 94.1054 629.616 94.1054 628.4V622.52H91.9214V620H94.1054V616.952L97.4174 615.992H97.5134V620H101.017V622.52H97.5134V627.872C97.5134 628.512 97.6734 628.984 97.9934 629.288C98.3134 629.576 98.8094 629.72 99.4814 629.72C100.121 629.72 100.713 629.616 101.257 629.408L101.401 631.712C100.601 632.064 99.5294 632.24 98.1854 632.24ZM105.4 618.848C104.76 618.848 104.24 618.672 103.84 618.32C103.456 617.968 103.264 617.496 103.264 616.904C103.264 616.312 103.456 615.84 103.84 615.488C104.24 615.136 104.76 614.96 105.4 614.96C106.04 614.96 106.552 615.136 106.936 615.488C107.336 615.84 107.536 616.312 107.536 616.904C107.536 617.496 107.336 617.968 106.936 618.32C106.552 618.672 106.04 618.848 105.4 618.848ZM103.696 620H107.104V632H103.696V620ZM113.925 632.24C112.837 632.24 111.885 632.024 111.069 631.592C110.253 631.16 109.685 630.584 109.365 629.864L111.477 628.424C111.765 628.824 112.125 629.144 112.557 629.384C112.989 629.608 113.429 629.72 113.877 629.72C114.373 629.72 114.781 629.6 115.101 629.36C115.421 629.12 115.581 628.816 115.581 628.448C115.581 628.256 115.533 628.104 115.437 627.992C115.357 627.864 115.189 627.736 114.933 627.608C114.677 627.48 114.269 627.304 113.709 627.08C112.205 626.488 111.149 625.904 110.541 625.328C109.949 624.736 109.653 624.008 109.653 623.144C109.653 622.12 110.069 621.304 110.901 620.696C111.733 620.072 112.837 619.76 114.213 619.76C115.157 619.76 115.997 619.936 116.733 620.288C117.485 620.624 118.101 621.12 118.581 621.776L116.613 623.24C116.069 622.6 115.325 622.28 114.381 622.28C113.949 622.28 113.613 622.352 113.373 622.496C113.149 622.64 113.037 622.84 113.037 623.096C113.037 623.288 113.085 623.448 113.181 623.576C113.277 623.688 113.469 623.824 113.757 623.984C114.061 624.128 114.565 624.336 115.269 624.608C116.261 624.992 117.021 625.36 117.549 625.712C118.077 626.064 118.445 626.44 118.653 626.84C118.877 627.224 118.989 627.704 118.989 628.28C118.989 629.064 118.773 629.76 118.341 630.368C117.925 630.96 117.333 631.424 116.565 631.76C115.797 632.08 114.917 632.24 113.925 632.24ZM126.146 632.24C124.85 632.24 123.842 631.904 123.122 631.232C122.418 630.56 122.066 629.616 122.066 628.4V622.52H119.882V620H122.066V616.952L125.378 615.992H125.474V620H128.978V622.52H125.474V627.872C125.474 628.512 125.634 628.984 125.954 629.288C126.274 629.576 126.77 629.72 127.442 629.72C128.082 629.72 128.674 629.616 129.218 629.408L129.362 631.712C128.562 632.064 127.49 632.24 126.146 632.24ZM133.361 618.848C132.721 618.848 132.201 618.672 131.801 618.32C131.417 617.968 131.225 617.496 131.225 616.904C131.225 616.312 131.417 615.84 131.801 615.488C132.201 615.136 132.721 614.96 133.361 614.96C134.001 614.96 134.513 615.136 134.897 615.488C135.297 615.84 135.497 616.312 135.497 616.904C135.497 617.496 135.297 617.968 134.897 618.32C134.513 618.672 134.001 618.848 133.361 618.848ZM131.657 620H135.065V632H131.657V620ZM143.446 632.24C141.542 632.24 140.046 631.688 138.958 630.584C137.886 629.464 137.35 627.936 137.35 626C137.35 624.064 137.886 622.544 138.958 621.44C140.046 620.32 141.542 619.76 143.446 619.76C144.598 619.76 145.598 619.976 146.446 620.408C147.31 620.824 147.958 621.424 148.39 622.208L146.35 623.984C146.046 623.472 145.654 623.072 145.174 622.784C144.694 622.496 144.174 622.352 143.614 622.352C142.718 622.352 142.014 622.68 141.502 623.336C140.99 623.976 140.734 624.864 140.734 626C140.734 627.136 140.99 628.032 141.502 628.688C142.014 629.328 142.718 629.648 143.614 629.648C144.174 629.648 144.694 629.504 145.174 629.216C145.654 628.928 146.046 628.528 146.35 628.016L148.39 629.792C147.958 630.576 147.31 631.184 146.446 631.616C145.598 632.032 144.598 632.24 143.446 632.24ZM153.839 632.24C152.751 632.24 151.799 632.024 150.983 631.592C150.167 631.16 149.599 630.584 149.279 629.864L151.391 628.424C151.679 628.824 152.039 629.144 152.471 629.384C152.903 629.608 153.343 629.72 153.791 629.72C154.287 629.72 154.695 629.6 155.015 629.36C155.335 629.12 155.495 628.816 155.495 628.448C155.495 628.256 155.447 628.104 155.351 627.992C155.271 627.864 155.103 627.736 154.847 627.608C154.591 627.48 154.183 627.304 153.623 627.08C152.119 626.488 151.063 625.904 150.455 625.328C149.863 624.736 149.567 624.008 149.567 623.144C149.567 622.12 149.983 621.304 150.815 620.696C151.647 620.072 152.751 619.76 154.127 619.76C155.071 619.76 155.911 619.936 156.647 620.288C157.399 620.624 158.015 621.12 158.495 621.776L156.527 623.24C155.983 622.6 155.239 622.28 154.295 622.28C153.863 622.28 153.527 622.352 153.287 622.496C153.063 622.64 152.951 622.84 152.951 623.096C152.951 623.288 152.999 623.448 153.095 623.576C153.191 623.688 153.383 623.824 153.671 623.984C153.975 624.128 154.479 624.336 155.183 624.608C156.175 624.992 156.935 625.36 157.463 625.712C157.991 626.064 158.359 626.44 158.567 626.84C158.791 627.224 158.903 627.704 158.903 628.28C158.903 629.064 158.687 629.76 158.255 630.368C157.839 630.96 157.247 631.424 156.479 631.76C155.711 632.08 154.831 632.24 153.839 632.24Z" fill="#4F3F44"/>
<path d="M197.84 361.24C197.745 360.994 197.602 360.77 197.42 360.58L187.42 350.58C187.234 350.393 187.012 350.245 186.769 350.145C186.525 350.044 186.264 349.992 186 349.992C185.467 349.992 184.957 350.203 184.58 350.58C184.394 350.766 184.246 350.988 184.145 351.231C184.044 351.475 183.992 351.736 183.992 352C183.992 352.532 184.203 353.043 184.58 353.42L191.18 360H176C175.47 360 174.961 360.211 174.586 360.586C174.211 360.961 174 361.469 174 362C174 362.53 174.211 363.039 174.586 363.414C174.961 363.789 175.47 364 176 364H191.18L184.58 370.58C184.393 370.766 184.244 370.987 184.142 371.231C184.041 371.474 183.988 371.736 183.988 372C183.988 372.264 184.041 372.525 184.142 372.769C184.244 373.013 184.393 373.234 184.58 373.42C184.766 373.607 184.987 373.756 185.231 373.858C185.475 373.959 185.736 374.011 186 374.011C186.264 374.011 186.525 373.959 186.769 373.858C187.013 373.756 187.234 373.607 187.42 373.42L197.42 363.42C197.602 363.23 197.745 363.005 197.84 362.76C198.04 362.273 198.04 361.727 197.84 361.24Z" fill="white"/>
<path d="M197.84 541.24C197.745 540.994 197.602 540.77 197.42 540.58L187.42 530.58C187.234 530.393 187.012 530.245 186.769 530.145C186.525 530.044 186.264 529.992 186 529.992C185.467 529.992 184.957 530.203 184.58 530.58C184.394 530.766 184.246 530.988 184.145 531.231C184.044 531.475 183.992 531.736 183.992 532C183.992 532.532 184.203 533.043 184.58 533.42L191.18 540H176C175.47 540 174.961 540.211 174.586 540.586C174.211 540.961 174 541.469 174 542C174 542.53 174.211 543.039 174.586 543.414C174.961 543.789 175.47 544 176 544H191.18L184.58 550.58C184.393 550.766 184.244 550.987 184.142 551.231C184.041 551.474 183.988 551.736 183.988 552C183.988 552.264 184.041 552.525 184.142 552.769C184.244 553.013 184.393 553.234 184.58 553.42C184.766 553.607 184.987 553.756 185.231 553.858C185.475 553.959 185.736 554.011 186 554.011C186.264 554.011 186.525 553.959 186.769 553.858C187.013 553.756 187.234 553.607 187.42 553.42L197.42 543.42C197.602 543.23 197.745 543.005 197.84 542.76C198.04 542.273 198.04 541.727 197.84 541.24Z" fill="white"/>
<path d="M377.84 361.24C377.745 360.994 377.602 360.77 377.42 360.58L367.42 350.58C367.234 350.393 367.012 350.245 366.769 350.145C366.525 350.044 366.264 349.992 366 349.992C365.467 349.992 364.957 350.203 364.58 350.58C364.394 350.766 364.246 350.988 364.145 351.231C364.044 351.475 363.992 351.736 363.992 352C363.992 352.532 364.203 353.043 364.58 353.42L371.18 360H356C355.47 360 354.961 360.211 354.586 360.586C354.211 360.961 354 361.469 354 362C354 362.53 354.211 363.039 354.586 363.414C354.961 363.789 355.47 364 356 364H371.18L364.58 370.58C364.393 370.766 364.244 370.987 364.142 371.231C364.041 371.474 363.988 371.736 363.988 372C363.988 372.264 364.041 372.525 364.142 372.769C364.244 373.013 364.393 373.234 364.58 373.42C364.766 373.607 364.987 373.756 365.231 373.858C365.475 373.959 365.736 374.011 366 374.011C366.264 374.011 366.525 373.959 366.769 373.858C367.013 373.756 367.234 373.607 367.42 373.42L377.42 363.42C377.602 363.23 377.745 363.005 377.84 362.76C378.04 362.273 378.04 361.727 377.84 361.24Z" fill="white"/>
<path d="M377.84 541.24C377.745 540.994 377.602 540.77 377.42 540.58L367.42 530.58C367.234 530.393 367.012 530.245 366.769 530.145C366.525 530.044 366.264 529.992 366 529.992C365.467 529.992 364.957 530.203 364.58 530.58C364.394 530.766 364.246 530.988 364.145 531.231C364.044 531.475 363.992 531.736 363.992 532C363.992 532.532 364.203 533.043 364.58 533.42L371.18 540H356C355.47 540 354.961 540.211 354.586 540.586C354.211 540.961 354 541.469 354 542C354 542.53 354.211 543.039 354.586 543.414C354.961 543.789 355.47 544 356 544H371.18L364.58 550.58C364.393 550.766 364.244 550.987 364.142 551.231C364.041 551.474 363.988 551.736 363.988 552C363.988 552.264 364.041 552.525 364.142 552.769C364.244 553.013 364.393 553.234 364.58 553.42C364.766 553.607 364.987 553.756 365.231 553.858C365.475 553.959 365.736 554.011 366 554.011C366.264 554.011 366.525 553.959 366.769 553.858C367.013 553.756 367.234 553.607 367.42 553.42L377.42 543.42C377.602 543.23 377.745 543.005 377.84 542.76C378.04 542.273 378.04 541.727 377.84 541.24Z" fill="white"/>
<path d="M88.5704 683V843" stroke="black"/>
<path d="M80.5137 763H88.5706" stroke="black"/>
<path d="M72.0241 753.463V754.383H71.8249C70.9811 754.398 70.3092 754.648 69.8092 755.133C69.3092 755.617 69.0202 756.299 68.9421 757.178C69.3913 756.662 70.0046 756.404 70.7819 756.404C71.5241 756.404 72.1159 756.666 72.5573 757.189C73.0026 757.713 73.2253 758.389 73.2253 759.217C73.2253 760.096 72.985 760.799 72.5046 761.326C72.028 761.854 71.3874 762.117 70.5827 762.117C69.7663 762.117 69.1042 761.805 68.5964 761.18C68.0885 760.551 67.8346 759.742 67.8346 758.754V758.338C67.8346 756.768 68.1686 755.568 68.8366 754.74C69.5085 753.908 70.5065 753.482 71.8307 753.463H72.0241ZM70.6003 757.307C70.2292 757.307 69.8874 757.418 69.5749 757.641C69.2624 757.863 69.0456 758.143 68.9245 758.479V758.877C68.9245 759.58 69.0827 760.146 69.3991 760.576C69.7155 761.006 70.11 761.221 70.5827 761.221C71.071 761.221 71.4538 761.041 71.7311 760.682C72.0124 760.322 72.153 759.852 72.153 759.27C72.153 758.684 72.0104 758.211 71.7253 757.852C71.444 757.488 71.069 757.307 70.6003 757.307Z" fill="black"/>
<path d="M80.5137 723H88.5706" stroke="black"/>
<path d="M71.9245 718.25C71.6979 718.52 71.4264 718.736 71.11 718.9C70.7975 719.064 70.4538 719.146 70.0788 719.146C69.5866 719.146 69.1569 719.025 68.7897 718.783C68.4264 718.541 68.1452 718.201 67.946 717.764C67.7467 717.322 67.6471 716.836 67.6471 716.305C67.6471 715.734 67.7546 715.221 67.9694 714.764C68.1882 714.307 68.4967 713.957 68.8952 713.715C69.2936 713.473 69.7585 713.352 70.2897 713.352C71.1335 713.352 71.7975 713.668 72.2819 714.301C72.7702 714.93 73.0143 715.789 73.0143 716.879V717.195C73.0143 718.855 72.6862 720.068 72.03 720.834C71.3737 721.596 70.3835 721.986 69.0592 722.006H68.8483V721.092H69.0768C69.9714 721.076 70.6589 720.844 71.1393 720.395C71.6198 719.941 71.8815 719.227 71.9245 718.25ZM70.2546 718.25C70.6178 718.25 70.9518 718.139 71.2565 717.916C71.5651 717.693 71.7897 717.418 71.9303 717.09V716.656C71.9303 715.945 71.776 715.367 71.4675 714.922C71.1589 714.477 70.7682 714.254 70.2956 714.254C69.819 714.254 69.4362 714.438 69.1471 714.805C68.8581 715.168 68.7135 715.648 68.7135 716.246C68.7135 716.828 68.8522 717.309 69.1296 717.688C69.4108 718.062 69.7858 718.25 70.2546 718.25Z" fill="black"/>
<path d="M80.5134 683H88.5703" stroke="black"/>
<path d="M64.5943 686H63.5045V678.775L61.3189 679.578V678.594L64.4244 677.428H64.5943V686ZM73.36 686H67.7701V685.221L70.7232 681.939C71.1607 681.443 71.4615 681.041 71.6256 680.732C71.7935 680.42 71.8775 680.098 71.8775 679.766C71.8775 679.32 71.7428 678.955 71.4732 678.67C71.2037 678.385 70.8443 678.242 70.3951 678.242C69.856 678.242 69.4361 678.396 69.1353 678.705C68.8385 679.01 68.69 679.436 68.69 679.982H67.606C67.606 679.197 67.858 678.562 68.3619 678.078C68.8697 677.594 69.5475 677.352 70.3951 677.352C71.1881 677.352 71.815 677.561 72.276 677.979C72.7369 678.393 72.9674 678.945 72.9674 679.637C72.9674 680.477 72.4322 681.477 71.3619 682.637L69.0768 685.115H73.36V686Z" fill="black"/>
<path d="M88.5703 763H397.418" stroke="#CCCCCC"/>
<path d="M88.5703 723H397.418" stroke="#CCCCCC"/>
<path d="M88.5703 683H397.418" stroke="#CCCCCC"/>
<path d="M88.5703 683V843" stroke="#CCCCCC"/>
<path d="M122.887 683V843" stroke="#CCCCCC"/>
<path d="M157.203 683V843" stroke="#CCCCCC"/>
<path d="M191.519 683V843" stroke="#CCCCCC"/>
<path d="M225.836 683V843" stroke="#CCCCCC"/>
<path d="M260.152 683V843" stroke="#CCCCCC"/>
<path d="M294.469 683V843" stroke="#CCCCCC"/>
<path d="M328.785 683V843" stroke="#CCCCCC"/>
<path d="M363.101 683V843" stroke="#CCCCCC"/>
<path d="M397.418 683V843" stroke="#CCCCCC"/>
<path d="M88.5704 816.333L122.887 789.667L157.203 829.667L191.52 816.333H225.836L260.152 749.667L294.469 709.667L328.785 816.333L363.101 829.667H397.418V843H363.101H328.785H294.469H260.152H225.836H191.52H157.203H122.887H88.5704V816.333Z" fill="#FB948F" fill-opacity="0.6"/>
<path d="M260.152 752.667C261.008 752.667 261.702 751.324 261.702 749.667C261.702 748.01 261.008 746.667 260.152 746.667C259.297 746.667 258.603 748.01 258.603 749.667C258.603 751.324 259.297 752.667 260.152 752.667Z" fill="#FB948F" fill-opacity="0.6"/>
<path d="M294.469 712.667C295.324 712.667 296.018 711.324 296.018 709.667C296.018 708.01 295.324 706.667 294.469 706.667C293.613 706.667 292.919 708.01 292.919 709.667C292.919 711.324 293.613 712.667 294.469 712.667Z" fill="#FB948F" fill-opacity="0.6"/>
<path d="M88.5704 709.667L122.887 736.333L157.203 749.667L191.52 789.667L225.836 776.333L260.152 843L294.469 736.333L328.785 776.333L363.101 763L397.418 829.667V843H363.101H328.785H294.469H260.152H225.836H191.52H157.203H122.887H88.5704V709.667Z" fill="#F2CAC8" fill-opacity="0.6"/>
<path d="M88.5704 712.667C89.4261 712.667 90.1198 711.324 90.1198 709.667C90.1198 708.01 89.4261 706.667 88.5704 706.667C87.7147 706.667 87.021 708.01 87.021 709.667C87.021 711.324 87.7147 712.667 88.5704 712.667Z" fill="#F2CAC8" fill-opacity="0.6"/>
<path d="M122.887 739.333C123.743 739.333 124.436 737.99 124.436 736.333C124.436 734.677 123.743 733.333 122.887 733.333C122.031 733.333 121.337 734.677 121.337 736.333C121.337 737.99 122.031 739.333 122.887 739.333Z" fill="#F2CAC8" fill-opacity="0.6"/>
<path d="M157.203 752.667C158.059 752.667 158.753 751.324 158.753 749.667C158.753 748.01 158.059 746.667 157.203 746.667C156.347 746.667 155.654 748.01 155.654 749.667C155.654 751.324 156.347 752.667 157.203 752.667Z" fill="#F2CAC8" fill-opacity="0.6"/>
<path d="M294.469 739.333C295.324 739.333 296.018 737.99 296.018 736.333C296.018 734.677 295.324 733.333 294.469 733.333C293.613 733.333 292.919 734.677 292.919 736.333C292.919 737.99 293.613 739.333 294.469 739.333Z" fill="#F2CAC8" fill-opacity="0.6"/>
<path d="M363.101 766C363.957 766 364.651 764.657 364.651 763C364.651 761.343 363.957 760 363.101 760C362.246 760 361.552 761.343 361.552 763C361.552 764.657 362.246 766 363.101 766Z" fill="#F2CAC8" fill-opacity="0.6"/>
</g>
<g filter="url(#filter2_d)">
<rect x="40" y="20" width="375" height="88" fill="white"/>
</g>
<path d="M55 69H79V93H55V69Z" fill="white"/>
<path d="M58 77H76C76.2652 77 76.5196 76.8946 76.7071 76.7071C76.8946 76.5196 77 76.2652 77 76C77 75.7348 76.8946 75.4804 76.7071 75.2929C76.5196 75.1054 76.2652 75 76 75H58C57.7348 75 57.4804 75.1054 57.2929 75.2929C57.1054 75.4804 57 75.7348 57 76C57 76.2652 57.1054 76.5196 57.2929 76.7071C57.4804 76.8946 57.7348 77 58 77ZM76 85H58C57.7348 85 57.4804 85.1054 57.2929 85.2929C57.1054 85.4804 57 85.7348 57 86C57 86.2652 57.1054 86.5196 57.2929 86.7071C57.4804 86.8946 57.7348 87 58 87H76C76.2652 87 76.5196 86.8946 76.7071 86.7071C76.8946 86.5196 77 86.2652 77 86C77 85.7348 76.8946 85.4804 76.7071 85.2929C76.5196 85.1054 76.2652 85 76 85ZM76 80H58C57.7348 80 57.4804 80.1054 57.2929 80.2929C57.1054 80.4804 57 80.7348 57 81C57 81.2652 57.1054 81.5196 57.2929 81.7071C57.4804 81.8946 57.7348 82 58 82H76C76.2652 82 76.5196 81.8946 76.7071 81.7071C76.8946 81.5196 77 81.2652 77 81C77 80.7348 76.8946 80.4804 76.7071 80.2929C76.5196 80.1054 76.2652 80 76 80Z" fill="#4F3F44"/>
<path d="M208.918 76.8H210.862V84.6975H215.317V86.25H208.918V76.8Z" fill="#4F3F44"/>
<path d="M221.587 84.684H218.333L217.861 86.25H215.836L219.103 76.8H220.817L224.084 86.25H222.059L221.587 84.684ZM221.114 83.1315L219.967 79.3515L218.806 83.1315H221.114Z" fill="#4F3F44"/>
<path d="M232.8 76.8V86.25H231.005L227.13 80.04V86.25H225.2V76.8H227.076L230.87 82.9155V76.8H232.8Z" fill="#4F3F44"/>
<path d="M234.639 76.8H238.014C240.597 76.8 241.889 78.3165 241.889 81.3495C241.889 82.5195 241.745 83.4645 241.457 84.1845C241.169 84.8955 240.714 85.4175 240.093 85.7505C239.481 86.0835 238.667 86.25 237.65 86.25H234.639V76.8ZM237.852 84.6975C238.365 84.6975 238.775 84.585 239.081 84.36C239.387 84.135 239.607 83.7795 239.742 83.2935C239.886 82.8075 239.958 82.1595 239.958 81.3495C239.958 80.2785 239.805 79.5135 239.499 79.0545C239.193 78.5865 238.685 78.3525 237.974 78.3525H236.583V84.6975H237.852Z" fill="#4F3F44"/>
<path d="M243.301 76.8H246.446C247.562 76.8 248.408 77.0565 248.984 77.5695C249.56 78.0735 249.848 78.8205 249.848 79.8105C249.848 80.8545 249.551 81.651 248.957 82.2C248.372 82.74 247.513 83.01 246.379 83.01H245.245V86.25H243.301V76.8ZM246.541 81.471C247.009 81.471 247.36 81.336 247.594 81.066C247.837 80.787 247.958 80.3865 247.958 79.8645C247.958 79.3695 247.828 78.996 247.567 78.744C247.315 78.483 246.937 78.3525 246.433 78.3525H245.245V81.471H246.541Z" fill="#4F3F44"/>
<path d="M255.218 84.684H251.965L251.492 86.25H249.467L252.734 76.8H254.449L257.716 86.25H255.691L255.218 84.684ZM254.746 83.1315L253.598 79.3515L252.437 83.1315H254.746Z" fill="#4F3F44"/>
<path d="M266.067 81.12V86.25H264.596L264.42 85.7235C263.808 86.1645 263.097 86.385 262.287 86.385C261.036 86.385 260.064 85.9575 259.371 85.1025C258.678 84.2475 258.332 83.055 258.332 81.525C258.332 80.544 258.512 79.689 258.872 78.96C259.232 78.222 259.74 77.655 260.397 77.259C261.054 76.863 261.824 76.665 262.706 76.665C263.471 76.665 264.137 76.8135 264.704 77.1105C265.28 77.3985 265.698 77.8035 265.959 78.3255L264.852 79.2975C264.627 78.9465 264.33 78.681 263.961 78.501C263.601 78.312 263.187 78.2175 262.719 78.2175C261.927 78.2175 261.32 78.501 260.897 79.068C260.483 79.635 260.276 80.454 260.276 81.525C260.276 82.65 260.469 83.505 260.856 84.09C261.243 84.666 261.806 84.954 262.544 84.954C263.138 84.954 263.673 84.81 264.15 84.522V82.497H262.098V81.12H266.067Z" fill="#4F3F44"/>
<path d="M267.651 76.8H273.928V78.3525H269.595V80.5125H273.456V82.065H269.595V84.6975H273.928V86.25H267.651V76.8Z" fill="#4F3F44"/>
<path d="M275.363 76.8H278.698C279.769 76.8 280.57 77.0205 281.101 77.4615C281.632 77.8935 281.897 78.5505 281.897 79.4325C281.897 80.0535 281.767 80.5845 281.506 81.0255C281.245 81.4665 280.867 81.786 280.372 81.984V82.011C280.543 82.137 280.673 82.2585 280.763 82.3755C280.862 82.4835 280.943 82.6095 281.006 82.7535L282.397 86.25H280.331L279.251 83.3745C279.143 83.0865 279.004 82.8975 278.833 82.8075C278.662 82.7085 278.365 82.659 277.942 82.659H277.307V86.25H275.363V76.8ZM278.495 81.12C278.99 81.12 279.364 80.9985 279.616 80.7555C279.877 80.5035 280.007 80.139 280.007 79.662C280.007 78.789 279.494 78.3525 278.468 78.3525H277.307V81.12H278.495Z" fill="#4F3F44"/>
<path d="M191.208 71.7175C191.208 74.8752 186.598 81.3659 186.598 81.3659C186.598 81.3659 181.988 74.8752 181.988 71.7175C181.988 68.5598 184.052 66 186.598 66C189.144 66 191.208 68.5598 191.208 71.7175Z" fill="#FB948F"/>
<path d="M182.756 91.6438C182.756 89.2379 186.214 84.2927 186.214 84.2927C186.214 84.2927 189.671 89.2379 189.671 91.6438C189.671 94.0497 188.123 96 186.214 96C184.304 96 182.756 94.0497 182.756 91.6438Z" fill="#FEBB75"/>
<path d="M195.902 81.9231C193.741 83.1113 187.564 82.6923 187.564 82.6923C187.564 82.6923 190.271 77.3885 192.432 76.2003C194.593 75.0121 197.122 75.3299 198.08 76.9102C199.038 78.4905 198.063 80.7349 195.902 81.9231Z" fill="#F2CAC8"/>
<path d="M176.041 85.1154C178.273 83.8883 184.651 84.321 184.651 84.321C184.651 84.321 181.856 89.7984 179.624 91.0255C177.392 92.2527 174.781 91.9244 173.791 90.2924C172.802 88.6603 173.809 86.3425 176.041 85.1154Z" fill="#C36B84"/>
<path d="M193.345 91.6005C190.811 90.2074 187.637 83.989 187.637 83.989C187.637 83.989 194.879 83.4977 197.412 84.8908C199.946 86.284 201.089 88.9153 199.966 90.7682C198.843 92.621 195.879 92.9936 193.345 91.6005Z" fill="#C36B84"/>
<path d="M180.798 76.673C182.699 77.7182 185.081 82.3836 185.081 82.3836C185.081 82.3836 179.648 82.7521 177.747 81.7069C175.846 80.6618 174.988 78.6876 175.831 77.2975C176.673 75.9074 178.898 75.6278 180.798 76.673Z" fill="#F2CAC8"/>
<path d="M376 69H400V93H376V69Z" fill="white"/>
<path d="M397.71 89.29L394 85.61C395.44 83.8144 396.138 81.5353 395.949 79.2413C395.76 76.9473 394.7 74.8128 392.986 73.2767C391.271 71.7405 389.034 70.9195 386.733 70.9825C384.432 71.0455 382.243 71.9876 380.615 73.6152C378.988 75.2427 378.045 77.4321 377.982 79.7329C377.92 82.0338 378.741 84.2714 380.277 85.9855C381.813 87.6997 383.947 88.7601 386.241 88.9488C388.535 89.1375 390.814 88.4401 392.61 87L396.29 90.68C396.383 90.7738 396.494 90.8482 396.615 90.8989C396.737 90.9497 396.868 90.9758 397 90.9758C397.132 90.9758 397.263 90.9497 397.385 90.8989C397.506 90.8482 397.617 90.7738 397.71 90.68C397.89 90.4936 397.991 90.2444 397.991 89.985C397.991 89.7257 397.89 89.4765 397.71 89.29ZM387 87C385.616 87 384.262 86.5895 383.111 85.8203C381.96 85.0511 381.063 83.9579 380.533 82.6788C380.003 81.3997 379.864 79.9923 380.135 78.6344C380.405 77.2765 381.071 76.0292 382.05 75.0503C383.029 74.0713 384.277 73.4046 385.634 73.1345C386.992 72.8644 388.4 73.0031 389.679 73.5329C390.958 74.0627 392.051 74.9599 392.82 76.111C393.589 77.2622 394 78.6156 394 80C394 81.8565 393.263 83.637 391.95 84.9498C390.637 86.2625 388.857 87 387 87Z" fill="#4F3F44"/>
<g filter="url(#filter3_d)">
<rect x="40" y="772" width="375" height="60" fill="white"/>
</g>
<circle cx="228" cy="772" r="30" fill="url(#paint4_linear)"/>
<path d="M235 771H229V765C229 764.735 228.895 764.48 228.707 764.293C228.52 764.105 228.265 764 228 764C227.735 764 227.48 764.105 227.293 764.293C227.105 764.48 227 764.735 227 765V771H221C220.735 771 220.48 771.105 220.293 771.293C220.105 771.48 220 771.735 220 772C220 772.265 220.105 772.52 220.293 772.707C220.48 772.895 220.735 773 221 773H227V779C227 779.265 227.105 779.52 227.293 779.707C227.48 779.895 227.735 780 228 780C228.265 780 228.52 779.895 228.707 779.707C228.895 779.52 229 779.265 229 779V773H235C235.265 773 235.52 772.895 235.707 772.707C235.895 772.52 236 772.265 236 772C236 771.735 235.895 771.48 235.707 771.293C235.52 771.105 235.265 771 235 771Z" fill="white"/>
<path d="M303.71 799.71C304.69 798.939 305.406 797.881 305.757 796.684C306.108 795.487 306.078 794.21 305.67 793.031C305.262 791.853 304.496 790.83 303.48 790.107C302.464 789.383 301.247 788.994 300 788.994C298.753 788.994 297.536 789.383 296.52 790.107C295.504 790.83 294.738 791.853 294.33 793.031C293.922 794.21 293.892 795.487 294.243 796.684C294.594 797.881 295.31 798.939 296.29 799.71C294.61 800.383 293.144 801.499 292.049 802.94C290.953 804.38 290.27 806.091 290.07 807.89C290.056 808.021 290.067 808.154 290.104 808.281C290.141 808.408 290.202 808.526 290.285 808.629C290.452 808.837 290.695 808.971 290.96 809C291.225 809.029 291.491 808.952 291.699 808.785C291.907 808.618 292.041 808.375 292.07 808.11C292.29 806.155 293.222 804.35 294.688 803.039C296.155 801.728 298.053 801.003 300.02 801.003C301.987 801.003 303.885 801.728 305.352 803.039C306.818 804.35 307.75 806.155 307.97 808.11C307.997 808.356 308.114 808.583 308.299 808.747C308.484 808.911 308.723 809.001 308.97 809H309.08C309.342 808.97 309.582 808.837 309.747 808.631C309.911 808.425 309.988 808.162 309.96 807.9C309.759 806.096 309.072 804.381 307.971 802.938C306.87 801.495 305.397 800.379 303.71 799.71ZM300 799C299.209 799 298.436 798.765 297.778 798.326C297.12 797.886 296.607 797.262 296.304 796.531C296.002 795.8 295.923 794.995 296.077 794.22C296.231 793.444 296.612 792.731 297.172 792.171C297.731 791.612 298.444 791.231 299.22 791.077C299.996 790.922 300.8 791.002 301.531 791.304C302.262 791.607 302.886 792.12 303.326 792.778C303.765 793.435 304 794.209 304 795C304 796.061 303.579 797.078 302.828 797.828C302.078 798.578 301.061 799 300 799Z" fill="#4F3F44"/>
<path d="M363.32 796.55L361.43 795.92L362.32 794.14C362.41 793.954 362.44 793.744 362.406 793.54C362.372 793.336 362.276 793.147 362.13 793L360 790.87C359.852 790.722 359.662 790.624 359.456 790.59C359.249 790.556 359.037 790.587 358.85 790.68L357.07 791.57L356.44 789.68C356.373 789.483 356.247 789.312 356.079 789.19C355.91 789.068 355.708 789.002 355.5 789H352.5C352.29 788.999 352.086 789.065 351.915 789.187C351.745 789.309 351.617 789.481 351.55 789.68L350.92 791.57L349.14 790.68C348.954 790.59 348.744 790.56 348.54 790.594C348.336 790.628 348.147 790.724 348 790.87L345.87 793C345.722 793.148 345.624 793.338 345.59 793.544C345.556 793.751 345.587 793.963 345.68 794.15L346.57 795.93L344.68 796.56C344.483 796.627 344.312 796.753 344.19 796.921C344.068 797.09 344.002 797.292 344 797.5V800.5C343.999 800.71 344.065 800.914 344.187 801.085C344.309 801.255 344.481 801.383 344.68 801.45L346.57 802.08L345.68 803.86C345.59 804.046 345.56 804.256 345.594 804.46C345.628 804.664 345.724 804.853 345.87 805L348 807.13C348.148 807.278 348.338 807.376 348.544 807.41C348.751 807.444 348.963 807.413 349.15 807.32L350.93 806.43L351.56 808.32C351.627 808.519 351.755 808.691 351.925 808.813C352.096 808.935 352.3 809.001 352.51 809H355.51C355.72 809.001 355.924 808.935 356.095 808.813C356.265 808.691 356.393 808.519 356.46 808.32L357.09 806.43L358.87 807.32C359.055 807.408 359.263 807.437 359.465 807.403C359.667 807.369 359.854 807.274 360 807.13L362.13 805C362.278 804.852 362.376 804.662 362.41 804.456C362.444 804.249 362.413 804.037 362.32 803.85L361.43 802.07L363.32 801.44C363.517 801.373 363.688 801.247 363.81 801.079C363.932 800.91 363.998 800.708 364 800.5V797.5C364.001 797.29 363.935 797.086 363.813 796.915C363.691 796.745 363.519 796.617 363.32 796.55ZM362 799.78L360.8 800.18C360.524 800.27 360.271 800.418 360.058 800.615C359.845 800.812 359.678 801.053 359.567 801.322C359.457 801.59 359.406 801.879 359.419 802.169C359.431 802.459 359.507 802.742 359.64 803L360.21 804.14L359.11 805.24L358 804.64C357.744 804.512 357.463 804.441 357.176 804.431C356.89 804.422 356.605 804.473 356.34 804.583C356.076 804.693 355.838 804.859 355.643 805.069C355.448 805.279 355.3 805.528 355.21 805.8L354.81 807H353.22L352.82 805.8C352.73 805.524 352.582 805.271 352.385 805.058C352.188 804.845 351.947 804.678 351.678 804.567C351.41 804.457 351.121 804.406 350.831 804.419C350.541 804.431 350.258 804.507 350 804.64L348.86 805.21L347.76 804.11L348.36 803C348.493 802.742 348.569 802.459 348.581 802.169C348.594 801.879 348.543 801.59 348.433 801.322C348.322 801.053 348.155 800.812 347.942 800.615C347.729 800.418 347.476 800.27 347.2 800.18L346 799.78V798.22L347.2 797.82C347.476 797.73 347.729 797.582 347.942 797.385C348.155 797.188 348.322 796.947 348.433 796.678C348.543 796.41 348.594 796.121 348.581 795.831C348.569 795.541 348.493 795.258 348.36 795L347.79 793.89L348.89 792.79L350 793.36C350.258 793.493 350.541 793.569 350.831 793.581C351.121 793.594 351.41 793.543 351.678 793.433C351.947 793.322 352.188 793.155 352.385 792.942C352.582 792.729 352.73 792.476 352.82 792.2L353.22 791H354.78L355.18 792.2C355.27 792.476 355.418 792.729 355.615 792.942C355.812 793.155 356.053 793.322 356.322 793.433C356.59 793.543 356.879 793.594 357.169 793.581C357.459 793.569 357.742 793.493 358 793.36L359.14 792.79L360.24 793.89L359.64 795C359.512 795.256 359.441 795.537 359.431 795.824C359.422 796.11 359.473 796.395 359.583 796.66C359.693 796.924 359.859 797.162 360.069 797.357C360.279 797.552 360.528 797.7 360.8 797.79L362 798.19V799.78ZM354 795C353.209 795 352.436 795.235 351.778 795.674C351.12 796.114 350.607 796.738 350.304 797.469C350.002 798.2 349.923 799.004 350.077 799.78C350.231 800.556 350.612 801.269 351.172 801.828C351.731 802.388 352.444 802.769 353.22 802.923C353.996 803.077 354.8 802.998 355.531 802.696C356.262 802.393 356.886 801.88 357.326 801.222C357.765 800.564 358 799.791 358 799C358 797.939 357.579 796.922 356.828 796.172C356.078 795.421 355.061 795 354 795ZM354 801C353.604 801 353.218 800.883 352.889 800.663C352.56 800.443 352.304 800.131 352.152 799.765C352.001 799.4 351.961 798.998 352.038 798.61C352.116 798.222 352.306 797.865 352.586 797.586C352.865 797.306 353.222 797.116 353.61 797.038C353.998 796.961 354.4 797.001 354.765 797.152C355.131 797.304 355.443 797.56 355.663 797.889C355.883 798.218 356 798.604 356 799C356 799.53 355.789 800.039 355.414 800.414C355.039 800.789 354.53 801 354 801Z" fill="#4F3F44"/>
<path d="M163 793.5H161.72L161.4 792.5C161.193 791.913 160.808 791.406 160.299 791.047C159.79 790.689 159.182 790.498 158.56 790.5H153.44C152.812 790.501 152.199 790.7 151.69 791.068C151.18 791.435 150.799 791.954 150.6 792.55L150.28 793.55H149C148.204 793.55 147.441 793.866 146.879 794.429C146.316 794.991 146 795.754 146 796.55V804.55C146 805.346 146.316 806.109 146.879 806.671C147.441 807.234 148.204 807.55 149 807.55H163C163.796 807.55 164.559 807.234 165.121 806.671C165.684 806.109 166 805.346 166 804.55V796.55C166.007 796.152 165.934 795.756 165.786 795.387C165.638 795.017 165.418 794.68 165.139 794.396C164.86 794.112 164.527 793.887 164.16 793.733C163.792 793.579 163.398 793.5 163 793.5ZM164 804.5C164 804.765 163.895 805.02 163.707 805.207C163.52 805.395 163.265 805.5 163 805.5H149C148.735 805.5 148.48 805.395 148.293 805.207C148.105 805.02 148 804.765 148 804.5V796.5C148 796.235 148.105 795.98 148.293 795.793C148.48 795.605 148.735 795.5 149 795.5H151C151.218 795.511 151.434 795.451 151.614 795.328C151.795 795.206 151.93 795.027 152 794.82L152.54 793.18C152.607 792.981 152.735 792.809 152.905 792.687C153.076 792.565 153.28 792.499 153.49 792.5H158.61C158.82 792.499 159.024 792.565 159.195 792.687C159.365 792.809 159.493 792.981 159.56 793.18L160.1 794.82C160.164 795.011 160.284 795.178 160.445 795.299C160.606 795.42 160.799 795.49 161 795.5H163C163.265 795.5 163.52 795.605 163.707 795.793C163.895 795.98 164 796.235 164 796.5V804.5ZM156 795.5C155.209 795.5 154.436 795.735 153.778 796.174C153.12 796.614 152.607 797.238 152.304 797.969C152.002 798.7 151.923 799.504 152.077 800.28C152.231 801.056 152.612 801.769 153.172 802.328C153.731 802.888 154.444 803.269 155.22 803.423C155.996 803.578 156.8 803.498 157.531 803.196C158.262 802.893 158.886 802.38 159.326 801.722C159.765 801.065 160 800.291 160 799.5C160 798.439 159.579 797.422 158.828 796.672C158.078 795.921 157.061 795.5 156 795.5ZM156 801.5C155.604 801.5 155.218 801.383 154.889 801.163C154.56 800.943 154.304 800.631 154.152 800.265C154.001 799.9 153.961 799.498 154.038 799.11C154.116 798.722 154.306 798.366 154.586 798.086C154.865 797.806 155.222 797.616 155.61 797.538C155.998 797.461 156.4 797.501 156.765 797.652C157.131 797.804 157.443 798.06 157.663 798.389C157.883 798.718 158 799.104 158 799.5C158 800.03 157.789 800.539 157.414 800.914C157.039 801.289 156.53 801.5 156 801.5Z" fill="#4F3F44"/>
<path d="M107 798H106C105.735 798 105.48 798.105 105.293 798.293C105.105 798.48 105 798.735 105 799C105 799.265 105.105 799.52 105.293 799.707C105.48 799.895 105.735 800 106 800H107C107.265 800 107.52 799.895 107.707 799.707C107.895 799.52 108 799.265 108 799C108 798.735 107.895 798.48 107.707 798.293C107.52 798.105 107.265 798 107 798ZM107 802H106C105.735 802 105.48 802.105 105.293 802.293C105.105 802.48 105 802.735 105 803C105 803.265 105.105 803.52 105.293 803.707C105.48 803.895 105.735 804 106 804H107C107.265 804 107.52 803.895 107.707 803.707C107.895 803.52 108 803.265 108 803C108 802.735 107.895 802.48 107.707 802.293C107.52 802.105 107.265 802 107 802ZM101 796H107C107.265 796 107.52 795.895 107.707 795.707C107.895 795.52 108 795.265 108 795C108 794.735 107.895 794.48 107.707 794.293C107.52 794.105 107.265 794 107 794H101C100.735 794 100.48 794.105 100.293 794.293C100.105 794.48 100 794.735 100 795C100 795.265 100.105 795.52 100.293 795.707C100.48 795.895 100.735 796 101 796ZM111 790H97C96.7348 790 96.4804 790.105 96.2929 790.293C96.1054 790.48 96 790.735 96 791V794H93C92.7348 794 92.4804 794.105 92.2929 794.293C92.1054 794.48 92 794.735 92 795V805C92 805.796 92.3161 806.559 92.8787 807.121C93.4413 807.684 94.2044 808 95 808H108C109.061 808 110.078 807.579 110.828 806.828C111.579 806.078 112 805.061 112 804V791C112 790.735 111.895 790.48 111.707 790.293C111.52 790.105 111.265 790 111 790ZM96 805C96 805.265 95.8946 805.52 95.7071 805.707C95.5196 805.895 95.2652 806 95 806C94.7348 806 94.4804 805.895 94.2929 805.707C94.1054 805.52 94 805.265 94 805V796H96V805ZM110 804C110 804.53 109.789 805.039 109.414 805.414C109.039 805.789 108.53 806 108 806H97.82C97.9364 805.679 97.9973 805.341 98 805V792H110V804ZM101 800H102C102.265 800 102.52 799.895 102.707 799.707C102.895 799.52 103 799.265 103 799C103 798.735 102.895 798.48 102.707 798.293C102.52 798.105 102.265 798 102 798H101C100.735 798 100.48 798.105 100.293 798.293C100.105 798.48 100 798.735 100 799C100 799.265 100.105 799.52 100.293 799.707C100.48 799.895 100.735 800 101 800ZM101 804H102C102.265 804 102.52 803.895 102.707 803.707C102.895 803.52 103 803.265 103 803C103 802.735 102.895 802.48 102.707 802.293C102.52 802.105 102.265 802 102 802H101C100.735 802 100.48 802.105 100.293 802.293C100.105 802.48 100 802.735 100 803C100 803.265 100.105 803.52 100.293 803.707C100.48 803.895 100.735 804 101 804Z" fill="#4F3F44"/>
</g>
</g>
<defs>
<filter id="filter0_d" x="0" y="0" width="455" height="892" filterUnits="userSpaceOnUse" color-interpolation-filters="sRGB">
<feFlood flood-opacity="0" result="BackgroundImageFix"/>
<feColorMatrix in="SourceAlpha" type="matrix" values="0 0 0 0 0 0 0 0 0 0 0 0 0 0 0 0 0 0 127 0"/>
<feOffset dy="20"/>
<feGaussianBlur stdDeviation="20"/>
<feColorMatrix type="matrix" values="0 0 0 0 0.764706 0 0 0 0 0.419608 0 0 0 0 0.517647 0 0 0 0.1 0"/>
<feBlend mode="normal" in2="BackgroundImageFix" result="effect1_dropShadow"/>
<feBlend mode="normal" in="SourceGraphic" in2="effect1_dropShadow" result="shape"/>
</filter>
<filter id="filter1_d" x="0" y="0" width="455" height="892" filterUnits="userSpaceOnUse" color-interpolation-filters="sRGB">
<feFlood flood-opacity="0" result="BackgroundImageFix"/>
<feColorMatrix in="SourceAlpha" type="matrix" values="0 0 0 0 0 0 0 0 0 0 0 0 0 0 0 0 0 0 127 0"/>
<feOffset dy="20"/>
<feGaussianBlur stdDeviation="20"/>
<feColorMatrix type="matrix" values="0 0 0 0 0.764706 0 0 0 0 0.419608 0 0 0 0 0.517647 0 0 0 0.1 0"/>
<feBlend mode="normal" in2="BackgroundImageFix" result="effect1_dropShadow"/>
<feBlend mode="normal" in="SourceGraphic" in2="effect1_dropShadow" result="shape"/>
</filter>
<filter id="filter2_d" x="40" y="20" width="375" height="89" filterUnits="userSpaceOnUse" color-interpolation-filters="sRGB">
<feFlood flood-opacity="0" result="BackgroundImageFix"/>
<feColorMatrix in="SourceAlpha" type="matrix" values="0 0 0 0 0 0 0 0 0 0 0 0 0 0 0 0 0 0 127 0"/>
<feOffset dy="1"/>
<feColorMatrix type="matrix" values="0 0 0 0 0 0 0 0 0 0 0 0 0 0 0 0 0 0 0.1 0"/>
<feBlend mode="normal" in2="BackgroundImageFix" result="effect1_dropShadow"/>
<feBlend mode="normal" in="SourceGraphic" in2="effect1_dropShadow" result="shape"/>
</filter>
<filter id="filter3_d" x="40" y="771" width="375" height="61" filterUnits="userSpaceOnUse" color-interpolation-filters="sRGB">
<feFlood flood-opacity="0" result="BackgroundImageFix"/>
<feColorMatrix in="SourceAlpha" type="matrix" values="0 0 0 0 0 0 0 0 0 0 0 0 0 0 0 0 0 0 127 0"/>
<feOffset dy="-1"/>
<feColorMatrix type="matrix" values="0 0 0 0 0 0 0 0 0 0 0 0 0 0 0 0 0 0 0.1 0"/>
<feBlend mode="normal" in2="BackgroundImageFix" result="effect1_dropShadow"/>
<feBlend mode="normal" in="SourceGraphic" in2="effect1_dropShadow" result="shape"/>
</filter>
<linearGradient id="paint0_linear" x1="55" y1="313.5" x2="156.285" y2="393.833" gradientUnits="userSpaceOnUse">
<stop stop-color="#FB948F"/>
<stop offset="1" stop-color="#DC2789"/>
</linearGradient>
<linearGradient id="paint1_linear" x1="55" y1="493.5" x2="156.285" y2="573.833" gradientUnits="userSpaceOnUse">
<stop stop-color="#C36B84"/>
<stop offset="1" stop-color="#8735AE"/>
</linearGradient>
<linearGradient id="paint2_linear" x1="235" y1="313.5" x2="336.285" y2="393.833" gradientUnits="userSpaceOnUse">
<stop offset="0.0035809" stop-color="#F2CAC8"/>
<stop offset="1" stop-color="#EE6DAB"/>
</linearGradient>
<linearGradient id="paint3_linear" x1="235" y1="493.5" x2="336.285" y2="573.833" gradientUnits="userSpaceOnUse">
<stop stop-color="#FEBB75"/>
<stop offset="1" stop-color="#FE8E75"/>
</linearGradient>
<linearGradient id="paint4_linear" x1="198" y1="772" x2="234.831" y2="801.212" gradientUnits="userSpaceOnUse">
<stop stop-color="#FB948F"/>
<stop offset="1" stop-color="#DC2789"/>
</linearGradient>
<clipPath id="clip0">
<rect x="40" y="20" width="375" height="812" rx="24" fill="white"/>
</clipPath>
<clipPath id="clip1">
<rect x="55" y="134" width="345" height="638" fill="white"/>
</clipPath>
</defs>
</svg>
