<svg width="21" height="21" viewBox="0 0 21 21" fill="none" xmlns="http://www.w3.org/2000/svg">
    <path fill-rule="evenodd" clip-rule="evenodd"
          d="M3.22402 3.79245C2.50458 2.62702 2.85942 1.09698 4.02485 0.374281C5.19028 -0.348415 6.72031 0.00643105 7.443 1.17186L10.9575 6.82773L16.6341 3.30109C17.7995 2.5784 19.3263 2.9365 20.0523 4.10193C20.775 5.2641 20.4169 6.79412 19.2547 7.52007L13.5784 11.0454L17.0497 16.6317C17.7691 17.7971 17.4143 19.3304 16.2488 20.0531C15.0834 20.7758 13.5534 20.4177 12.8307 19.2523L9.35919 13.6657L3.79159 17.1235C2.62616 17.8461 1.0994 17.4913 0.373446 16.3259C-0.349253 15.1605 0.0088253 13.6304 1.171 12.9077L6.73877 9.44869L3.22402 3.79245Z"
          fill="url(#paint0_linear)"/>
    <defs>
        <linearGradient id="paint0_linear" x1="20.4258" y1="10.2132" x2="7.88716" y2="20.1578"
                        gradientUnits="userSpaceOnUse">
            <stop stop-color="#FEBB75"/>
            <stop offset="1" stop-color="#FE8E75"/>
        </linearGradient>
    </defs>
</svg>
