<svg width="127" height="127" viewBox="0 0 127 127" fill="none" xmlns="http://www.w3.org/2000/svg">
    <mask id="mask0" mask-type="alpha" maskUnits="userSpaceOnUse" x="0" y="0" width="127" height="127">
        <circle cx="63.3373" cy="63.3373" r="63.3373" fill="#C4C4C4"/>
    </mask>
    <g mask="url(#mask0)">
        <path d="M-26.3337 83.4654L-33.7803 76.3498L72.9822 -35.3516L80.4287 -28.2328L-26.3337 83.4654Z" fill="url(#paint0_linear)"/>
        <path d="M-9.83996 99.1237L-17.2865 92.0081L89.4759 -19.6963L96.9225 -12.5743L-9.83996 99.1237Z" fill="url(#paint1_linear)"/>
        <path d="M6.35499 114.781L-1.09155 107.662L105.671 -4.03906L113.117 3.0797L6.35499 114.781Z" fill="url(#paint2_linear)"/>
        <path d="M22.8518 130.435L15.4021 123.32L122.165 11.6152L129.611 18.734L22.8518 130.435Z" fill="url(#paint3_linear)"/>
        <path d="M39.343 146.111L31.8965 138.995L138.659 27.291L146.102 34.4066L39.343 146.111Z" fill="url(#paint4_linear)"/>
        <path d="M55.5372 161.75L48.0907 154.634L154.853 42.9326L162.296 50.0482L55.5372 161.75Z" fill="url(#paint5_linear)"/>
    </g>
    <defs>
        <linearGradient id="paint0_linear" x1="-33.7803" y1="24.0569" x2="38.4478" y2="79.1223" gradientUnits="userSpaceOnUse">
            <stop stop-color="#C36B84"/>
            <stop offset="1" stop-color="#8735AE"/>
        </linearGradient>
        <linearGradient id="paint1_linear" x1="-17.2865" y1="39.7137" x2="54.943" y2="94.7787" gradientUnits="userSpaceOnUse">
            <stop stop-color="#C36B84"/>
            <stop offset="1" stop-color="#8735AE"/>
        </linearGradient>
        <linearGradient id="paint2_linear" x1="-1.09155" y1="55.3709" x2="71.1379" y2="110.436" gradientUnits="userSpaceOnUse">
            <stop stop-color="#C36B84"/>
            <stop offset="1" stop-color="#8735AE"/>
        </linearGradient>
        <linearGradient id="paint3_linear" x1="15.4021" y1="71.0252" x2="87.6316" y2="126.09" gradientUnits="userSpaceOnUse">
            <stop stop-color="#C36B84"/>
            <stop offset="1" stop-color="#8735AE"/>
        </linearGradient>
        <linearGradient id="paint4_linear" x1="31.8965" y1="86.701" x2="104.125" y2="141.764" gradientUnits="userSpaceOnUse">
            <stop stop-color="#C36B84"/>
            <stop offset="1" stop-color="#8735AE"/>
        </linearGradient>
        <linearGradient id="paint5_linear" x1="48.0907" y1="102.341" x2="120.318" y2="157.404" gradientUnits="userSpaceOnUse">
            <stop stop-color="#C36B84"/>
            <stop offset="1" stop-color="#8735AE"/>
        </linearGradient>
    </defs>
</svg>
